<mxfile host="app.diagrams.net" modified="2023-01-06T21:57:55.632Z" agent="5.0 (Windows NT 10.0; Win64; x64) AppleWebKit/537.36 (KHTML, like Gecko) Chrome/108.0.0.0 Safari/537.36" version="20.8.1" etag="MyxIBGhhbf7YIO50uoHT" type="github">
  <diagram id="9j9pSJIFzKJT6YdxpIpK" name="Page-1">
    <mxGraphModel dx="200" dy="483" grid="1" gridSize="10" guides="1" tooltips="1" connect="1" arrows="1" fold="1" page="1" pageScale="1" pageWidth="850" pageHeight="1100" math="0" shadow="0">
      <root>
        <mxCell id="0" />
        <mxCell id="1" parent="0" />
        <mxCell id="sU2wuI3Lxk2DHLaSyabf-2" value="" style="shape=image;verticalLabelPosition=bottom;labelBackgroundColor=default;verticalAlign=top;aspect=fixed;imageAspect=0;image=data:image/svg+xml,PHN2ZyB4bWxuczp4bGluaz0iaHR0cDovL3d3dy53My5vcmcvMTk5OS94bGluayIgeG1sbnM9Imh0dHA6Ly93d3cudzMub3JnLzIwMDAvc3ZnIiBoZWlnaHQ9IjMxNjAuMjkiIHdpZHRoPSIxNjgwIiB2aWV3Qm94PSIwIDAgMTY4MCAzMTYwLjI5Ij48ZyB0cmFuc2Zvcm09InRyYW5zbGF0ZSgtNjAgLTgwKSI+PHBhdGggZmlsbD0iI2ZmZiIgZD0iTTAgMGgxODcwLjg3djM4NDAuNUgweiIvPjxwYXRoIGZpbGw9IiNmZmYiIGQ9Ik04MCA0MDZhNiA2IDAgMCAxIDYtNmg4OGE2IDYgMCAwIDEgNiA2djhhMTQuNDggMTQuNDggMCAwIDEtNC4yNCAxMC4yNGwtMS41MiAxLjUyQTE0LjQ4IDE0LjQ4IDAgMCAxIDE2NCA0MzBIODZhNiA2IDAgMCAxLTYtNnoiLz48cGF0aCBmaWxsPSJub25lIiBzdHJva2U9IiMzYTQxNGEiIGQ9Ik0xODAgNDAwdjIwbC0xMCAxMEg4MCIvPjxwYXRoIGZpbGw9Im5vbmUiIHN0cm9rZT0iIzNhNDE0YSIgZD0iTTgwIDQwNmE2IDYgMCAwIDEgNi02aDE2MjhhNiA2IDAgMCAxIDYgNnYyODA4LjNhNiA2IDAgMCAxLTYgNkg4NmE2IDYgMCAwIDEtNi02ek04MCA2NTVoMjBtMTUgMGgyMG0xNSAwaDIwbTE1IDBoMjBtMTUgMGgyMG0xNSAwaDIwbTE1IDBoMjBtMTUgMGgyMG0xNSAwaDIwbTE1IDBoMjBtMTUgMGgyMG0xNSAwaDIwbTE1IDBoMjBtMTUgMGgyMG0xNSAwaDIwbTE1IDBoMjBtMTUgMGgyMG0xNSAwaDIwbTE1IDBoMjBtMTUgMGgyMG0xNSAwaDIwbTE1IDBoMjBtMTUgMGgyMG0xNSAwaDIwbTE1IDBoMjBtMTUgMGgyMG0xNSAwaDIwbTE1IDBoMjBtMTUgMGgyMG0xNSAwaDIwbTE1IDBoMjBtMTUgMGgyMG0xNSAwaDIwbTE1IDBoMjBtMTUgMGgyMG0xNSAwaDIwbTE1IDBoMjBtMTUgMGgyMG0xNSAwaDIwbTE1IDBoMjBtMTUgMGgyMG0xNSAwaDIwbTE1IDBoMjBtMTUgMGgyMG0xNSAwaDIwbTE1IDBoMjBtMTUgMGgyMCIvPjx1c2UgdHJhbnNmb3JtPSJtYXRyaXgoMSwwLDAsMSw4OCwzOTkuOTk5OTk5OTk5OTk5OTQpIHRyYW5zbGF0ZSgwIDE5LjQ0NDQ0NDQ0NDQ0NDQ0MykiIHhsaW5rOmhyZWY9IiNhIi8+PHVzZSB0cmFuc2Zvcm09Im1hdHJpeCgxLDAsMCwxLDkyLDQzNy45OTk5OTk5OTk5OTk5NCkgdHJhbnNsYXRlKDAgMTguNTU1NTU1NTU1NTU1NTU3KSIgeGxpbms6aHJlZj0iI2IiLz48dXNlIHRyYW5zZm9ybT0ibWF0cml4KDEsMCwwLDEsOTIsNDM3Ljk5OTk5OTk5OTk5OTk0KSB0cmFuc2xhdGUoMTguNzE2MDQ5MzgyNzE2MDQ0IDE4LjU1NTU1NTU1NTU1NTU1NykiIHhsaW5rOmhyZWY9IiNjIi8+PHVzZSB0cmFuc2Zvcm09Im1hdHJpeCgxLDAsMCwxLDkyLDQzNy45OTk5OTk5OTk5OTk5NCkgdHJhbnNsYXRlKDczLjkyNTkyNTkyNTkyNTkxIDE4LjU1NTU1NTU1NTU1NTU1NykiIHhsaW5rOmhyZWY9IiNkIi8+PHVzZSB0cmFuc2Zvcm09Im1hdHJpeCgxLDAsMCwxLDkyLDQzNy45OTk5OTk5OTk5OTk5NCkgdHJhbnNsYXRlKDEyOS4xODUxODUxODUxODUxNiAxOC41NTU1NTU1NTU1NTU1NTcpIiB4bGluazpocmVmPSIjZSIvPjx1c2UgdHJhbnNmb3JtPSJtYXRyaXgoMSwwLDAsMSw5Miw0MzcuOTk5OTk5OTk5OTk5OTQpIHRyYW5zbGF0ZSgxNDUuOTc1MzA4NjQxOTc1MyAxOC41NTU1NTU1NTU1NTU1NTcpIiB4bGluazpocmVmPSIjZiIvPjx1c2UgdHJhbnNmb3JtPSJtYXRyaXgoMSwwLDAsMSw5Miw0MzcuOTk5OTk5OTk5OTk5OTQpIHRyYW5zbGF0ZSgxOTMuMzgyNzE2MDQ5MzgyNjggMTguNTU1NTU1NTU1NTU1NTU3KSIgeGxpbms6aHJlZj0iI2ciLz48dXNlIHRyYW5zZm9ybT0ibWF0cml4KDEsMCwwLDEsOTIsNDM3Ljk5OTk5OTk5OTk5OTk0KSB0cmFuc2xhdGUoMjA4LjY5MTM1ODAyNDY5MTMgMTguNTU1NTU1NTU1NTU1NTU3KSIgeGxpbms6aHJlZj0iI2giLz48dXNlIHRyYW5zZm9ybT0ibWF0cml4KDEsMCwwLDEsOTIsNDM3Ljk5OTk5OTk5OTk5OTk0KSB0cmFuc2xhdGUoMjgwLjc5MDEyMzQ1Njc5MDA3IDE4LjU1NTU1NTU1NTU1NTU1NykiIHhsaW5rOmhyZWY9IiNpIi8+PHVzZSB0cmFuc2Zvcm09Im1hdHJpeCgxLDAsMCwxLDkyLDY2MykgdHJhbnNsYXRlKDAgMTkuNDQ0NDQ0NDQ0NDQ0NDQzKSIgeGxpbms6aHJlZj0iI2oiLz48cGF0aCBmaWxsPSIjZmZmIiBkPSJNMTAwIDc4NmE2IDYgMCAwIDEgNi02aDg4YTYgNiAwIDAgMSA2IDZ2OGExNC40OCAxNC40OCAwIDAgMS00LjI0IDEwLjI0bC0xLjUyIDEuNTJBMTQuNDggMTQuNDggMCAwIDEgMTg0IDgxMGgtNzhhNiA2IDAgMCAxLTYtNnoiLz48cGF0aCBmaWxsPSJub25lIiBzdHJva2U9IiMzYTQxNGEiIGQ9Ik0yMDAgNzgwdjIwbC0xMCAxMGgtOTAiLz48cGF0aCBmaWxsPSJub25lIiBzdHJva2U9IiMzYTQxNGEiIGQ9Ik0xMDAgNzg2YTYgNiAwIDAgMSA2LTZoMTQ2OGE2IDYgMCAwIDEgNiA2djI0MDIuMmE2IDYgMCAwIDEtNiA2SDEwNmE2IDYgMCAwIDEtNi02ek0xMDAgMjkyOC40M2gyMG0xNSAwaDIwbTE1IDBoMjBtMTUgMGgyMG0xNSAwaDIwbTE1IDBoMjBtMTUgMGgyMG0xNSAwaDIwbTE1IDBoMjBtMTUgMGgyMG0xNSAwaDIwbTE1IDBoMjBtMTUgMGgyMG0xNSAwaDIwbTE1IDBoMjBtMTUgMGgyMG0xNSAwaDIwbTE1IDBoMjBtMTUgMGgyMG0xNSAwaDIwbTE1IDBoMjBtMTUgMGgyMG0xNSAwaDIwbTE1IDBoMjBtMTUgMGgyMG0xNSAwaDIwbTE1IDBoMjBtMTUgMGgyMG0xNSAwaDIwbTE1IDBoMjBtMTUgMGgyMG0xNSAwaDIwbTE1IDBoMjBtMTUgMGgyMG0xNSAwaDIwbTE1IDBoMjBtMTUgMGgyMG0xNSAwaDIwbTE1IDBoMjBtMTUgMGgyMG0xNSAwaDIwbTE1IDBoMjBtMTUgMGgxMCIvPjx1c2UgdHJhbnNmb3JtPSJtYXRyaXgoMSwwLDAsMSwxMDgsNzgwKSB0cmFuc2xhdGUoLTExLjM3NjU0MzIwOTg3NjU0NCAxOS40NDQ0NDQ0NDQ0NDQ0NDMpIiB4bGluazpocmVmPSIjYSIvPjx1c2UgdHJhbnNmb3JtPSJtYXRyaXgoMSwwLDAsMSwxMTIsODE4KSB0cmFuc2xhdGUoNC40NzgzOTUwNjE3Mjg0MDYgMTguMTExMTExMTExMTExMTEpIiB4bGluazpocmVmPSIjayIvPjx1c2UgdHJhbnNmb3JtPSJtYXRyaXgoMSwwLDAsMSwxMTIsODE4KSB0cmFuc2xhdGUoMjYuOTA0MzIwOTg3NjU0MzI3IDE4LjExMTExMTExMTExMTExKSIgeGxpbms6aHJlZj0iI2wiLz48dXNlIHRyYW5zZm9ybT0ibWF0cml4KDEsMCwwLDEsMTEyLDgxOCkgdHJhbnNsYXRlKDcyLjY2MzU4MDI0NjkxMzU4IDE4LjExMTExMTExMTExMTExKSIgeGxpbms6aHJlZj0iI20iLz48dXNlIHRyYW5zZm9ybT0ibWF0cml4KDEsMCwwLDEsMTEyLDgxOCkgdHJhbnNsYXRlKDg3LjM1NDkzODI3MTYwNDk0IDE4LjExMTExMTExMTExMTExKSIgeGxpbms6aHJlZj0iI24iLz48dXNlIHRyYW5zZm9ybT0ibWF0cml4KDEsMCwwLDEsMTEyLDgxOCkgdHJhbnNsYXRlKDI1Mi4xMTQxOTc1MzA4NjQxNyAxOC4xMTExMTExMTExMTExMSkiIHhsaW5rOmhyZWY9IiNvIi8+PHVzZSB0cmFuc2Zvcm09Im1hdHJpeCgxLDAsMCwxLDExMiw4MTgpIHRyYW5zbGF0ZSgyNjUuNTA5MjU5MjU5MjU5MjQgMTguMTExMTExMTExMTExMTEpIiB4bGluazpocmVmPSIjcCIvPjx1c2UgdHJhbnNmb3JtPSJtYXRyaXgoMSwwLDAsMSwxMTIsMjkzNi40MjUzMjQ2NzUzMjM3KSB0cmFuc2xhdGUoMTIuMjUzMDg2NDE5NzUzMDg5IDE5LjQ0NDQ0NDQ0NDQ0NDQ0MykiIHhsaW5rOmhyZWY9IiNqIi8+PHBhdGggZmlsbD0iI2ZmZiIgZD0iTTEyMCAxMTU2YTYgNiAwIDAgMSA2LTZoODhhNiA2IDAgMCAxIDYgNnY4YTE0LjQ4IDE0LjQ4IDAgMCAxLTQuMjQgMTAuMjRsLTEuNTIgMS41MkExNC40OCAxNC40OCAwIDAgMSAyMDQgMTE4MGgtNzhhNiA2IDAgMCAxLTYtNnoiLz48cGF0aCBmaWxsPSJub25lIiBzdHJva2U9IiMzYTQxNGEiIGQ9Ik0yMjAgMTE1MHYyMGwtMTAgMTBoLTkwIi8+PHBhdGggZmlsbD0ibm9uZSIgc3Ryb2tlPSIjM2E0MTRhIiBkPSJNMTIwIDExNTZhNiA2IDAgMCAxIDYtNmgxMzg4YTYgNiAwIDAgMSA2IDZ2MTc0MS44NGE2IDYgMCAwIDEtNiA2SDEyNmE2IDYgMCAwIDEtNi02ek0xMjAgMjYyOC43aDIwbTE1IDBoMjBtMTUgMGgyMG0xNSAwaDIwbTE1IDBoMjBtMTUgMGgyMG0xNSAwaDIwbTE1IDBoMjBtMTUgMGgyMG0xNSAwaDIwbTE1IDBoMjBtMTUgMGgyMG0xNSAwaDIwbTE1IDBoMjBtMTUgMGgyMG0xNSAwaDIwbTE1IDBoMjBtMTUgMGgyMG0xNSAwaDIwbTE1IDBoMjBtMTUgMGgyMG0xNSAwaDIwbTE1IDBoMjBtMTUgMGgyMG0xNSAwaDIwbTE1IDBoMjBtMTUgMGgyMG0xNSAwaDIwbTE1IDBoMjBtMTUgMGgyMG0xNSAwaDIwbTE1IDBoMjBtMTUgMGgyMG0xNSAwaDIwbTE1IDBoMjBtMTUgMGgyMG0xNSAwaDIwbTE1IDBoMjBtMTUgMGgyMG0xNSAwaDIwIi8+PHVzZSB0cmFuc2Zvcm09Im1hdHJpeCgxLDAsMCwxLDEyOCwxMTUwKSB0cmFuc2xhdGUoLTExLjM3NjU0MzIwOTg3NjU0NCAxOS40NDQ0NDQ0NDQ0NDQ0NDMpIiB4bGluazpocmVmPSIjYSIvPjx1c2UgdHJhbnNmb3JtPSJtYXRyaXgoMSwwLDAsMSwxMzIsMTE4OCkgdHJhbnNsYXRlKDQuMzMzMzMzMzMzMzMzMzQzIDE4LjU1NTU1NTU1NTU1NTU1NykiIHhsaW5rOmhyZWY9IiNiIi8+PHVzZSB0cmFuc2Zvcm09Im1hdHJpeCgxLDAsMCwxLDEzMiwxMTg4KSB0cmFuc2xhdGUoMjMuMDQ5MzgyNzE2MDQ5Mzg2IDE4LjU1NTU1NTU1NTU1NTU1NykiIHhsaW5rOmhyZWY9IiNxIi8+PHVzZSB0cmFuc2Zvcm09Im1hdHJpeCgxLDAsMCwxLDEzMiwxMTg4KSB0cmFuc2xhdGUoNzguMjA5ODc2NTQzMjA5ODcgMTguNTU1NTU1NTU1NTU1NTU3KSIgeGxpbms6aHJlZj0iI3IiLz48dXNlIHRyYW5zZm9ybT0ibWF0cml4KDEsMCwwLDEsMTMyLDExODgpIHRyYW5zbGF0ZSgxMjUuNTE4NTE4NTE4NTE4NSAxOC41NTU1NTU1NTU1NTU1NTcpIiB4bGluazpocmVmPSIjcyIvPjx1c2UgdHJhbnNmb3JtPSJtYXRyaXgoMSwwLDAsMSwxMzIsMTE4OCkgdHJhbnNsYXRlKDE4OS42NjY2NjY2NjY2NjY2NiAxOC41NTU1NTU1NTU1NTU1NTcpIiB4bGluazpocmVmPSIjdCIvPjx1c2UgdHJhbnNmb3JtPSJtYXRyaXgoMSwwLDAsMSwxMzIsMjYzNi43MDA5Mzg4OTQ4NzQ1KSB0cmFuc2xhdGUoMTIuMjUzMDg2NDE5NzUzMDg5IDE5LjQ0NDQ0NDQ0NDQ0NDQ0MykiIHhsaW5rOmhyZWY9IiNqIi8+PHBhdGggZmlsbD0iI2ZmZiIgZD0iTTE0OS43NiAxMzAyLjczYTYgNiAwIDAgMSA2LTZoODhhNiA2IDAgMCAxIDYgNnY4YTE0LjQ4IDE0LjQ4IDAgMCAxLTQuMjQgMTAuMjRsLTEuNSAxLjUyYTE0LjQ4IDE0LjQ4IDAgMCAxLTEwLjI2IDQuMjNoLTc4YTYgNiAwIDAgMS02LTZ6Ii8+PHBhdGggZmlsbD0ibm9uZSIgc3Ryb2tlPSIjM2E0MTRhIiBkPSJNMjQ5Ljc2IDEyOTYuNzN2MjBsLTEwIDEwaC05MCIvPjxwYXRoIGZpbGw9Im5vbmUiIHN0cm9rZT0iIzNhNDE0YSIgZD0iTTE0OS43NiAxMzAyLjczYTYgNiAwIDAgMSA2LTZoMTMyMS45YTYgNiAwIDAgMSA2IDZWMjU4NS43YTYgNiAwIDAgMS02IDZIMTU1Ljc1YTYgNiAwIDAgMS02LTZ6TTE0OS43NiAyMzQ4LjM3aDIwbTE1IDBoMjBtMTUgMGgyMG0xNSAwaDIwbTE1IDBoMjBtMTUgMGgyMG0xNSAwaDIwbTE1IDBoMjBtMTUgMGgyMG0xNSAwaDIwbTE1IDBoMjBtMTUgMGgyMG0xNSAwaDIwbTE1IDBoMjBtMTUgMGgyMG0xNSAwaDIwbTE1IDBoMjBtMTUgMGgyMG0xNSAwaDIwbTE1IDBoMjBtMTUgMGgyMG0xNSAwaDIwbTE1IDBoMjBtMTUgMGgyMG0xNSAwaDIwbTE1IDBoMjBtMTUgMGgyMG0xNSAwaDIwbTE1IDBoMjBtMTUgMGgyMG0xNSAwaDIwbTE1IDBoMjBtMTUgMGgyMG0xNSAwaDIwbTE1IDBoMjBtMTUgMGgyMG0xNSAwaDIwbTE1IDBoMjBtMTUgMGgzLjkiLz48dXNlIHRyYW5zZm9ybT0ibWF0cml4KDEsMCwwLDEsMTU3Ljc2NDcwNTg4MjQwNzcyLDEyOTYuNzI5NDExNzY0NjUyNSkgdHJhbnNsYXRlKC0xMS4zNzY1NDMyMDk4NzY1NDQgMTkuNDQ0NDQ0NDQ0NDQ0NDQzKSIgeGxpbms6aHJlZj0iI2EiLz48dXNlIHRyYW5zZm9ybT0ibWF0cml4KDEsMCwwLDEsMTYxLjc2NDcwNTg4MjQwNzcyLDEzMzQuNzI5NDExNzY0NjUyNSkgdHJhbnNsYXRlKDQuMzE3OTAxMjM0NTY3OTEzIDE4LjExMTExMTExMTExMTExKSIgeGxpbms6aHJlZj0iI3UiLz48dXNlIHRyYW5zZm9ybT0ibWF0cml4KDEsMCwwLDEsMTYxLjc2NDcwNTg4MjQwNzcyLDEzMzQuNzI5NDExNzY0NjUyNSkgdHJhbnNsYXRlKDIwLjY5NDQ0NDQ0NDQ0NDQ1NCAxOC4xMTExMTExMTExMTExMSkiIHhsaW5rOmhyZWY9IiN2Ii8+PHVzZSB0cmFuc2Zvcm09Im1hdHJpeCgxLDAsMCwxLDE2MS43NjQ3MDU4ODI0MDc3MiwxMzM0LjcyOTQxMTc2NDY1MjUpIHRyYW5zbGF0ZSg4My41MjE2MDQ5MzgyNzE2MSAxOC4xMTExMTExMTExMTExMSkiIHhsaW5rOmhyZWY9IiN3Ii8+PHVzZSB0cmFuc2Zvcm09Im1hdHJpeCgxLDAsMCwxLDE2MS43NjQ3MDU4ODI0MDc3MiwxMzM0LjcyOTQxMTc2NDY1MjUpIHRyYW5zbGF0ZSg5OS4wMzM5NTA2MTcyODM5NSAxOC4xMTExMTExMTExMTExMSkiIHhsaW5rOmhyZWY9IiN4Ii8+PHVzZSB0cmFuc2Zvcm09Im1hdHJpeCgxLDAsMCwxLDE2MS43NjQ3MDU4ODI0MDc3MiwyMzU2LjM3MjcyNzk5ODEwMikgdHJhbnNsYXRlKDEyLjI1MzA4NjQxOTc1MzA4OSAxOS40NDQ0NDQ0NDQ0NDQ0NDMpIiB4bGluazpocmVmPSIjaiIvPjxwYXRoIGZpbGw9IiNmZmYiIGQ9Ik0xNzAuNjcgMTM5Ny44N2E2IDYgMCAwIDEgNi02aDg4YTYgNiAwIDAgMSA2IDZ2OGExNC40OCAxNC40OCAwIDAgMS00LjI1IDEwLjI0bC0xLjUgMS41MmExNC40OCAxNC40OCAwIDAgMS0xMC4yNSA0LjI1aC03OGE2IDYgMCAwIDEtNi02eiIvPjxwYXRoIGZpbGw9Im5vbmUiIHN0cm9rZT0iIzNhNDE0YSIgZD0iTTI3MC42NyAxMzkxLjg3djIwbC0xMCAxMGgtOTAiLz48cGF0aCBmaWxsPSJub25lIiBzdHJva2U9IiMzYTQxNGEiIGQ9Ik0xNzAuNjcgMTM5Ny44N2E2IDYgMCAwIDEgNi02aDExOTAuNjZhNiA2IDAgMCAxIDYgNnYzMDYuNjZhNiA2IDAgMCAxLTYgNkgxNzYuNjdhNiA2IDAgMCAxLTYtNnpNMTcwLjY3IDE1NTEuMmgyMG0xNSAwaDIwbTE1IDBoMjBtMTUgMGgyMG0xNSAwaDIwbTE1IDBoMjBtMTUgMGgyMG0xNSAwaDIwbTE1IDBoMjBtMTUgMGgyMG0xNSAwaDIwbTE1IDBoMjBtMTUgMGgyMG0xNSAwaDIwbTE1IDBoMjBtMTUgMGgyMG0xNSAwaDIwbTE1IDBoMjBtMTUgMGgyMG0xNSAwaDIwbTE1IDBoMjBtMTUgMGgyMG0xNSAwaDIwbTE1IDBoMjBtMTUgMGgyMG0xNSAwaDIwbTE1IDBoMjBtMTUgMGgyMG0xNSAwaDIwbTE1IDBoMjBtMTUgMGgyMG0xNSAwaDIwbTE1IDBoMjBtMTUgMGgyMG0xNSAwaDEyLjY2Ii8+PHVzZSB0cmFuc2Zvcm09Im1hdHJpeCgxLDAsMCwxLDE3OC42NjY2NjY2NjY2NjY4LDEzOTEuODY2NjY2NjY2Njk3NykgdHJhbnNsYXRlKC0xMS4zNzY1NDMyMDk4NzY1NDQgMTkuNDQ0NDQ0NDQ0NDQ0NDQzKSIgeGxpbms6aHJlZj0iI2EiLz48dXNlIHRyYW5zZm9ybT0ibWF0cml4KDEsMCwwLDEsMTgyLjY2NjY2NjY2NjY2NjgsMTQyOS44NjY2NjY2NjY2OTc3KSB0cmFuc2xhdGUoNC40NjYwNDkzODI3MTYxMDggMTguMTExMTExMTExMTExMTEpIiB4bGluazpocmVmPSIjeSIvPjx1c2UgdHJhbnNmb3JtPSJtYXRyaXgoMSwwLDAsMSwxODIuNjY2NjY2NjY2NjY2OCwxNDI5Ljg2NjY2NjY2NjY5NzcpIHRyYW5zbGF0ZSgyMS43NTAwMDAwMDAwMDAwNTMgMTguMTExMTExMTExMTExMTEpIiB4bGluazpocmVmPSIjeiIvPjx1c2UgdHJhbnNmb3JtPSJtYXRyaXgoMSwwLDAsMSwxODIuNjY2NjY2NjY2NjY2OCwxNDI5Ljg2NjY2NjY2NjY5NzcpIHRyYW5zbGF0ZSgyNDIuNzY4NTE4NTE4NTE4NiAxOC4xMTExMTExMTExMTExMSkiIHhsaW5rOmhyZWY9IiNBIi8+PHVzZSB0cmFuc2Zvcm09Im1hdHJpeCgxLDAsMCwxLDE4Mi42NjY2NjY2NjY2NjY4LDE0MjkuODY2NjY2NjY2Njk3NykgdHJhbnNsYXRlKDI4Ni43OTkzODI3MTYwNDk0IDE4LjExMTExMTExMTExMTExKSIgeGxpbms6aHJlZj0iI20iLz48dXNlIHRyYW5zZm9ybT0ibWF0cml4KDEsMCwwLDEsMTgyLjY2NjY2NjY2NjY2NjgsMTQyOS44NjY2NjY2NjY2OTc3KSB0cmFuc2xhdGUoMzAxLjQ5MDc0MDc0MDc0MDc2IDE4LjExMTExMTExMTExMTExKSIgeGxpbms6aHJlZj0iI0IiLz48dXNlIHRyYW5zZm9ybT0ibWF0cml4KDEsMCwwLDEsMTgyLjY2NjY2NjY2NjY2NjgsMTQyOS44NjY2NjY2NjY2OTc3KSB0cmFuc2xhdGUoMzQ5Ljg4NTgwMjQ2OTEzNTggMTguMTExMTExMTExMTExMTEpIiB4bGluazpocmVmPSIjbyIvPjx1c2UgdHJhbnNmb3JtPSJtYXRyaXgoMSwwLDAsMSwxODIuNjY2NjY2NjY2NjY2OCwxNDI5Ljg2NjY2NjY2NjY5NzcpIHRyYW5zbGF0ZSgzNjMuMjgwODY0MTk3NTMwODMgMTguMTExMTExMTExMTExMTEpIiB4bGluazpocmVmPSIjQyIvPjx1c2UgdHJhbnNmb3JtPSJtYXRyaXgoMSwwLDAsMSwxODIuNjY2NjY2NjY2NjY2OCwxNTU5LjIwMDAwMDAwMDAzMTIpIHRyYW5zbGF0ZSgxNC40MDQzMjA5ODc2NTQzMjMgMTkuNDQ0NDQ0NDQ0NDQ0NDQzKSIgeGxpbms6aHJlZj0iI0QiLz48dXNlIHRyYW5zZm9ybT0ibWF0cml4KDEsMCwwLDEsMTgyLjY2NjY2NjY2NjY2NjgsMTU1OS4yMDAwMDAwMDAwMzEyKSB0cmFuc2xhdGUoNTkuNDIyODM5NTA2MTcyODM1IDE5LjQ0NDQ0NDQ0NDQ0NDQ0MykiIHhsaW5rOmhyZWY9IiNFIi8+PHBhdGggZmlsbD0iI2ZmZiIgZD0iTTE5MCAxODI3LjlhNiA2IDAgMCAxIDYtNmg4OGE2IDYgMCAwIDEgNiA2djhhMTQuNDggMTQuNDggMCAwIDEtNC4yNCAxMC4yNWwtMS41MiAxLjVhMTQuNDggMTQuNDggMCAwIDEtMTAuMjQgNC4yNmgtNzhhNiA2IDAgMCAxLTYtNnoiLz48cGF0aCBmaWxsPSJub25lIiBzdHJva2U9IiMzYTQxNGEiIGQ9Ik0yOTAgMTgyMS45djIwbC0xMCAxMGgtOTAiLz48cGF0aCBmaWxsPSJub25lIiBzdHJva2U9IiMzYTQxNGEiIGQ9Ik0xOTAgMTgyNy45YTYgNiAwIDAgMSA2LTZoMTI1MGE2IDYgMCAwIDEgNiA2djQ4OGE2IDYgMCAwIDEtNiA2SDE5NmE2IDYgMCAwIDEtNi02ek0xOTAgMjA3MS45aDIwbTE1IDBoMjBtMTUgMGgyMG0xNSAwaDIwbTE1IDBoMjBtMTUgMGgyMG0xNSAwaDIwbTE1IDBoMjBtMTUgMGgyMG0xNSAwaDIwbTE1IDBoMjBtMTUgMGgyMG0xNSAwaDIwbTE1IDBoMjBtMTUgMGgyMG0xNSAwaDIwbTE1IDBoMjBtMTUgMGgyMG0xNSAwaDIwbTE1IDBoMjBtMTUgMGgyMG0xNSAwaDIwbTE1IDBoMjBtMTUgMGgyMG0xNSAwaDIwbTE1IDBoMjBtMTUgMGgyMG0xNSAwaDIwbTE1IDBoMjBtMTUgMGgyMG0xNSAwaDIwbTE1IDBoMjBtMTUgMGgyMG0xNSAwaDIwbTE1IDBoMjBtMTUgMGgyMG0xNSAwaDIiLz48dXNlIHRyYW5zZm9ybT0ibWF0cml4KDEsMCwwLDEsMTk4LDE4MjEuOTA1ODgyMzUyODAzMikgdHJhbnNsYXRlKC0xMS4zNzY1NDMyMDk4NzY1NDQgMTkuNDQ0NDQ0NDQ0NDQ0NDQzKSIgeGxpbms6aHJlZj0iI2EiLz48dXNlIHRyYW5zZm9ybT0ibWF0cml4KDEsMCwwLDEsMjAyLDE4NTkuOTA1ODgyMzUyODAzMikgdHJhbnNsYXRlKDQuMjIyMjIyMjIyMjIyMjI4NSAxOS40NDQ0NDQ0NDQ0NDQ0NDMpIiB4bGluazpocmVmPSIjRiIvPjx1c2UgdHJhbnNmb3JtPSJtYXRyaXgoMSwwLDAsMSwyMDIsMTg1OS45MDU4ODIzNTI4MDMyKSB0cmFuc2xhdGUoMjcuNjE3MjgzOTUwNjE3MjkgMTkuNDQ0NDQ0NDQ0NDQ0NDQzKSIgeGxpbms6aHJlZj0iI0ciLz48dXNlIHRyYW5zZm9ybT0ibWF0cml4KDEsMCwwLDEsMjAyLDE4NTkuOTA1ODgyMzUyODAzMikgdHJhbnNsYXRlKDE0Mi4zMDg2NDE5NzUzMDg2MyAxOS40NDQ0NDQ0NDQ0NDQ0NDMpIiB4bGluazpocmVmPSIjSCIvPjx1c2UgdHJhbnNmb3JtPSJtYXRyaXgoMSwwLDAsMSwyMDIsMTg1OS45MDU4ODIzNTI4MDMyKSB0cmFuc2xhdGUoMjAyLjgwMjQ2OTEzNTgwMjQ1IDE5LjQ0NDQ0NDQ0NDQ0NDQ0MykiIHhsaW5rOmhyZWY9IiNJIi8+PHVzZSB0cmFuc2Zvcm09Im1hdHJpeCgxLDAsMCwxLDIwMiwxODU5LjkwNTg4MjM1MjgwMzIpIHRyYW5zbGF0ZSgyMjQuOTYyOTYyOTYyOTYyOTMgMTkuNDQ0NDQ0NDQ0NDQ0NDQzKSIgeGxpbms6aHJlZj0iI0oiLz48dXNlIHRyYW5zZm9ybT0ibWF0cml4KDEsMCwwLDEsMjAyLDIwNzkuOTA1ODgyMzUyODAzKSB0cmFuc2xhdGUoMTIuMjUzMDg2NDE5NzUzMDg5IDE5LjQ0NDQ0NDQ0NDQ0NDQ0MykiIHhsaW5rOmhyZWY9IiNqIi8+PHBhdGggZmlsbD0iI2ZmZiIgc3Ryb2tlPSIjM2E0MTRhIiBkPSJNMTYwIDEwNmE2IDYgMCAwIDEgNi02aDE0OGE2IDYgMCAwIDEgNiA2djEwOGE2IDYgMCAwIDEtNiA2SDE2NmE2IDYgMCAwIDEtNi02eiIvPjx1c2UgdHJhbnNmb3JtPSJtYXRyaXgoMSwwLDAsMSwxNzIsMTEyKSB0cmFuc2xhdGUoMzcuMzUxODUxODUxODUxODUgNTMuNzc3Nzc3Nzc3Nzc3NzgpIiB4bGluazpocmVmPSIjSyIvPjxwYXRoIGZpbGw9IiNmZmYiIHN0cm9rZT0iIzNhNDE0YSIgZD0iTTY4MCAxMDZhNiA2IDAgMCAxIDYtNmgxNDhhNiA2IDAgMCAxIDYgNnYxMDhhNiA2IDAgMCAxLTYgNkg2ODZhNiA2IDAgMCAxLTYtNnoiLz48dXNlIHRyYW5zZm9ybT0ibWF0cml4KDEsMCwwLDEsNjkyLDExMikgdHJhbnNsYXRlKDYuNDI1OTI1OTI1OTI1OTI0IDI2Ljc3Nzc3Nzc3Nzc3Nzc4KSIgeGxpbms6aHJlZj0iI0wiLz48dXNlIHRyYW5zZm9ybT0ibWF0cml4KDEsMCwwLDEsNjkyLDExMikgdHJhbnNsYXRlKDQyLjEwNDkzODI3MTYwNDk0IDI2Ljc3Nzc3Nzc3Nzc3Nzc4KSIgeGxpbms6aHJlZj0iI00iLz48dXNlIHRyYW5zZm9ybT0ibWF0cml4KDEsMCwwLDEsNjkyLDExMikgdHJhbnNsYXRlKDguMjE2MDQ5MzgyNzE2MDQ0IDUzLjQ0NDQ0NDQ0NDQ0NDQ1KSIgeGxpbms6aHJlZj0iI04iLz48dXNlIHRyYW5zZm9ybT0ibWF0cml4KDEsMCwwLDEsNjkyLDExMikgdHJhbnNsYXRlKDMxLjAyNDY5MTM1ODAyNDY5IDgwLjExMTExMTExMTExMTExKSIgeGxpbms6aHJlZj0iI08iLz48cGF0aCBmaWxsPSIjZmZmIiBzdHJva2U9IiMzYTQxNGEiIGQ9Ik0xMjIwIDEwNmE2IDYgMCAwIDEgNi02aDE0OGE2IDYgMCAwIDEgNiA2djEwOGE2IDYgMCAwIDEtNiA2aC0xNDhhNiA2IDAgMCAxLTYtNnoiLz48dXNlIHRyYW5zZm9ybT0ibWF0cml4KDEsMCwwLDEsMTIzMiwxMTIpIHRyYW5zbGF0ZSg4LjIxNjA0OTM4MjcxNjA0NCAzOC43Nzc3Nzc3Nzc3Nzc3OCkiIHhsaW5rOmhyZWY9IiNQIi8+PHVzZSB0cmFuc2Zvcm09Im1hdHJpeCgxLDAsMCwxLDEyMzIsMTEyKSB0cmFuc2xhdGUoNTIuNTk4NzY1NDMyMDk4NzY2IDY1LjQ0NDQ0NDQ0NDQ0NDQ2KSIgeGxpbms6aHJlZj0iI1EiLz48cGF0aCBmaWxsPSJub25lIiBzdHJva2Utd2lkdGg9IjMiIHN0cm9rZT0iIzNhNDE0YSIgZD0iTTI0MCAyMjJ2NC41bTAgNS45N3Y4Ljk3bTAgNS45OHY4Ljk3bTAgNS45N3Y4Ljk3bTAgNS45OHY4Ljk3bTAgNS45N3Y4Ljk3bTAgNS45OHY4Ljk3bTAgNS45N3Y4Ljk3bTAgNnY4Ljk2bTAgNS45OHY4Ljk3bTAgNS45OFYzNzZtMCA1Ljk4djguOTdtMCA1Ljk4djguOTdtMCA1Ljk4djguOTdtMCA1Ljk4djguOThtMCA2djguOTZtMCA1Ljk4djguOTdtMCA2djguOTZtMCA1Ljk4djguOTdtMCA2djguOTZtMCA1Ljk4djguOTdtMCA2djguOTdtMCA1Ljk4djguOTdtMCA1Ljk4djguOTdtMCA1Ljk4djguOTdtMCA1Ljk4djguOTdtMCA1Ljk4djguOTdtMCA1Ljk4djguOTdtMCA1Ljk4djguOTdtMCA2djguOTZtMCA1Ljk4djguOTdtMCA1Ljk4VjY5MG0wIDUuOTh2OC45N20wIDUuOTh2OC45OG0wIDUuOTh2OC45N20wIDUuOTh2OC45OG0wIDZ2OC45Nm0wIDUuOTh2OC45N20wIDUuOTd2OC45N20wIDUuOTh2OC45N20wIDUuOTd2OC45N20wIDUuOTh2OC45N20wIDUuOTd2OC45N20wIDUuOTh2OC45OG0wIDUuOTh2OC45N20wIDUuOTh2OC45N20wIDUuOTh2OC45N20wIDUuOTh2OC45N20wIDUuOTh2OC45N20wIDUuOTh2OC45N20wIDUuOTh2OC45N20wIDZWOTg5bTAgNnY4Ljk2bTAgNS45OHY4Ljk3bTAgNnY4Ljk2bTAgNS45OHY4Ljk3bTAgNnY4Ljk2bTAgNS45OHY4Ljk3bTAgNnY4Ljk3bTAgNS45OHY4Ljk3bTAgNS45OHY4Ljk3bTAgNS45OHY4Ljk3bTAgNS45OHY4Ljk3bTAgNS45OHY4Ljk3bTAgNS45OHY4Ljk3bTAgNnY4Ljk2bTAgNS45OHY4Ljk4bTAgNS45OHY4Ljk3bTAgNS45OHY4Ljk4bTAgNS45OHY4Ljk3bTAgNS45OHY4Ljk4bTAgNS45OHY4Ljk3bTAgNnY0LjQ3Ii8+PHBhdGggZmlsbD0iIzNhNDE0YSIgc3Ryb2tlLXdpZHRoPSIuMDUiIHN0cm9rZT0iIzNhNDE0YSIgZD0iTTI0MS41IDIyMi4wNGgtM3YtMS41NGgzeiIvPjxwYXRoIGZpbGw9Im5vbmUiIHN0cm9rZS13aWR0aD0iMyIgc3Ryb2tlPSIjM2E0MTRhIiBkPSJNMjQwIDEyOTguNDZ2MS41NE03NjAgMjIydjQuNTNtMCA2LjAzdjkuMDZtMCA2LjA0djkuMDVtMCA2LjA1djkuMDZtMCA2LjA0djkuMDZtMCA2LjA0VjMwMm0wIDYuMDN2OS4wNm0wIDYuMDJ2OS4wNm0wIDYuMDN2OS4wN20wIDYuMDR2OS4wNm0wIDYuMDR2OS4wNm0wIDYuMDN2OS4wNW0wIDYuMDR2OS4wNG0wIDYuMDR2OS4wNm0wIDYuMDN2OS4wNm0wIDYuMDR2OS4wNW0wIDYuMDRWNDY4bTAgNi4wNXY5LjA2bTAgNi4wNHY5LjA2bTAgNi4wNHY5LjA1bTAgNi4wM3Y5LjA1bTAgNi4wNHY5LjA2bTAgNi4wM3Y5LjA3bTAgNi4wNHY5LjA2bTAgNi4wNHY5LjA2bTAgNi4wM3Y5LjA1bTAgNi4wNHY5LjA0bTAgNi4wNHY5LjA1bTAgNi4wNHY5LjA2bTAgNi4wM3Y5LjA2bTAgNi4wNHY5LjA1bTAgNi4wNXY5LjA2bTAgNi4wNHY5LjA2bTAgNi4wNHY5LjA1bTAgNi4wM3Y5LjA1bTAgNi4wNHY5LjA2bTAgNi4wNHY5LjA1bTAgNi4wNHY5LjA2bTAgNi4wNHY5LjA2bTAgNi4wM3Y5LjA1bTAgNi4wNHY5LjA0bTAgNi4wNHY5LjA2bTAgNi4wM3Y5LjA2bTAgNi4wNHY5LjA1bTAgNi4wNHY5LjA1bTAgNi4wNXY5LjA2bTAgNi4wNHY5LjA2bTAgNi4wNHY5LjA1bTAgNi4wM1Y5NTFtMCA2LjAydjkuMDZtMCA2LjAzdjkuMDdtMCA2LjA0djkuMDZtMCA2LjA0djkuMDZtMCA2LjAzdjkuMDVtMCA2LjA0djkuMDRtMCA2LjA0djkuMDZtMCA2LjAzdjkuMDZtMCA2LjA0djkuMDVtMCA2LjA0djkuMDVtMCA2LjA1djkuMDZtMCA2LjA0djkuMDZtMCA2LjA0djkuMDVtMCA2LjAzdjkuMDZtMCA2LjAydjkuMDZtMCA2LjAzdjkuMDdtMCA2LjA0djkuMDZtMCA2LjA0djkuMDZtMCA2LjAzdjkuMDVtMCA2LjA0djkuMDRtMCA2LjA0djkuMDVtMCA2LjA0djQuNTMiLz48cGF0aCBmaWxsPSIjM2E0MTRhIiBzdHJva2Utd2lkdGg9Ii4wNSIgc3Ryb2tlPSIjM2E0MTRhIiBkPSJNNzYxLjUgMjIyLjA0aC0zdi0xLjU0aDN6Ii8+PHBhdGggZmlsbD0ibm9uZSIgc3Ryb2tlLXdpZHRoPSIzIiBzdHJva2U9IiMzYTQxNGEiIGQ9Ik03NjAgMTI3OC40NnYxLjU0TTEyODAgMjIydjQuNW0wIDZ2OS4wM20wIDZ2OS4wMm0wIDZ2OS4wMm0wIDZ2OS4wMm0wIDZ2OW0wIDYuMDJ2OS4wMm0wIDZ2OS4wMm0wIDZ2OS4wMm0wIDZ2OS4wMm0wIDZ2OS4wMm0wIDZ2OS4wM20wIDZ2OS4wMm0wIDZ2OS4wMm0wIDZ2OW0wIDYuMDJ2OW0wIDYuMDJ2OW0wIDYuMDJ2OS4wMm0wIDZ2OS4wMm0wIDZ2OS4wMm0wIDZ2OS4wMm0wIDZ2OS4wMm0wIDZWNTU3bTAgNnY5LjAzbTAgNnY5LjAzbTAgNnY5LjAybTAgNnY5LjAybTAgNnY5LjAybTAgNnY5bTAgNi4wMnY5LjAybTAgNnY5LjAybTAgNnY5LjAybTAgNnY5LjAybTAgNnY5LjAybTAgNnY5LjAzbTAgNnY5LjAybTAgNnY5LjAybTAgNnY5bTAgNi4wMnY5bTAgNi4wMnY5bTAgNi4wMnY5LjAybTAgNnY5LjAybTAgNnY5LjAybTAgNnY5LjAybTAgNnY5LjAybTAgNnY5LjAybTAgNnY5LjAzbTAgNnY5LjAzbTAgNnY5LjAybTAgNnY5LjAybTAgNnY5LjAybTAgNnY5bTAgNi4wMnY5LjAybTAgNnY5LjAybTAgNnY5LjAybTAgNnY5LjAybTAgNnY5LjAybTAgNnY5LjAzbTAgNnY5LjAybTAgNnY5LjAybTAgNnY5bTAgNi4wMnY5bTAgNi4wMnY5bTAgNi4wMnY5LjAybTAgNnY5LjAybTAgNnY5LjAybTAgNnY5LjAybTAgNnY5LjAybTAgNnY5LjAybTAgNnY0LjUyTTEyODAgMjIyLjA0di0xLjU0TTEyODAgMTI1OC40NnYxLjU0Ii8+PHBhdGggZmlsbD0ibm9uZSIgc3Ryb2tlPSIjM2E0MTRhIiBkPSJNMjQwLjUgMzAxLjdoMjU4Ljc4YS43Mi43MiAwIDAgMCAuNzItLjcuNzIuNzIgMCAwIDEgLjcyLS43M2gyNDIuOU0yNDAuNSAzMDEuN2gtLjUiLz48cGF0aCBmaWxsPSIjM2E0MTRhIiBzdHJva2U9IiMzYTQxNGEiIGQ9Ik03NTguMzggMzAwLjI3bC0xNC4yNiA0LjY0di05LjI2eiIvPjxwYXRoIGZpbGw9Im5vbmUiIHN0cm9rZT0iIzNhNDE0YSIgZD0iTTI1Ni4zOCA1NzguODJoNC45NG00LjkzIDBoOS44Nm00Ljk1IDBoOS44Nm00Ljk0IDBoOS44N200Ljk0IDBoOS44N200Ljk0IDBoOS44Nm00Ljk0IDBoOS44Nm00LjkzIDBoOS44N200LjkzIDBoOS44N200LjkzIDBoOS44Nm00LjkzIDBoOS44Nm00LjkyIDBoOS44N200LjkyIDBoOS44N200LjkyIDBoOS44Nm00Ljk0IDBoOS44Nm00LjkzIDBoOS44OG00LjkzIDBoOS44OG00LjkzIDBoOS44N200Ljk0IDBoOS44N200LjkzIDBoOS44N200LjkzIDBoOS44N200LjkzIDBoOS44N200LjkzIDBoOS44Nm00LjkzIDBoOS44Nm00LjkzIDBoOS44Nm00LjkzIDBoOS44Nm00LjkzIDBoOS44NW00Ljk0IDBoOS44NW00LjkzIDBoOS44N200LjkzIDBoOS44N200LjkzIDBoOS44Nm00LjkzIDBoOS44N200LjkzIDBoOS44N200LjkzIDBoOS44N200LjkzIDBoNC45MyIvPjxwYXRoIGZpbGw9IiMzYTQxNGEiIHN0cm9rZT0iIzNhNDE0YSIgZD0iTTI0MS42MiA1NzguODJsMTQuMjYtNC42M3Y5LjI2eiIvPjxwYXRoIGZpbGw9Im5vbmUiIHN0cm9rZT0iIzNhNDE0YSIgZD0iTTc1OS41IDU3OC44MmguNU03NjAuNSAzNjBoNTAzLjEyTTc2MC41IDM2MGgtLjUiLz48cGF0aCBmaWxsPSIjM2E0MTRhIiBzdHJva2U9IiMzYTQxNGEiIGQ9Ik0xMjc4LjM4IDM2MGwtMTQuMjYgNC42M3YtOS4yNnoiLz48cGF0aCBmaWxsPSJub25lIiBzdHJva2U9IiMzYTQxNGEiIGQ9Ik03NzYuMzggNDk4LjM1aDQuOTRtNC45MyAwaDkuODZtNC45NSAwaDkuODZtNC45NCAwaDkuODdtNC45NCAwaDkuODdtNC45NCAwaDkuODZtNC45NCAwaDkuODZtNC45MyAwaDkuODdtNC45MyAwaDkuODdtNC45MyAwaDkuODZtNC45MyAwaDkuODZtNC45MiAwaDkuODdtNC45MiAwaDkuODdtNC45MiAwaDkuODZtNC45NCAwaDkuODZtNC45MyAwaDkuODhtNC45MyAwaDkuODhtNC45MyAwaDkuODdtNC45NCAwaDkuODdtNC45MyAwaDkuODdtNC45MyAwaDkuODdtNC45MyAwaDkuODdtNC45MyAwaDkuODZtNC45NCAwaDkuODZtNC45MyAwaDkuODZtNC45MyAwaDkuODZtNC45MyAwaDkuODVtNC45MyAwaDkuODdtNC45MyAwaDkuODdtNC45MyAwaDkuODdtNC45MyAwaDkuODZtNC45MyAwaDkuODdtNC45MyAwaDkuODdtNC45MyAwaDkuODdtNC45MyAwaDQuOTMiLz48cGF0aCBmaWxsPSIjM2E0MTRhIiBzdHJva2U9IiMzYTQxNGEiIGQ9Ik03NjEuNjIgNDk4LjM1bDE0LjI2LTQuNjNWNTAzeiIvPjxwYXRoIGZpbGw9Im5vbmUiIHN0cm9rZT0iIzNhNDE0YSIgZD0iTTEyNzkuNSA0OTguMzVoLjVNNzc2LjM4IDc0MGg0Ljk0bTQuOTMgMGg5Ljg2bTQuOTUgMGg5Ljg2bTQuOTQgMGg5Ljg3bTQuOTQgMGg5Ljg3bTQuOTQgMGg5Ljg2bTQuOTQgMGg5Ljg2bTQuOTMgMGg5Ljg3bTQuOTMgMGg5Ljg3bTQuOTMgMGg5Ljg2bTQuOTMgMGg5Ljg2bTQuOTIgMGg5Ljg3bTQuOTIgMGg5Ljg3bTQuOTIgMGg5Ljg2bTQuOTQgMGg5Ljg2bTQuOTMgMGg5Ljg4bTQuOTMgMGg5Ljg4bTQuOTMgMGg5Ljg3bTQuOTQgMGg5Ljg3bTQuOTMgMGg5Ljg3bTQuOTMgMGg5Ljg3bTQuOTMgMGg5Ljg3bTQuOTMgMGg5Ljg2bTQuOTQgMGg5Ljg2bTQuOTMgMGg5Ljg2bTQuOTMgMGg5Ljg2bTQuOTMgMGg5Ljg1bTQuOTMgMGg5Ljg3bTQuOTMgMGg5Ljg3bTQuOTMgMGg5Ljg3bTQuOTMgMGg5Ljg2bTQuOTMgMGg5Ljg3bTQuOTMgMGg5Ljg3bTQuOTMgMGg5Ljg3bTQuOTMgMGg0LjkzIi8+PHBhdGggZmlsbD0iIzNhNDE0YSIgc3Ryb2tlPSIjM2E0MTRhIiBkPSJNNzYxLjYyIDc0MGwxNC4yNi00LjYzdjkuMjZ6Ii8+PHBhdGggZmlsbD0ibm9uZSIgc3Ryb2tlPSIjM2E0MTRhIiBkPSJNMTI3OS41IDc0MGguNU03NjAuNSA4NzEuMzRoNTAzLjEyTTc2MC41IDg3MS4zNGgtLjUiLz48cGF0aCBmaWxsPSIjM2E0MTRhIiBzdHJva2U9IiMzYTQxNGEiIGQ9Ik0xMjc4LjM4IDg3MS4zNGwtMTQuMjcgNC42NC4wMi05LjI3eiIvPjxwYXRoIGZpbGw9Im5vbmUiIHN0cm9rZS13aWR0aD0iMyIgc3Ryb2tlPSIjM2E0MTRhIiBkPSJNMjQwIDEzMDEuNXY1Ljk4bTAgMTEuOTZ2MTEuOTZtMCAxMS45NnYxMS45N20wIDExLjk2djExLjk1bTAgMTEuOTZ2MTEuOTdtMCAxMS45NnYxMS45Nm0wIDExLjk1djExLjk3bTAgMTEuOTZ2MTEuOTZtMCAxMS45NnYxMS45Nm0wIDExLjk2djExLjk2bTAgMTEuOTZ2MTEuOTdtMCAxMS45N3YxMS45Nm0wIDExLjk2djExLjk1bTAgMTEuOTZ2MTEuOTdtMCAxMS45NnYxMS45N20wIDExLjk2djExLjk2bTAgMTEuOTZ2MTEuOTZtMCAxMS45NnYxMS45Nm0wIDExLjk2djExLjk3bTAgMTEuOTVWMTc2Mm0wIDExLjk3djExLjk2bTAgMTEuOTZ2MTEuOTVtMCAxMS45NnYxMS45OG0wIDExLjk2djExLjk2bTAgMTEuOTZ2MTEuOTZtMCAxMS45NnYxMS45Nm0wIDExLjk2djExLjk3bTAgMTEuOTZ2MTEuOTZtMCAxMS45NXYxMS45Nm0wIDExLjk3djExLjk2bTAgMTEuOTZ2MTEuOTZtMCAxMS45NnYxMS45Nm0wIDExLjk2VjIwNzNtMCAxMS45NnYxMS45Nm0wIDExLjk2djExLjk3bTAgMTEuOTZ2MTEuOTdtMCAxMS45NnYxMS45Nm0wIDExLjk1djExLjk2bTAgMTEuOTd2MTEuOTdtMCAxMS45NnYxMS45Nm0wIDExLjk2djExLjk2bTAgMTEuOTZ2MTEuOTZtMCAxMS45NnYxMS45N20wIDExLjk2djExLjk1bTAgMTEuOTZ2MTEuOTdtMCAxMS45NlYyMzg0bTAgMTEuOTV2MTEuOTdtMCAxMS45NnYxMS45Nm0wIDExLjk2djExLjk2bTAgMTEuOTZ2MTEuOTZtMCAxMS45NnYxMS45N20wIDExLjk3djExLjk2bTAgMTEuOTZ2MTEuOTVtMCAxMS45NnYxMS45N20wIDExLjk2djExLjk3bTAgMTEuOTZ2MTEuOTZtMCAxMS45NnYxMS45Nm0wIDExLjk2djExLjk2bTAgMTEuOTZWMjY5NW0wIDExLjk1djExLjk2bTAgMTEuOTd2MTEuOTZtMCAxMS45NnYxMS45NW0wIDExLjk2djExLjk4bTAgMTEuOTZ2MTEuOTZtMCAxMS45NnYxMS45Nm0wIDExLjk2djExLjk2bTAgMTEuOTZ2MTEuOTdtMCAxMS45NnYxMS45Nm0wIDExLjk1djExLjk2bTAgMTEuOTd2MTEuOTZtMCAxMS45NnYxMS45Nm0wIDExLjk2djExLjk2bTAgMTEuOTZ2MTEuOTZtMCAxMS45NnYxMS45Nm0wIDExLjk2djExLjk3bTAgMTEuOTZ2MTEuOTdtMCAxMS45NnYxMS45Nm0wIDExLjk1djExLjk2bTAgMTEuOTd2MTEuOTdtMCAxMS45NnYxMS45Nm0wIDExLjk2djUuOThNMjQwIDEzMDEuNTRWMTMwME0yNDAgMzIxNS4yNnYxLjU0TTc2MCAxMjgxLjV2NS45N20wIDExLjk0djExLjk0bTAgMTEuOTR2MTEuOTRtMCAxMS45M3YxMS45NG0wIDExLjkzdjExLjkzbTAgMTEuOTR2MTEuOTRtMCAxMS45NHYxMS45M20wIDExLjk1djExLjk0bTAgMTEuOTJ2MTEuOTRtMCAxMS45NHYxMS45M20wIDExLjk0djExLjk0bTAgMTEuOTV2MTEuOTNtMCAxMS45NHYxMS45NG0wIDExLjkzdjExLjkzbTAgMTEuOTR2MTEuOTRtMCAxMS45NHYxMS45NG0wIDExLjk0djExLjkzbTAgMTEuOTR2MTEuOTNtMCAxMS45NHYxMS45M20wIDExLjk0djExLjk0bTAgMTEuOTN2MTEuOTVtMCAxMS45NHYxMS45Mm0wIDExLjk0djExLjk0bTAgMTEuOTN2MTEuOTRtMCAxMS45NHYxMS45NW0wIDExLjkzdjExLjk0bTAgMTEuOTR2MTEuOTNtMCAxMS45M3YxMS45NG0wIDExLjk0djExLjk0bTAgMTEuOTR2MTEuOTRtMCAxMS45M3YxMS45NG0wIDExLjkzdjExLjkzbTAgMTEuOTR2MTEuOTRtMCAxMS45NHYxMS45M20wIDExLjk1djExLjk0bTAgMTEuOTJ2MTEuOTRtMCAxMS45NHYxMS45M20wIDExLjk0djExLjk0bTAgMTEuOTV2MTEuOTNtMCAxMS45NHYxMS45NG0wIDExLjkzdjExLjkzbTAgMTEuOTR2MTEuOTRtMCAxMS45NHYxMS45NG0wIDExLjk0djExLjkzbTAgMTEuOTR2MTEuOTNtMCAxMS45M3YxMS45NG0wIDExLjk0djExLjk0bTAgMTEuOTN2MTEuOTVtMCAxMS45NHYxMS45Mm0wIDExLjk0djExLjk0bTAgMTEuOTN2MTEuOTRtMCAxMS45NHYxMS45NW0wIDExLjkzdjExLjk0bTAgMTEuOTR2MTEuOTNtMCAxMS45M3YxMS45NG0wIDExLjk0djExLjk0bTAgMTEuOTR2MTEuOTRtMCAxMS45M3YxMS45NG0wIDExLjkzdjExLjkzbTAgMTEuOTR2MTEuOTRtMCAxMS45NHYxMS45M20wIDExLjk1djExLjk0bTAgMTEuOTJ2MTEuOTRtMCAxMS45NHYxMS45M20wIDExLjk0djExLjk0bTAgMTEuOTV2MTEuOTNtMCAxMS45NHYxMS45NG0wIDExLjkzdjExLjkzbTAgMTEuOTR2MTEuOTRtMCAxMS45NHYxMS45NG0wIDExLjk0djExLjkzbTAgMTEuOTR2MTEuOTNtMCAxMS45M3YxMS45NG0wIDExLjk0djExLjk0bTAgMTEuOTN2MTEuOTVtMCAxMS45NFYzMDc4bTAgMTEuOTR2MTEuOTRtMCAxMS45M3YxMS45NG0wIDExLjk0djExLjk1bTAgMTEuOTN2MTEuOTRtMCAxMS45NHYxMS45M20wIDExLjkzdjUuOTdNNzYwIDEyODEuNTRWMTI4ME03NjAgMzIxNS4yNnYxLjU0TTEyODAgMTI2MS41djZtMCAxMi4wNHYxMi4wMm0wIDEyLjAydjEyLjAzbTAgMTIuMDN2MTIuMDJtMCAxMi4wM3YxMi4wMm0wIDEyLjAydjEyLjAzbTAgMTIuMDJ2MTIuMDJtMCAxMi4wMnYxMi4wMm0wIDEyLjAydjEyLjAzbTAgMTJ2MTIuMDNtMCAxMi4wM3YxMi4wMm0wIDEyLjAydjEyLjAzbTAgMTIuMDJ2MTIuMDNtMCAxMi4wMnYxMi4wMm0wIDEyLjAzdjEyLjAybTAgMTIuMDJ2MTJtMCAxMi4wNHYxMi4wMm0wIDEyLjAzdjEybTAgMTIuMDN2MTIuMDNtMCAxMi4wMnYxMi4wMm0wIDEyLjAzdjEyLjAybTAgMTIuMDJ2MTIuMDNtMCAxMi4wMnYxMi4wMm0wIDEyLjAzdjEyLjAybTAgMTJ2MTIuMDRtMCAxMi4wMnYxMi4wMm0wIDEyLjAzdjEyLjAzbTAgMTIuMDN2MTIuMDJtMCAxMi4wMnYxMi4wM20wIDEyLjAydjEyLjAybTAgMTIuMDN2MTIuMDJtMCAxMi4wMnYxMi4wM20wIDEyLjAydjEybTAgMTIuMDR2MTIuMDJtMCAxMi4wMnYxMi4wM20wIDEyLjAzdjEyLjAybTAgMTIuMDN2MTIuMDJtMCAxMi4wMnYxMi4wM20wIDEyLjAydjEyLjAybTAgMTIuMDJ2MTIuMDJtMCAxMi4wMnYxMi4wM20wIDEydjEyLjAzbTAgMTIuMDN2MTIuMDJtMCAxMi4wM3YxMi4wM20wIDEyLjAydjEyLjAzbTAgMTIuMDJ2MTIuMDJtMCAxMi4wM3YxMi4wMm0wIDEyLjAydjEyLjAybTAgMTIuMDJ2MTIuMDJtMCAxMi4wM3YxMm0wIDEyLjAzdjEyLjAzbTAgMTIuMDJ2MTIuMDJtMCAxMi4wM3YxMi4wMm0wIDEyLjAzVjI1NDJtMCAxMi4wMnYxMi4wM20wIDEyLjAydjEyLjAybTAgMTJ2MTIuMDRtMCAxMi4wMnYxMi4wM20wIDEydjEyLjAzbTAgMTIuMDN2MTIuMDJtMCAxMi4wMnYxMi4wM20wIDEyLjAydjEyLjAybTAgMTIuMDN2MTIuMDJtMCAxMi4wMnYxMi4wM20wIDEyLjAydjEybTAgMTIuMDR2MTIuMDJtMCAxMi4wM3YxMm0wIDEyLjAzdjEyLjAzbTAgMTIuMDJ2MTIuMDJtMCAxMi4wM3YxMi4wMm0wIDEyLjAydjEyLjAzbTAgMTIuMDJ2MTIuMDJtMCAxMi4wM3YxMi4wMm0wIDEydjEyLjA0bTAgMTIuMDJ2MTIuMDJtMCAxMi4wM3YxMi4wM20wIDEyLjAydjEyLjAzbTAgMTIuMDJ2MTIuMDJtMCAxMi4wM3YxMi4wMm0wIDEyLjAydjEyLjAybTAgMTIuMDJ2MTIuMDNtMCAxMi4wMnY2TTEyODAgMTI2MS41NFYxMjYwTTEyODAgMzIwOS4yNnYxLjU0Ii8+PHBhdGggZmlsbD0ibm9uZSIgc3Ryb2tlPSIjM2E0MTRhIiBkPSJNNzg4LjM4IDMwNDguNGg1bTUgMGg5Ljk3bTUgMGg5Ljk3bTUgMGg5Ljk3bTQuOTggMGg5Ljk4bTUgMGg5Ljk4bTUgMGg5Ljk3bTUgMGg5Ljk4bTUgMGg5Ljk3bTUgMGg5Ljk4bTUgMGg5Ljk3bTUgMGg5Ljk3bTUgMGg5Ljk3bTUgMEg5ODhtNSAwaDkuOTdtNC45OCAwaDkuOThtNSAwaDkuOTdtNSAwaDkuOTdtNSAwaDkuOThtNSAwaDkuOTdtNSAwaDkuOTdtNSAwaDkuOThtNSAwaDkuOTdtNSAwaDkuOTdtNSAwaDkuOTdtNSAwaDkuOThtNSAwaDkuOThtNSAwaDkuOTdtNSAwaDkuOTdtNSAwaDkuOTdtNSAwaDkuOThtNSAwaDkuOTdtNSAwaDQuOTgiLz48cGF0aCBmaWxsPSIjM2E0MTRhIiBzdHJva2U9IiMzYTQxNGEiIGQ9Ik03NzMuNjIgMzA0OC40bDE0LjI2LTQuNjR2OS4yN3oiLz48cGF0aCBmaWxsPSJub25lIiBzdHJva2U9IiMzYTQxNGEiIGQ9Ik0xMjY3LjUgMzA0OC40aC41Ii8+PHBhdGggZmlsbC1vcGFjaXR5PSIwIiBmaWxsPSIjZmZmIiBzdHJva2Utb3BhY2l0eT0iMCIgc3Ryb2tlPSIjMDAwIiBkPSJNNzc1IDI5NDguNmE2IDYgMCAwIDEgNi02aDQ0OGE2IDYgMCAwIDEgNiA2djEwNC42NmE2IDYgMCAwIDEtNiA2SDc4MWE2IDYgMCAwIDEtNi02eiIvPjx1c2UgdHJhbnNmb3JtPSJtYXRyaXgoMSwwLDAsMSw3ODAsMjk0Ny41ODgyMzUyOTQxMTc2KSB0cmFuc2xhdGUoMTEuMTMyNzE2MDQ5MzgyNzA4IDQ1Ljg4MTk0NDQ0NDQ0NDQ0KSIgeGxpbms6aHJlZj0iI1IiLz48dXNlIHRyYW5zZm9ybT0ibWF0cml4KDEsMCwwLDEsNzgwLDI5NDcuNTg4MjM1Mjk0MTE3NikgdHJhbnNsYXRlKDYwLjM0ODc2NTQzMjA5ODc0NSA0NS44ODE5NDQ0NDQ0NDQ0NCkiIHhsaW5rOmhyZWY9IiNTIi8+PHVzZSB0cmFuc2Zvcm09Im1hdHJpeCgxLDAsMCwxLDc4MCwyOTQ3LjU4ODIzNTI5NDExNzYpIHRyYW5zbGF0ZSgxMTQuMjc0NjkxMzU4MDI0NjUgNDUuODgxOTQ0NDQ0NDQ0NDQpIiB4bGluazpocmVmPSIjQSIvPjx1c2UgdHJhbnNmb3JtPSJtYXRyaXgoMSwwLDAsMSw3ODAsMjk0Ny41ODgyMzUyOTQxMTc2KSB0cmFuc2xhdGUoMTU4LjMwNTU1NTU1NTU1NTUxIDQ1Ljg4MTk0NDQ0NDQ0NDQ0KSIgeGxpbms6aHJlZj0iI1QiLz48dXNlIHRyYW5zZm9ybT0ibWF0cml4KDEsMCwwLDEsNzgwLDI5NDcuNTg4MjM1Mjk0MTE3NikgdHJhbnNsYXRlKDE3Ni40MTA0OTM4MjcxNjA0NSA0NS44ODE5NDQ0NDQ0NDQ0NCkiIHhsaW5rOmhyZWY9IiNVIi8+PHVzZSB0cmFuc2Zvcm09Im1hdHJpeCgxLDAsMCwxLDc4MCwyOTQ3LjU4ODIzNTI5NDExNzYpIHRyYW5zbGF0ZSg0MjkuNzkzMjA5ODc2NTQzMiA0NS44ODE5NDQ0NDQ0NDQ0NCkiIHhsaW5rOmhyZWY9IiNWIi8+PHVzZSB0cmFuc2Zvcm09Im1hdHJpeCgxLDAsMCwxLDc4MCwyOTQ3LjU4ODIzNTI5NDExNzYpIHRyYW5zbGF0ZSgxNTAuMzU0OTM4MjcxNjA0OTYgNjQuNTQ4NjExMTExMTExMTEpIiB4bGluazpocmVmPSIjVyIvPjxwYXRoIGZpbGw9Im5vbmUiIHN0cm9rZT0iIzNhNDE0YSIgZD0iTTI2MC4zOCAzMTE4LjRoNC45NG00Ljk0IDBoOS45bTQuOTMgMGg5Ljg3bTQuOTQgMGg5LjltNC45MyAwaDkuODhtNC45NSAwaDkuODhtNC45NCAwaDkuODhtNC45NCAwaDkuODhtNC45NCAwaDkuODhtNC45NCAwaDkuODhtNC45NCAwaDkuODhtNC45NCAwaDkuODhtNC45NCAwaDkuODhtNC45NCAwaDkuOW00LjkzIDBoOS44OG00Ljk0IDBoOS44OG00Ljk0IDBoOS44N200Ljk0IDBoOS45bTQuOTMgMGg5Ljg4bTQuOTYgMGg5Ljg4bTQuOTQgMGg5Ljg4bTQuOTQgMGg5Ljg4bTQuOTQgMGg5Ljg4bTQuOTQgMGg5Ljg4bTQuOTQgMGg5Ljg4bTQuOTUgMGg5Ljg3bTQuOTQgMGg5LjltNC45MyAwaDkuODhtNC45NSAwaDkuODhtNC45NCAwaDkuODhtNC45NCAwaDkuODhtNC45NCAwaDkuODhtNC45NCAwaDkuODhtNC45NCAwaDQuOTQiLz48cGF0aCBmaWxsPSIjM2E0MTRhIiBzdHJva2U9IiMzYTQxNGEiIGQ9Ik0yNDUuNjIgMzExOC40bDE0LjI2LTQuNjR2OS4yN3oiLz48cGF0aCBmaWxsPSJub25lIiBzdHJva2U9IiMzYTQxNGEiIGQ9Ik03NDkuNSAzMTE4LjRoLjUiLz48cGF0aCBmaWxsLW9wYWNpdHk9IjAiIGZpbGw9IiNmZmYiIHN0cm9rZS1vcGFjaXR5PSIwIiBzdHJva2U9IiMwMDAiIGQ9Ik0zMTIgMzAwOS41YTYgNiAwIDAgMSA2LTZoMzY4YTYgNiAwIDAgMSA2IDZ2MTMxLjMzYTYgNiAwIDAgMS02IDZIMzE4YTYgNiAwIDAgMS02LTZ6Ii8+PHVzZSB0cmFuc2Zvcm09Im1hdHJpeCgxLDAsMCwxLDMxNywzMDA4LjQ5ODAzOTIxNTY4NjcpIHRyYW5zbGF0ZSgyNy43ODA4NjQxOTc1MzA4NiA2Mi42OTQ0NDQ0NDQ0NDQ0NCkiIHhsaW5rOmhyZWY9IiNYIi8+PHVzZSB0cmFuc2Zvcm09Im1hdHJpeCgxLDAsMCwxLDMxNywzMDA4LjQ5ODAzOTIxNTY4NjcpIHRyYW5zbGF0ZSg2NC44MTE3MjgzOTUwNjE3MiA2Mi42OTQ0NDQ0NDQ0NDQ0NCkiIHhsaW5rOmhyZWY9IiNZIi8+PHVzZSB0cmFuc2Zvcm09Im1hdHJpeCgxLDAsMCwxLDMxNywzMDA4LjQ5ODAzOTIxNTY4NjcpIHRyYW5zbGF0ZSg5OC40NzIyMjIyMjIyMjIyIDYyLjY5NDQ0NDQ0NDQ0NDQ0KSIgeGxpbms6aHJlZj0iI28iLz48dXNlIHRyYW5zZm9ybT0ibWF0cml4KDEsMCwwLDEsMzE3LDMwMDguNDk4MDM5MjE1Njg2NykgdHJhbnNsYXRlKDExMS44NjcyODM5NTA2MTcyNiA2Mi42OTQ0NDQ0NDQ0NDQ0NCkiIHhsaW5rOmhyZWY9IiNaIi8+PHVzZSB0cmFuc2Zvcm09Im1hdHJpeCgxLDAsMCwxLDMxNywzMDA4LjQ5ODAzOTIxNTY4NjcpIHRyYW5zbGF0ZSgzMTYuMjkzMjA5ODc2NTQzMiA2Mi42OTQ0NDQ0NDQ0NDQ0NCkiIHhsaW5rOmhyZWY9IiNhYSIvPjx1c2UgdHJhbnNmb3JtPSJtYXRyaXgoMSwwLDAsMSwzMTcsMzAwOC40OTgwMzkyMTU2ODY3KSB0cmFuc2xhdGUoMzIuNzI4Mzk1MDYxNzI4NDM1IDgxLjM2MTExMTExMTExMTEpIiB4bGluazpocmVmPSIjYWIiLz48dXNlIHRyYW5zZm9ybT0ibWF0cml4KDEsMCwwLDEsMzE3LDMwMDguNDk4MDM5MjE1Njg2NykgdHJhbnNsYXRlKDcyLjc0MDc0MDc0MDc0MDc4IDgxLjM2MTExMTExMTExMTEpIiB4bGluazpocmVmPSIjYWMiLz48dXNlIHRyYW5zZm9ybT0ibWF0cml4KDEsMCwwLDEsMzE3LDMwMDguNDk4MDM5MjE1Njg2NykgdHJhbnNsYXRlKDExOC41MDAwMDAwMDAwMDAwMyA4MS4zNjExMTExMTExMTExKSIgeGxpbms6aHJlZj0iI2FkIi8+PHVzZSB0cmFuc2Zvcm09Im1hdHJpeCgxLDAsMCwxLDMxNywzMDA4LjQ5ODAzOTIxNTY4NjcpIHRyYW5zbGF0ZSgxODQuMTM1ODAyNDY5MTM1ODMgODEuMzYxMTExMTExMTExMSkiIHhsaW5rOmhyZWY9IiNhZSIvPjx1c2UgdHJhbnNmb3JtPSJtYXRyaXgoMSwwLDAsMSwzMTcsMzAwOC40OTgwMzkyMTU2ODY3KSB0cmFuc2xhdGUoMjM4LjU4MDI0NjkxMzU4MDI1IDgxLjM2MTExMTExMTExMTEpIiB4bGluazpocmVmPSIjYWYiLz48dXNlIHRyYW5zZm9ybT0ibWF0cml4KDEsMCwwLDEsMzE3LDMwMDguNDk4MDM5MjE1Njg2NykgdHJhbnNsYXRlKDI2NC41MDYxNzI4Mzk1MDYyIDgxLjM2MTExMTExMTExMTEpIiB4bGluazpocmVmPSIjYWciLz48dXNlIHRyYW5zZm9ybT0ibWF0cml4KDEsMCwwLDEsMzE3LDMwMDguNDk4MDM5MjE1Njg2NykgdHJhbnNsYXRlKDMwMC42NzI4Mzk1MDYxNzI4NiA4MS4zNjExMTExMTExMTExKSIgeGxpbms6aHJlZj0iI2FoIi8+PHBhdGggZmlsbD0ibm9uZSIgc3Ryb2tlPSIjM2E0MTRhIiBkPSJNNzc2LjM4IDk4MGg1LjA4bTUuMDcgMGgxMC4xNW01LjA4IDBoMTAuMTVtNS4xIDBoMTAuMTRtNS4wNyAwaDEwLjE2bTUuMDggMGgxMC4xNW01LjA2IDBoMTAuMTZtNS4wNyAwaDEwLjE0bTUuMDggMGgxMC4xNW01LjA3IDBoMTAuMTVtNS4wNyAwaDEwLjE1bTUuMDcgMGgxMC4xNW01LjA3IDBoMTAuMTVtNS4wOCAwaDEwLjE1bTUuMDcgMGgxMC4xNW01LjA4IDBoMTAuMTVtNS4wNyAwaDEwLjE4bTUuMDggMGgxMC4xN201LjEgMGgxMC4xN201LjEgMGgxMC4xNm01LjEgMGgxMC4xN201LjA4IDBoMTAuMThtNS4xIDBoMTAuMThtNS4wOCAwaDEwLjE4bTUuMSAwaDEwLjE2bTUuMSAwaDEwLjE3bTUuMSAwaDEwLjE2bTUuMSAwSDExOTNtNS4xIDBoMTAuMTZtNS4xIDBoMTAuMTdtNS4xIDBoMTAuMTZtNS4wOCAwaDEwLjE4bTUuMSAwaDEwLjE2bTUuMSAwaDUuMDgiLz48cGF0aCBmaWxsPSIjM2E0MTRhIiBzdHJva2U9IiMzYTQxNGEiIGQ9Ik03NjEuNjIgOTgwbDE0LjI2LTQuNjN2OS4yNnoiLz48cGF0aCBmaWxsPSJub25lIiBzdHJva2U9IiMzYTQxNGEiIGQ9Ik0xMjc5LjUgOTgwaC41TTc2MC41IDExMjIuMTNoNTAzLjEyTTc2MC41IDExMjIuMTNoLS41Ii8+PHBhdGggZmlsbD0iIzNhNDE0YSIgc3Ryb2tlPSIjM2E0MTRhIiBkPSJNMTI3OC4zOCAxMTIyLjEzbC0xNC4yNiA0LjYzdi05LjI3eiIvPjxwYXRoIGZpbGw9Im5vbmUiIHN0cm9rZT0iIzNhNDE0YSIgZD0iTTc3Ni4zOCAxMjExLjNoNS4wOG01LjA3IDBoMTAuMTVtNS4wOCAwaDEwLjE1bTUuMSAwaDEwLjE0bTUuMDcgMGgxMC4xNm01LjA4IDBoMTAuMTVtNS4wNiAwaDEwLjE2bTUuMDcgMGgxMC4xNG01LjA4IDBoMTAuMTVtNS4wNyAwaDEwLjE1bTUuMDcgMGgxMC4xNW01LjA3IDBoMTAuMTVtNS4wNyAwaDEwLjE1bTUuMDggMGgxMC4xNW01LjA3IDBoMTAuMTVtNS4wOCAwaDEwLjE1bTUuMDcgMGgxMC4xOG01LjA4IDBoMTAuMTdtNS4xIDBoMTAuMTdtNS4xIDBoMTAuMTZtNS4xIDBoMTAuMTdtNS4wOCAwaDEwLjE4bTUuMSAwaDEwLjE4bTUuMDggMGgxMC4xOG01LjEgMGgxMC4xNm01LjEgMGgxMC4xN201LjEgMGgxMC4xNm01LjEgMEgxMTkzbTUuMSAwaDEwLjE2bTUuMSAwaDEwLjE3bTUuMSAwaDEwLjE2bTUuMDggMGgxMC4xOG01LjEgMGgxMC4xNm01LjEgMGg1LjA4Ii8+PHBhdGggZmlsbD0iIzNhNDE0YSIgc3Ryb2tlPSIjM2E0MTRhIiBkPSJNNzYxLjYyIDEyMTEuM2wxNC4yNi00LjY0djkuMjd6Ii8+PHBhdGggZmlsbD0ibm9uZSIgc3Ryb2tlPSIjM2E0MTRhIiBkPSJNMTI3OS41IDEyMTEuM2guNU03ODIuMzggMjc1Mi44aDUuMDZtNS4wNSAwaDEwLjFtNS4wNSAwaDEwLjFtNS4wNiAwaDEwLjEybTUuMDUgMGgxMC4xbTUuMDYgMGgxMC4xbTUuMDYgMGgxMC4xbTUuMDUgMGgxMC4xbTUuMDYgMGgxMC4xMm01LjA1IDBoMTAuMW01LjA2IDBoMTAuMW01LjA2IDBoMTAuMW01LjA1IDBoMTAuMW01LjA2IDBoMTAuMTJtNS4wNSAwaDEwLjFtNS4wNiAwaDEwLjFtNS4wNiAwaDEwLjFtNS4wNSAwaDEwLjFtNS4wNiAwaDEwLjEybTUuMDUgMGgxMC4xbTUuMDYgMGgxMC4xbTUuMDYgMGgxMC4xbTUuMDUgMGgxMC4xbTUuMDYgMGgxMC4xbTUuMDcgMGgxMC4xbTUuMDYgMGgxMC4xbTUuMDYgMGgxMC4xbTUuMDUgMGgxMC4xbTUuMDYgMGgxMC4xbTUuMDcgMGgxMC4xbTUuMDYgMGgxMC4xbTUuMDYgMGgxMC4xbTUuMDUgMGg1LjA1Ii8+PHBhdGggZmlsbD0iIzNhNDE0YSIgc3Ryb2tlPSIjM2E0MTRhIiBkPSJNNzY3LjYyIDI3NTIuOGwxNC4yNi00LjY0djkuMjh6Ii8+PHBhdGggZmlsbD0ibm9uZSIgc3Ryb2tlPSIjM2E0MTRhIiBkPSJNMTI2Ny41IDI3NTIuOGguNSIvPjxwYXRoIGZpbGwtb3BhY2l0eT0iMCIgZmlsbD0iI2ZmZiIgc3Ryb2tlLW9wYWNpdHk9IjAiIHN0cm9rZT0iIzAwMCIgZD0iTTg4MCAyNjg3Ljg3YTYgNiAwIDAgMSA2LTZoMjY4YTYgNiAwIDAgMSA2IDZ2NzhhNiA2IDAgMCAxLTYgNkg4ODZhNiA2IDAgMCAxLTYtNnoiLz48dXNlIHRyYW5zZm9ybT0ibWF0cml4KDEsMCwwLDEsODg1LDI2ODYuODY2NjY2NjY2NjY3MikgdHJhbnNsYXRlKDg1LjM3MzQ1Njc5MDEyMzQ3IDQyLjQ0NDQ0NDQ0NDQ0NDQ0KSIgeGxpbms6aHJlZj0iI2FpIi8+PHVzZSB0cmFuc2Zvcm09Im1hdHJpeCgxLDAsMCwxLDg4NSwyNjg2Ljg2NjY2NjY2NjY2NzIpIHRyYW5zbGF0ZSgxNDcuNTUyNDY5MTM1ODAyNDggNDIuNDQ0NDQ0NDQ0NDQ0NDQpIiB4bGluazpocmVmPSIjYWoiLz48cGF0aCBmaWxsPSJub25lIiBzdHJva2U9IiMzYTQxNGEiIGQ9Ik0yNjAuMzggMjg0Ni44aDUuMDhtNS4wNyAwaDEwLjE1bTUuMDcgMGgxMC4xNW01LjA4IDBoMTAuMTRtNS4wOCAwaDEwLjE1bTUuMDcgMGgxMC4xNW01LjA3IDBoMTAuMTVtNS4wNyAwSDM3Mm01LjEgMGgxMC4xNG01LjA3IDBoMTAuMTZtNS4wNyAwaDEwLjE1bTUuMDggMGgxMC4xNG01LjA4IDBoMTAuMTVtNS4wNyAwaDEwLjE1bTUuMDcgMGgxMC4xNW01LjA3IDBoMTAuMTVtNS4wNyAwaDEwLjE1bTUuMDcgMGgxMC4xNG01LjA3IDBoMTAuMTZtNS4wNyAwaDEwLjE1bTUuMDggMGgxMC4xNW01LjA4IDBoMTAuMTVtNS4wNyAwaDEwLjE1bTUuMDcgMGgxMC4xNW01LjA4IDBoMTAuMTRtNS4wNyAwaDEwLjE1bTUuMDcgMGgxMC4xNG01LjA3IDBoMTAuMTZtNS4wOCAwaDEwLjE0bTUuMDggMGgxMC4xNW01LjA4IDBoMTAuMTVtNS4wNyAwaDEwLjE1bTUuMDggMGg1LjA3Ii8+PHBhdGggZmlsbD0iIzNhNDE0YSIgc3Ryb2tlPSIjM2E0MTRhIiBkPSJNMjQ1LjYyIDI4NDYuOGwxNC4yNi00LjY0djkuMjh6Ii8+PHBhdGggZmlsbD0ibm9uZSIgc3Ryb2tlPSIjM2E0MTRhIiBkPSJNNzQ3LjUgMjg0Ni44aC41Ii8+PHBhdGggZmlsbC1vcGFjaXR5PSIwIiBmaWxsPSIjZmZmIiBzdHJva2Utb3BhY2l0eT0iMCIgc3Ryb2tlPSIjMDAwIiBkPSJNMzQwIDI3NjguM2E2IDYgMCAwIDEgNi02aDI2OGE2IDYgMCAwIDEgNiA2djc4YTYgNiAwIDAgMS02IDZIMzQ2YTYgNiAwIDAgMS02LTZ6Ii8+PHVzZSB0cmFuc2Zvcm09Im1hdHJpeCgxLDAsMCwxLDM0NSwyNzY3LjI5MDE5NjA3ODQzMikgdHJhbnNsYXRlKDIwLjE0ODE0ODE0ODE0ODEzOCAzNC45NDQ0NDQ0NDQ0NDQ0NCkiIHhsaW5rOmhyZWY9IiNhayIvPjx1c2UgdHJhbnNmb3JtPSJtYXRyaXgoMSwwLDAsMSwzNDUsMjc2Ny4yOTAxOTYwNzg0MzIpIHRyYW5zbGF0ZSgyMzYuMDY3OTAxMjM0NTY3OSAzNC45NDQ0NDQ0NDQ0NDQ0NCkiIHhsaW5rOmhyZWY9IiNhbCIvPjx1c2UgdHJhbnNmb3JtPSJtYXRyaXgoMSwwLDAsMSwzNDUsMjc2Ny4yOTAxOTYwNzg0MzIpIHRyYW5zbGF0ZSg4Ni43MzQ1Njc5MDEyMzQ1OCA1My42MTExMTExMTExMTExMSkiIHhsaW5rOmhyZWY9IiNhbSIvPjxwYXRoIGZpbGw9Im5vbmUiIHN0cm9rZT0iIzNhNDE0YSIgZD0iTTc2MC41IDEyODQuMTRoMjU2LjgyYTIuNjggMi42OCAwIDAgMSAyLjY4IDIuNjggMi42OCAyLjY4IDAgMCAwIDIuNjggMi43aDI0MC45NE03NjAuNSAxMjg0LjE0aC0uNSIvPjxwYXRoIGZpbGw9IiMzYTQxNGEiIHN0cm9rZT0iIzNhNDE0YSIgZD0iTTEyNzguMzggMTI4OS41bC0xNC4yNiA0LjY0di05LjI3eiIvPjxwYXRoIGZpbGw9Im5vbmUiIHN0cm9rZT0iIzNhNDE0YSIgZD0iTTc4NC4zOCAyNDg5LjJoNC45N200Ljk1IDBoOS45M200Ljk2IDBoOS45bTQuOTcgMEg4MzRtNC45NSAwaDkuOTJtNC45NyAwaDkuOTJtNC45NiAwaDkuOTJtNC45NiAwaDkuOTJtNC45NiAwaDkuOTJtNC45NiAwaDkuOTJtNC45NyAwaDkuOTJtNC45NiAwaDkuOTJtNC45NiAwaDkuOTNtNC45NiAwaDkuOTJtNC45NSAwaDkuOTNtNC45NiAwaDkuOTJtNC45NiAwaDkuOTJtNC45NiAwaDkuOTJtNC45NyAwaDkuOTNtNC45NiAwaDkuOW00Ljk3IDBoOS45Mm00Ljk1IDBoOS45Mm00Ljk2IDBoOS45M200Ljk2IDBoOS45Mm00Ljk2IDBoOS45Mm00Ljk2IDBoOS45Mm00Ljk2IDBoOS45M200Ljk0IDBoOS45M200Ljk2IDBoOS45Mm00Ljk2IDBoOS45M200Ljk2IDBoOS45bTQuOTggMGg5LjkybTQuOTYgMGg5LjkybTQuOTYgMGg0Ljk2Ii8+PHBhdGggZmlsbD0iIzNhNDE0YSIgc3Ryb2tlPSIjM2E0MTRhIiBkPSJNNzY5LjYyIDI0ODkuMmwxNC4yNi00LjYzdjkuMjZ6Ii8+PHBhdGggZmlsbD0ibm9uZSIgc3Ryb2tlPSIjM2E0MTRhIiBkPSJNMTI3NS41IDI0ODkuMmguNSIvPjxwYXRoIGZpbGwtb3BhY2l0eT0iMCIgZmlsbD0iI2ZmZiIgc3Ryb2tlLW9wYWNpdHk9IjAiIHN0cm9rZT0iIzAwMCIgZD0iTTg0MCAyNDI3LjE0YTYgNiAwIDAgMSA2LTZoMjY4YTYgNiAwIDAgMSA2IDZ2NzhhNiA2IDAgMCAxLTYgNkg4NDZhNiA2IDAgMCAxLTYtNnoiLz48dXNlIHRyYW5zZm9ybT0ibWF0cml4KDEsMCwwLDEsODQ1LDI0MjYuMTQ1MDk4MDM5MjE3KSB0cmFuc2xhdGUoODAuMjc0NjkxMzU4MDI0NzEgNDIuNDQ0NDQ0NDQ0NDQ0NDQpIiB4bGluazpocmVmPSIjYW4iLz48dXNlIHRyYW5zZm9ybT0ibWF0cml4KDEsMCwwLDEsODQ1LDI0MjYuMTQ1MDk4MDM5MjE3KSB0cmFuc2xhdGUoMTQxLjQxNjY2NjY2NjY2NjY5IDQyLjQ0NDQ0NDQ0NDQ0NDQ0KSIgeGxpbms6aHJlZj0iI3ciLz48dXNlIHRyYW5zZm9ybT0ibWF0cml4KDEsMCwwLDEsODQ1LDI0MjYuMTQ1MDk4MDM5MjE3KSB0cmFuc2xhdGUoMTU2LjkyOTAxMjM0NTY3OSA0Mi40NDQ0NDQ0NDQ0NDQ0NCkiIHhsaW5rOmhyZWY9IiNhbyIvPjxwYXRoIGZpbGw9Im5vbmUiIHN0cm9rZT0iIzNhNDE0YSIgZD0iTTI1Mi4zOCAyNTQ5LjJoNC45NG00LjkzIDBoOS44Nm00Ljk1IDBoOS44Nm00Ljk0IDBoOS44N200Ljk0IDBoOS44N200Ljk0IDBoOS44Nm00Ljk0IDBoOS44Nm00LjkzIDBoOS44N200LjkzIDBoOS44N200LjkzIDBoOS44Nm00LjkzIDBoOS44Nm00LjkyIDBoOS44N200LjkyIDBoOS44N200LjkyIDBoOS44Nm00Ljk0IDBoOS44Nm00LjkzIDBoOS44OG00LjkzIDBoOS44OG00LjkzIDBoOS44N200Ljk0IDBoOS44N200LjkzIDBoOS44N200LjkzIDBoOS44N200LjkzIDBoOS44N200LjkzIDBoOS44Nm00LjkzIDBoOS44Nm00LjkzIDBoOS44Nm00LjkzIDBoOS44Nm00LjkzIDBoOS44NW00Ljk0IDBoOS44NW00LjkzIDBoOS44N200LjkzIDBoOS44N200LjkzIDBoOS44Nm00LjkzIDBoOS44N200LjkzIDBoOS44N200LjkzIDBoOS44N200LjkzIDBoNC45MyIvPjxwYXRoIGZpbGw9IiMzYTQxNGEiIHN0cm9rZT0iIzNhNDE0YSIgZD0iTTIzNy42MiAyNTQ5LjJsMTQuMjYtNC42M3Y5LjI2eiIvPjxwYXRoIGZpbGw9Im5vbmUiIHN0cm9rZT0iIzNhNDE0YSIgZD0iTTc1NS41IDI1NDkuMmguNSIvPjxwYXRoIGZpbGwtb3BhY2l0eT0iMCIgZmlsbD0iI2ZmZiIgc3Ryb2tlLW9wYWNpdHk9IjAiIHN0cm9rZT0iIzAwMCIgZD0iTTMyMCAyNDcxLjg4YTYgNiAwIDAgMSA2LTZoMzUyLjI0YTYgNiAwIDAgMSA2IDZ2NzhhNiA2IDAgMCAxLTYgNkgzMjZhNiA2IDAgMCAxLTYtNnoiLz48dXNlIHRyYW5zZm9ybT0ibWF0cml4KDEsMCwwLDEsMzI1LDI0NzAuODgyMzUyOTQxMTc2KSB0cmFuc2xhdGUoOS45NTM3MDM3MDM3MDM3MjQgNDIuNDQ0NDQ0NDQ0NDQ0NDQpIiB4bGluazpocmVmPSIjYXAiLz48dXNlIHRyYW5zZm9ybT0ibWF0cml4KDEsMCwwLDEsMzI1LDI0NzAuODgyMzUyOTQxMTc2KSB0cmFuc2xhdGUoNzguMDUyNDY5MTM1ODAyNDcgNDIuNDQ0NDQ0NDQ0NDQ0NDQpIiB4bGluazpocmVmPSIjbyIvPjx1c2UgdHJhbnNmb3JtPSJtYXRyaXgoMSwwLDAsMSwzMjUsMjQ3MC44ODIzNTI5NDExNzYpIHRyYW5zbGF0ZSg5MS40NDc1MzA4NjQxOTc1MyA0Mi40NDQ0NDQ0NDQ0NDQ0NCkiIHhsaW5rOmhyZWY9IiNhcSIvPjx1c2UgdHJhbnNmb3JtPSJtYXRyaXgoMSwwLDAsMSwzMjUsMjQ3MC44ODIzNTI5NDExNzYpIHRyYW5zbGF0ZSgyMTIuMTc1OTI1OTI1OTI1OSA0Mi40NDQ0NDQ0NDQ0NDQ0NCkiIHhsaW5rOmhyZWY9IiNhciIvPjx1c2UgdHJhbnNmb3JtPSJtYXRyaXgoMSwwLDAsMSwzMjUsMjQ3MC44ODIzNTI5NDExNzYpIHRyYW5zbGF0ZSgyNDQuMDY0ODE0ODE0ODE0NzggNDIuNDQ0NDQ0NDQ0NDQ0NDQpIiB4bGluazpocmVmPSIjYXMiLz48dXNlIHRyYW5zZm9ybT0ibWF0cml4KDEsMCwwLDEsMzI1LDI0NzAuODgyMzUyOTQxMTc2KSB0cmFuc2xhdGUoMjgxLjA5NTY3OTAxMjM0NTYgNDIuNDQ0NDQ0NDQ0NDQ0NDQpIiB4bGluazpocmVmPSIjYXQiLz48dXNlIHRyYW5zZm9ybT0ibWF0cml4KDEsMCwwLDEsMzI1LDI0NzAuODgyMzUyOTQxMTc2KSB0cmFuc2xhdGUoMzE5LjEyMDM3MDM3MDM3MDMgNDIuNDQ0NDQ0NDQ0NDQ0NDQpIiB4bGluazpocmVmPSIjYXUiLz48cGF0aCBmaWxsLW9wYWNpdHk9IjAiIGZpbGw9IiNmZmYiIHN0cm9rZS1vcGFjaXR5PSIwIiBzdHJva2U9IiMwMDAiIGQ9Ik0zMTAgMTk4Ny45MmE2IDYgMCAwIDEgNi02aDI4OGE2IDYgMCAwIDEgNiA2djc4YTYgNiAwIDAgMS02IDZIMzE2YTYgNiAwIDAgMS02LTZ6Ii8+PGc+PHVzZSB0cmFuc2Zvcm09Im1hdHJpeCgxLDAsMCwxLDMxNSwxOTg2LjkxNzY0NzA1ODgyMzYpIHRyYW5zbGF0ZSgyOS43NTkyNTkyNTkyNTkyOCAzNC45NDQ0NDQ0NDQ0NDQ0NCkiIHhsaW5rOmhyZWY9IiNhdiIvPjx1c2UgdHJhbnNmb3JtPSJtYXRyaXgoMSwwLDAsMSwzMTUsMTk4Ni45MTc2NDcwNTg4MjM2KSB0cmFuc2xhdGUoODUuODg4ODg4ODg4ODg4OSAzNC45NDQ0NDQ0NDQ0NDQ0NCkiIHhsaW5rOmhyZWY9IiNhdyIvPjx1c2UgdHJhbnNmb3JtPSJtYXRyaXgoMSwwLDAsMSwzMTUsMTk4Ni45MTc2NDcwNTg4MjM2KSB0cmFuc2xhdGUoMTM2Ljg3NjU0MzIwOTg3NjU2IDM0Ljk0NDQ0NDQ0NDQ0NDQ0KSIgeGxpbms6aHJlZj0iI2FmIi8+PHVzZSB0cmFuc2Zvcm09Im1hdHJpeCgxLDAsMCwxLDMxNSwxOTg2LjkxNzY0NzA1ODgyMzYpIHRyYW5zbGF0ZSgxNjIuODAyNDY5MTM1ODAyNDggMzQuOTQ0NDQ0NDQ0NDQ0NDQpIiB4bGluazpocmVmPSIjYXgiLz48dXNlIHRyYW5zZm9ybT0ibWF0cml4KDEsMCwwLDEsMzE1LDE5ODYuOTE3NjQ3MDU4ODIzNikgdHJhbnNsYXRlKDE0NSA1My42MTExMTExMTExMTExMSkiIHhsaW5rOmhyZWY9IiNheSIvPjwvZz48cGF0aCBmaWxsPSJub25lIiBzdHJva2UtbGluZWpvaW49InJvdW5kIiBzdHJva2U9IiMzYTQxNGEiIGQ9Ik0xMjgwLjUgMTQxMC43bDE3LjUuNjcgOC4yNSAxLjEzIDUuMjcgMS4yNCAxMy4yIDQuMjIgMy41LjQ4IDUuMzguMjMgMS42LjA3IDEuNTQuMjIgMS41LjM1IDEuNC41IDEuMzIuNTggMS4yLjY4IDEuMTIuNzcuOTguODIuODYuODguNzQuOS42My45NC41Ljk1LjQyLjk3LjMyLjk3LjIyIDEgLjEzIDEgLjAyIDEuMDQtLjA3IDEuMDctLjE3IDEuMS0uMyAxLjE0LS40IDEuMi0uNiAxLjI4LS44IDEuMzQtMS4wMyAxLjQ1LTEuMzcgMS41OC0xLjggMS43Mi0yLjQyIDEuOS0zLjI1IDIuMS00LjQ2IDIuMzMtNi4zIDIuNTgtOS4xOCAyLjc3LTEzLjg0IDIuOC01LjgzLjYyIi8+PHBhdGggZmlsbD0ibm9uZSIgc3Ryb2tlPSIjM2E0MTRhIiBkPSJNMTI4MC41IDE0MTAuN2wtLjUtLjAzIi8+PHBhdGggZmlsbD0iIzNhNDE0YSIgc3Ryb2tlPSIjM2E0MTRhIiBkPSJNMTI4MS42IDE0NTkuODNsMTMuNy02LjEuOTggOS4yeiIvPjxwYXRoIGZpbGw9Im5vbmUiIHN0cm9rZT0iIzNhNDE0YSIgZD0iTTEyNzkuMTcgMTYzNy4wN2g1OS44TTEyNzkuMTggMTYzNy4wN2gtLjVNMTMzOC45NSAxNjM3LjA3aC41Mk0xMzM0LjMzIDE2MzguOXY2MC4zM00xMzM0LjMzIDE2MzguOXYtLjVNMTMzNC4zMyAxNjk5LjIydi41TTEyOTcuMzggMTY5OC40aDM2LjQ1Ii8+PHBhdGggZmlsbD0iIzNhNDE0YSIgc3Ryb2tlPSIjM2E0MTRhIiBkPSJNMTI4Mi42MiAxNjk4LjRsMTQuMjYtNC42M3Y5LjI3eiIvPjxwYXRoIGZpbGw9Im5vbmUiIHN0cm9rZT0iIzNhNDE0YSIgZD0iTTEzMzMuODIgMTY5OC40aC41TTEyNzcuODMgMTU1OC40aDU5LjhNMTI3Ny44NSAxNTU4LjRoLS41Mk0xMzM3LjYyIDE1NTguNGguNU0xMzMzIDE1NjAuMjN2NjAuMzRNMTMzMyAxNTYwLjI1di0uNTJNMTMzMyAxNjIwLjU1di41Mk0xMjk2LjA1IDE2MTkuNzNoMzYuNDUiLz48cGF0aCBmaWxsPSIjM2E0MTRhIiBzdHJva2U9IiMzYTQxNGEiIGQ9Ik0xMjgxLjMgMTYxOS43M2wxNC4yNS00LjYzdjkuMjd6Ii8+PHBhdGggZmlsbD0ibm9uZSIgc3Ryb2tlPSIjM2E0MTRhIiBkPSJNMTMzMi41IDE2MTkuNzNoLjVNMjUwLjM4IDE4MDIuMzhINzYxLjUiLz48cGF0aCBmaWxsPSIjM2E0MTRhIiBzdHJva2U9IiMzYTQxNGEiIGQ9Ik0yMzUuNjIgMTgwMi4zOGwxNC4yNi00LjY0djkuMjd6Ii8+PHBhdGggZmlsbD0ibm9uZSIgc3Ryb2tlPSIjM2E0MTRhIiBkPSJNNzYxLjUgMTgwMi4zOGguNSIvPjxwYXRoIGZpbGwtb3BhY2l0eT0iMCIgZmlsbD0iI2ZmZiIgc3Ryb2tlLW9wYWNpdHk9IjAiIHN0cm9rZT0iIzAwMCIgZD0iTTI4NCAxNzIyLjIyYTYgNiAwIDAgMSA2LTZoNDU2YTYgNiAwIDAgMSA2IDZ2ODhhNiA2IDAgMCAxLTYgNkgyOTBhNiA2IDAgMCAxLTYtNnoiLz48Zz48dXNlIHRyYW5zZm9ybT0ibWF0cml4KDEsMCwwLDEsMjg5LDE3MjEuMjE5NjA3ODQzMDgzOCkgdHJhbnNsYXRlKDYzLjAyNzc3Nzc3Nzc3Nzk0IDI0LjQzNzQ5OTk5OTk5OTk4NikiIHhsaW5rOmhyZWY9IiNheiIvPjx1c2UgdHJhbnNmb3JtPSJtYXRyaXgoMSwwLDAsMSwyODksMTcyMS4yMTk2MDc4NDMwODM4KSB0cmFuc2xhdGUoMTY4LjQ3MjIyMjIyMjIyMjI5IDI0LjQzNzQ5OTk5OTk5OTk4NikiIHhsaW5rOmhyZWY9IiNhQSIvPjx1c2UgdHJhbnNmb3JtPSJtYXRyaXgoMSwwLDAsMSwyODksMTcyMS4yMTk2MDc4NDMwODM4KSB0cmFuc2xhdGUoMjI1LjEzODg4ODg4ODg4ODkgMjQuNDM3NDk5OTk5OTk5OTg2KSIgeGxpbms6aHJlZj0iI2FCIi8+PHVzZSB0cmFuc2Zvcm09Im1hdHJpeCgxLDAsMCwxLDI4OSwxNzIxLjIxOTYwNzg0MzA4MzgpIHRyYW5zbGF0ZSgzMjAuNTgzMzMzMzMzMzMzMjYgMjQuNDM3NDk5OTk5OTk5OTg2KSIgeGxpbms6aHJlZj0iI2FDIi8+PHVzZSB0cmFuc2Zvcm09Im1hdHJpeCgxLDAsMCwxLDI4OSwxNzIxLjIxOTYwNzg0MzA4MzgpIHRyYW5zbGF0ZSgzNDIuODA1NTU1NTU1NTU1NDMgMjQuNDM3NDk5OTk5OTk5OTg2KSIgeGxpbms6aHJlZj0iI2FEIi8+PHVzZSB0cmFuc2Zvcm09Im1hdHJpeCgxLDAsMCwxLDI4OSwxNzIxLjIxOTYwNzg0MzA4MzgpIHRyYW5zbGF0ZSg3OS43NTAwMDAwMDAwMDAxNyA0OC40Mzc0OTk5OTk5OTk5NjQpIiB4bGluazpocmVmPSIjYUUiLz48dXNlIHRyYW5zZm9ybT0ibWF0cml4KDEsMCwwLDEsMjg5LDE3MjEuMjE5NjA3ODQzMDgzOCkgdHJhbnNsYXRlKDkwLjI3Nzc3Nzc3Nzc3Nzk3IDcyLjQzNzQ5OTk5OTk5OTk0KSIgeGxpbms6aHJlZj0iI2FGIi8+PC9nPjxwYXRoIGZpbGw9Im5vbmUiIHN0cm9rZT0iIzNhNDE0YSIgZD0iTTI0Ni41IDE5MzJoNC45N200Ljk3IDBoOS45NW00Ljk2IDBoOS45NG00Ljk3IDBoOS45NW00Ljk3IDBoOS45M200Ljk3IDBoOS45NW00Ljk3IDBoOS45NG00Ljk4IDBoOS45NG00Ljk3IDBoOS45NG00Ljk2IDBoOS45NW00Ljk4IDBoOS45NG00Ljk4IDBoOS45NG00Ljk3IDBoOS45NW00Ljk4IDBoOS45NG00Ljk3IDBoOS45NG00Ljk4IDBoOS45NG00Ljk3IDBoOS45NG01IDBoOS45M200Ljk3IDBoOS45NW00Ljk3IDBoOS45NG00Ljk3IDBoOS45NG00Ljk4IDBoOS45NG00Ljk2IDBoOS45NW00Ljk4IDBoOS45NG00Ljk3IDBoOS45NG00Ljk3IDBoOS45NW00Ljk3IDBoOS45NW00Ljk3IDBoOS45NG00Ljk3IDBoOS45NW00Ljk3IDBINjg0bTQuOTggMGg5Ljk1bTQuOTcgMGg5Ljk0bTQuOTcgMGg5Ljk2bTQuOTcgMGg5Ljk0bTQuOTcgMGg0Ljk4TTI0Ni41IDE5MzJoLS41Ii8+PHBhdGggZmlsbD0iIzNhNDE0YSIgc3Ryb2tlPSIjM2E0MTRhIiBkPSJNNzY4LjM4IDE5MzJsLTE0LjI2IDQuNjN2LTkuMjd6Ii8+PHBhdGggZmlsbC1vcGFjaXR5PSIwIiBmaWxsPSIjZmZmIiBzdHJva2Utb3BhY2l0eT0iMCIgc3Ryb2tlPSIjMDAwIiBkPSJNMzQwIDE4OTRhNiA2IDAgMCAxIDYtNmgyMjhhNiA2IDAgMCAxIDYgNnY0OGE2IDYgMCAwIDEtNiA2SDM0NmE2IDYgMCAwIDEtNi02eiIvPjxnPjx1c2UgdHJhbnNmb3JtPSJtYXRyaXgoMSwwLDAsMSwzNDUsMTg5MykgdHJhbnNsYXRlKDczLjAyNDY5MTM1ODAyNDY4IDMwLjI3Nzc3Nzc3Nzc3Nzc4KSIgeGxpbms6aHJlZj0iI2FHIi8+PC9nPjxwYXRoIGZpbGw9Im5vbmUiIHN0cm9rZT0iIzNhNDE0YSIgZD0iTTc2NC41IDE5ODRoNDk3LjEyTTc2NC41IDE5ODRoLS41Ii8+PHBhdGggZmlsbD0iIzNhNDE0YSIgc3Ryb2tlPSIjM2E0MTRhIiBkPSJNMTI3Ni4zOCAxOTg0bC0xNC4yNiA0LjYzdi05LjI3eiIvPjxwYXRoIGZpbGwtb3BhY2l0eT0iMCIgZmlsbD0iI2ZmZiIgc3Ryb2tlLW9wYWNpdHk9IjAiIHN0cm9rZT0iIzAwMCIgZD0iTTg0MCAxOTE4LjZhNiA2IDAgMCAxIDYtNmgzNDhhNiA2IDAgMCAxIDYgNnY3OGE2IDYgMCAwIDEtNiA2SDg0NmE2IDYgMCAwIDEtNi02eiIvPjxnPjx1c2UgdHJhbnNmb3JtPSJtYXRyaXgoMSwwLDAsMSw4NDUsMTkxNy41OTk5OTk5OTk5NzY3KSB0cmFuc2xhdGUoMjQuNDM1MTg1MTg1MTg1MjIgNDIuNDQ0NDQ0NDQ0NDQ0NDQpIiB4bGluazpocmVmPSIjYUgiLz48dXNlIHRyYW5zZm9ybT0ibWF0cml4KDEsMCwwLDEsODQ1LDE5MTcuNTk5OTk5OTk5OTc2NykgdHJhbnNsYXRlKDg4LjM0MjU5MjU5MjU5MjYxIDQyLjQ0NDQ0NDQ0NDQ0NDQ0KSIgeGxpbms6aHJlZj0iI2FJIi8+PHVzZSB0cmFuc2Zvcm09Im1hdHJpeCgxLDAsMCwxLDg0NSwxOTE3LjU5OTk5OTk5OTk3NjcpIHRyYW5zbGF0ZSgyMzcuNTAzMDg2NDE5NzUzMDYgNDIuNDQ0NDQ0NDQ0NDQ0NDQpIiB4bGluazpocmVmPSIjYUoiLz48dXNlIHRyYW5zZm9ybT0ibWF0cml4KDEsMCwwLDEsODQ1LDE5MTcuNTk5OTk5OTk5OTc2NykgdHJhbnNsYXRlKDI1My44Nzk2Mjk2Mjk2Mjk2IDQyLjQ0NDQ0NDQ0NDQ0NDQ0KSIgeGxpbms6aHJlZj0iI2FLIi8+PHVzZSB0cmFuc2Zvcm09Im1hdHJpeCgxLDAsMCwxLDg0NSwxOTE3LjU5OTk5OTk5OTk3NjcpIHRyYW5zbGF0ZSgyOTEuOTA0MzIwOTg3NjU0MyA0Mi40NDQ0NDQ0NDQ0NDQ0NCkiIHhsaW5rOmhyZWY9IiNhTCIvPjwvZz48cGF0aCBmaWxsPSJub25lIiBzdHJva2U9IiMzYTQxNGEiIGQ9Ik0yNjAuMzggMjAzNy42SDc2My41Ii8+PHBhdGggZmlsbD0iIzNhNDE0YSIgc3Ryb2tlPSIjM2E0MTRhIiBkPSJNMjQ1LjYyIDIwMzcuNmwxNC4yNi00LjYzdjkuMjZ6Ii8+PHBhdGggZmlsbD0ibm9uZSIgc3Ryb2tlPSIjM2E0MTRhIiBkPSJNNzYzLjUgMjAzNy42aC41Ii8+PHBhdGggZmlsbC1vcGFjaXR5PSIwIiBmaWxsPSIjZmZmIiBzdHJva2Utb3BhY2l0eT0iMCIgc3Ryb2tlPSIjMDAwIiBkPSJNMzMwIDI1MDMuMWE2IDYgMCAwIDEgNi02aDI4OGE2IDYgMCAwIDEgNiA2djc4YTYgNiAwIDAgMS02IDZIMzM2YTYgNiAwIDAgMS02LTZ6Ii8+PGc+PHVzZSB0cmFuc2Zvcm09Im1hdHJpeCgxLDAsMCwxLDMzNSwyNTAyLjA5ODAzOTIxNTYxNzUpIHRyYW5zbGF0ZSgyOS43NTkyNTkyNTkyNTkyOCAzNC45NDQ0NDQ0NDQ0NDQ0NCkiIHhsaW5rOmhyZWY9IiNhdiIvPjx1c2UgdHJhbnNmb3JtPSJtYXRyaXgoMSwwLDAsMSwzMzUsMjUwMi4wOTgwMzkyMTU2MTc1KSB0cmFuc2xhdGUoODUuODg4ODg4ODg4ODg4OSAzNC45NDQ0NDQ0NDQ0NDQ0NCkiIHhsaW5rOmhyZWY9IiNhdyIvPjx1c2UgdHJhbnNmb3JtPSJtYXRyaXgoMSwwLDAsMSwzMzUsMjUwMi4wOTgwMzkyMTU2MTc1KSB0cmFuc2xhdGUoMTM2Ljg3NjU0MzIwOTg3NjU2IDM0Ljk0NDQ0NDQ0NDQ0NDQ0KSIgeGxpbms6aHJlZj0iI2FmIi8+PHVzZSB0cmFuc2Zvcm09Im1hdHJpeCgxLDAsMCwxLDMzNSwyNTAyLjA5ODAzOTIxNTYxNzUpIHRyYW5zbGF0ZSgxNjIuODAyNDY5MTM1ODAyNDggMzQuOTQ0NDQ0NDQ0NDQ0NDQpIiB4bGluazpocmVmPSIjYXgiLz48dXNlIHRyYW5zZm9ybT0ibWF0cml4KDEsMCwwLDEsMzM1LDI1MDIuMDk4MDM5MjE1NjE3NSkgdHJhbnNsYXRlKDE0NSA1My42MTExMTExMTExMTExMSkiIHhsaW5rOmhyZWY9IiNheSIvPjwvZz48cGF0aCBmaWxsLW9wYWNpdHk9IjAiIGZpbGw9IiNmZmYiIHN0cm9rZS1vcGFjaXR5PSIwIiBzdHJva2U9IiMwMDAiIGQ9Ik0zNTAgMjEzMi4zM2E2IDYgMCAwIDEgNi02aDIyOGE2IDYgMCAwIDEgNiA2djUxLjM0YTYgNiAwIDAgMS02IDZIMzU2YTYgNiAwIDAgMS02LTZ6Ii8+PGc+PHVzZSB0cmFuc2Zvcm09Im1hdHJpeCgxLDAsMCwxLDM1NSwyMTMxLjMzMzMzMzMzMzMzMzUpIHRyYW5zbGF0ZSgyOC4wMjQ2OTEzNTgwMjQ2OTcgMjEuMTUyNzc3Nzc3Nzc3NzgpIiB4bGluazpocmVmPSIjYU0iLz48dXNlIHRyYW5zZm9ybT0ibWF0cml4KDEsMCwwLDEsMzU1LDIxMzEuMzMzMzMzMzMzMzMzNSkgdHJhbnNsYXRlKDE0NS4xODUxODUxODUxODUyIDIxLjE1Mjc3Nzc3Nzc3Nzc4KSIgeGxpbms6aHJlZj0iI2FOIi8+PHVzZSB0cmFuc2Zvcm09Im1hdHJpeCgxLDAsMCwxLDM1NSwyMTMxLjMzMzMzMzMzMzMzMzUpIHRyYW5zbGF0ZSg4OC41MTg1MTg1MTg1MTg1MiA0Ny44MTk0NDQ0NDQ0NDQ0NCkiIHhsaW5rOmhyZWY9IiNhTyIvPjwvZz48cGF0aCBmaWxsPSJub25lIiBzdHJva2U9IiMzYTQxNGEiIGQ9Ik0yNDAuNSAyMTc0aDQuOTdtNC45NyAwaDkuOTVtNC45NiAwaDkuOTRtNC45NyAwaDkuOTVtNC45NyAwaDkuOTNtNC45NyAwaDkuOTVtNC45NyAwaDkuOTRtNC45OCAwaDkuOTRtNC45NyAwaDkuOTRtNC45NiAwaDkuOTVtNC45OCAwaDkuOTRtNC45OCAwaDkuOTRtNC45NyAwaDkuOTVtNC45OCAwaDkuOTRtNC45NyAwaDkuOTRtNC45OCAwaDkuOTRtNC45NyAwaDkuOTRtNSAwaDkuOTNtNC45NyAwaDkuOTVtNC45NyAwaDkuOTRtNC45NyAwaDkuOTRtNC45OCAwaDkuOTRtNC45NiAwaDkuOTVtNC45OCAwaDkuOTRtNC45NyAwaDkuOTRtNC45NyAwaDkuOTVtNC45NyAwaDkuOTVtNC45NyAwaDkuOTRtNC45NyAwaDkuOTVtNC45NyAwSDY3OG00Ljk4IDBoOS45NW00Ljk3IDBoOS45NG00Ljk3IDBoOS45Nm00Ljk3IDBoOS45NG00Ljk3IDBoNC45OE0yNDAuNSAyMTc0aC0uNSIvPjxwYXRoIGZpbGw9IiMzYTQxNGEiIHN0cm9rZT0iIzNhNDE0YSIgZD0iTTc2Mi4zOCAyMTc0bC0xNC4yNiA0LjY0di05LjI4eiIvPjxwYXRoIGZpbGw9Im5vbmUiIHN0cm9rZT0iIzNhNDE0YSIgZD0iTTc2My41IDIyMjBoNDk3LjEyTTc2My41IDIyMjBoLS41Ii8+PHBhdGggZmlsbD0iIzNhNDE0YSIgc3Ryb2tlPSIjM2E0MTRhIiBkPSJNMTI3NS4zOCAyMjIwbC0xNC4yNiA0LjY0di05LjI4eiIvPjxwYXRoIGZpbGwtb3BhY2l0eT0iMCIgZmlsbD0iI2ZmZiIgc3Ryb2tlLW9wYWNpdHk9IjAiIHN0cm9rZT0iIzAwMCIgZD0iTTg0MCAyMTU5YTYgNiAwIDAgMSA2LTZoMzQ4YTYgNiAwIDAgMSA2IDZ2NzhhNiA2IDAgMCAxLTYgNkg4NDZhNiA2IDAgMCAxLTYtNnoiLz48Zz48dXNlIHRyYW5zZm9ybT0ibWF0cml4KDEsMCwwLDEsODQ1LDIxNTgpIHRyYW5zbGF0ZSgyMy43MDA2MTcyODM5NTA2MzUgMzQuOTQ0NDQ0NDQ0NDQ0NDQpIiB4bGluazpocmVmPSIjYVAiLz48dXNlIHRyYW5zZm9ybT0ibWF0cml4KDEsMCwwLDEsODQ1LDIxNTgpIHRyYW5zbGF0ZSg3OC4xMDE4NTE4NTE4NTE4NiAzNC45NDQ0NDQ0NDQ0NDQ0NCkiIHhsaW5rOmhyZWY9IiNhUSIvPjx1c2UgdHJhbnNmb3JtPSJtYXRyaXgoMSwwLDAsMSw4NDUsMjE1OCkgdHJhbnNsYXRlKDE2Ni4xMjAzNzAzNzAzNzAzOCAzNC45NDQ0NDQ0NDQ0NDQ0NCkiIHhsaW5rOmhyZWY9IiNhUiIvPjx1c2UgdHJhbnNmb3JtPSJtYXRyaXgoMSwwLDAsMSw4NDUsMjE1OCkgdHJhbnNsYXRlKDIzNi45NDEzNTgwMjQ2OTEzNCAzNC45NDQ0NDQ0NDQ0NDQ0NCkiIHhsaW5rOmhyZWY9IiNhciIvPjx1c2UgdHJhbnNmb3JtPSJtYXRyaXgoMSwwLDAsMSw4NDUsMjE1OCkgdHJhbnNsYXRlKDI2OC44MzAyNDY5MTM1ODAyNSAzNC45NDQ0NDQ0NDQ0NDQ0NCkiIHhsaW5rOmhyZWY9IiNCIi8+PHVzZSB0cmFuc2Zvcm09Im1hdHJpeCgxLDAsMCwxLDg0NSwyMTU4KSB0cmFuc2xhdGUoMzE3LjIyNTMwODY0MTk3NTMgMzQuOTQ0NDQ0NDQ0NDQ0NDQpIiB4bGluazpocmVmPSIjYVMiLz48dXNlIHRyYW5zZm9ybT0ibWF0cml4KDEsMCwwLDEsODQ1LDIxNTgpIHRyYW5zbGF0ZSgxNTEuMzIwOTg3NjU0MzIxIDUzLjYxMTExMTExMTExMTExKSIgeGxpbms6aHJlZj0iI2FUIi8+PC9nPjxwYXRoIGZpbGw9Im5vbmUiIHN0cm9rZT0iIzNhNDE0YSIgZD0iTTc2My41IDIyODYuNDJIMjU2LjM4TTc2My41IDIyODYuNDJoLjUiLz48cGF0aCBmaWxsPSIjM2E0MTRhIiBzdHJva2U9IiMzYTQxNGEiIGQ9Ik0yNDEuNjIgMjI4Ni40MmwxNC4yNi00LjYzdjkuMjZ6Ii8+PHBhdGggZmlsbC1vcGFjaXR5PSIwIiBmaWxsPSIjZmZmIiBzdHJva2Utb3BhY2l0eT0iMCIgc3Ryb2tlPSIjMDAwIiBkPSJNMzYwIDIyNDlhNiA2IDAgMCAxIDYtNmgyMjhhNiA2IDAgMCAxIDYgNnY0OGE2IDYgMCAwIDEtNiA2SDM2NmE2IDYgMCAwIDEtNi02eiIvPjxnPjx1c2UgdHJhbnNmb3JtPSJtYXRyaXgoMSwwLDAsMSwzNjUsMjI0OCkgdHJhbnNsYXRlKDgxLjE3MjgzOTUwNjE3MjgzIDMwLjI3Nzc3Nzc3Nzc3Nzc4KSIgeGxpbms6aHJlZj0iI2FVIi8+PC9nPjxkZWZzPjxwYXRoIGlkPSJhViIgZD0iTTIwNSAwbC0yOC03Mkg2NEwzNiAwSDFsMTAxLTI0OGgzOEwyMzkgMGgtMzR6bS0zOC05OWwtNDctMTIzYy0xMiA0NS0zMSA4Mi00NiAxMjNoOTMiIGZpbGw9IiMzYTQxNGEiLz48cGF0aCBpZD0iYVciIGQ9Ik0yNCAwdi0yNjFoMzJWMEgyNCIgZmlsbD0iIzNhNDE0YSIvPjxwYXRoIGlkPSJhWCIgZD0iTTU5LTQ3Yy0yIDI0IDE4IDI5IDM4IDIydjI0QzY0IDkgMjcgNCAyNy00MHYtMTI3SDV2LTIzaDI0bDktNDNoMjF2NDNoMzV2MjNINTl2MTIwIiBmaWxsPSIjM2E0MTRhIi8+PHBhdGggaWQ9ImFZIiBkPSJNMTAwLTE5NGM2MyAwIDg2IDQyIDg0IDEwNkg0OWMwIDQwIDE0IDY3IDUzIDY4IDI2IDEgNDMtMTIgNDktMjlsMjggOGMtMTEgMjgtMzcgNDUtNzcgNDVDNDQgNCAxNC0zMyAxNS05NmMxLTYxIDI2LTk4IDg1LTk4em01MiA4MWM2LTYwLTc2LTc3LTk3LTI4LTMgNy02IDE3LTYgMjhoMTAzIiBmaWxsPSIjM2E0MTRhIi8+PHBhdGggaWQ9ImFaIiBkPSJNMTE0LTE2M0MzNi0xNzkgNjEtNzIgNTcgMEgyNWwtMS0xOTBoMzBjMSAxMi0xIDI5IDIgMzkgNi0yNyAyMy00OSA1OC00MXYyOSIgZmlsbD0iIzNhNDE0YSIvPjxwYXRoIGlkPSJiYSIgZD0iTTExNy0xOTRjODktNCA1MyAxMTYgNjAgMTk0aC0zMnYtMTIxYzAtMzEtOC00OS0zOS00OEMzNC0xNjcgNjItNjcgNTcgMEgyNWwtMS0xOTBoMzBjMSAxMC0xIDI0IDIgMzIgMTEtMjIgMjktMzUgNjEtMzYiIGZpbGw9IiMzYTQxNGEiLz48cGF0aCBpZD0iYmIiIGQ9Ik0xNDEtMzZDMTI2LTE1IDExMCA1IDczIDQgMzcgMyAxNS0xNyAxNS01M2MtMS02NCA2My02MyAxMjUtNjMgMy0zNS05LTU0LTQxLTU0LTI0IDEtNDEgNy00MiAzMWwtMzMtM2M1LTM3IDMzLTUyIDc2LTUyIDQ1IDAgNzIgMjAgNzIgNjR2ODJjLTEgMjAgNyAzMiAyOCAyN3YyMGMtMzEgOS02MS0yLTU5LTM1ek00OC01M2MwIDIwIDEyIDMzIDMyIDMzIDQxLTMgNjMtMjkgNjAtNzQtNDMgMi05Mi01LTkyIDQxIiBmaWxsPSIjM2E0MTRhIi8+PHBhdGggaWQ9ImJjIiBkPSJNMjQtMjMxdi0zMGgzMnYzMEgyNHpNMjQgMHYtMTkwaDMyVjBIMjQiIGZpbGw9IiMzYTQxNGEiLz48cGF0aCBpZD0iYmQiIGQ9Ik0xMDggMEg3MEwxLTE5MGgzNEw4OS0yNWw1Ni0xNjVoMzQiIGZpbGw9IiMzYTQxNGEiLz48ZyBpZD0iYSI+PHVzZSB4bGluazpocmVmPSIjYVYiIHRyYW5zZm9ybT0ibWF0cml4KDAuMDYxNzI4Mzk1MDYxNzI4MzksMCwwLDAuMDYxNzI4Mzk1MDYxNzI4MzksMCwwKSIvPjx1c2UgeGxpbms6aHJlZj0iI2FXIiB0cmFuc2Zvcm09Im1hdHJpeCgwLjA2MTcyODM5NTA2MTcyODM5LDAsMCwwLjA2MTcyODM5NTA2MTcyODM5LDE0LjgxNDgxNDgxNDgxNDgxMywwKSIvPjx1c2UgeGxpbms6aHJlZj0iI2FYIiB0cmFuc2Zvcm09Im1hdHJpeCgwLjA2MTcyODM5NTA2MTcyODM5LDAsMCwwLjA2MTcyODM5NTA2MTcyODM5LDE5LjY5MTM1ODAyNDY5MTM1NCwwKSIvPjx1c2UgeGxpbms6aHJlZj0iI2FZIiB0cmFuc2Zvcm09Im1hdHJpeCgwLjA2MTcyODM5NTA2MTcyODM5LDAsMCwwLjA2MTcyODM5NTA2MTcyODM5LDI1Ljg2NDE5NzUzMDg2NDE5MiwwKSIvPjx1c2UgeGxpbms6aHJlZj0iI2FaIiB0cmFuc2Zvcm09Im1hdHJpeCgwLjA2MTcyODM5NTA2MTcyODM5LDAsMCwwLjA2MTcyODM5NTA2MTcyODM5LDM4LjIwOTg3NjU0MzIwOTg3LDApIi8+PHVzZSB4bGluazpocmVmPSIjYmEiIHRyYW5zZm9ybT0ibWF0cml4KDAuMDYxNzI4Mzk1MDYxNzI4MzksMCwwLDAuMDYxNzI4Mzk1MDYxNzI4MzksNDUuNTU1NTU1NTU1NTU1NTUsMCkiLz48dXNlIHhsaW5rOmhyZWY9IiNiYiIgdHJhbnNmb3JtPSJtYXRyaXgoMC4wNjE3MjgzOTUwNjE3MjgzOSwwLDAsMC4wNjE3MjgzOTUwNjE3MjgzOSw1Ny45MDEyMzQ1Njc5MDEyMywwKSIvPjx1c2UgeGxpbms6aHJlZj0iI2FYIiB0cmFuc2Zvcm09Im1hdHJpeCgwLjA2MTcyODM5NTA2MTcyODM5LDAsMCwwLjA2MTcyODM5NTA2MTcyODM5LDcwLjI0NjkxMzU4MDI0NjkxLDApIi8+PHVzZSB4bGluazpocmVmPSIjYmMiIHRyYW5zZm9ybT0ibWF0cml4KDAuMDYxNzI4Mzk1MDYxNzI4MzksMCwwLDAuMDYxNzI4Mzk1MDYxNzI4MzksNzYuNDE5NzUzMDg2NDE5NzUsMCkiLz48dXNlIHhsaW5rOmhyZWY9IiNiZCIgdHJhbnNmb3JtPSJtYXRyaXgoMC4wNjE3MjgzOTUwNjE3MjgzOSwwLDAsMC4wNjE3MjgzOTUwNjE3MjgzOSw4MS4yOTYyOTYyOTYyOTYyOSwwKSIvPjx1c2UgeGxpbms6aHJlZj0iI2FZIiB0cmFuc2Zvcm09Im1hdHJpeCgwLjA2MTcyODM5NTA2MTcyODM5LDAsMCwwLjA2MTcyODM5NTA2MTcyODM5LDkyLjQwNzQwNzQwNzQwNzQsMCkiLz48L2c+PHBhdGggaWQ9ImJlIiBkPSJNMjYgNzV2LTMzNmg3MXYyM0g1NlY1Mmg0MXYyM0gyNiIgZmlsbD0iIzNhNDE0YSIvPjxwYXRoIGlkPSJiZiIgZD0iTTEwMS0yMzRjLTMxLTktNDIgMTAtMzggNDRoMzh2MjNINjNWMEgzMnYtMTY3SDV2LTIzaDI3Yy03LTUyIDE3LTgyIDY5LTY4djI0IiBmaWxsPSIjM2E0MTRhIi8+PGcgaWQ9ImIiPjx1c2UgeGxpbms6aHJlZj0iI2JlIiB0cmFuc2Zvcm09Im1hdHJpeCgwLjA0OTM4MjcxNjA0OTM4MjcwNiwwLDAsMC4wNDkzODI3MTYwNDkzODI3MDYsMCwwKSIvPjx1c2UgeGxpbms6aHJlZj0iI2JjIiB0cmFuc2Zvcm09Im1hdHJpeCgwLjA0OTM4MjcxNjA0OTM4MjcwNiwwLDAsMC4wNDkzODI3MTYwNDkzODI3MDYsNC45MzgyNzE2MDQ5MzgyNywwKSIvPjx1c2UgeGxpbms6aHJlZj0iI2JmIiB0cmFuc2Zvcm09Im1hdHJpeCgwLjA0OTM4MjcxNjA0OTM4MjcwNiwwLDAsMC4wNDkzODI3MTYwNDkzODI3MDYsOC44Mzk1MDYxNzI4Mzk1MDUsMCkiLz48L2c+PHBhdGggaWQ9ImJnIiBkPSJNOTYtMTY5Yy00MCAwLTQ4IDMzLTQ4IDczczkgNzUgNDggNzVjMjQgMCA0MS0xNCA0My0zOGwzMiAyYy02IDM3LTMxIDYxLTc0IDYxLTU5IDAtNzYtNDEtODItOTktMTAtOTMgMTAxLTEzMSAxNDctNjQgNCA3IDUgMTQgNyAyMmwtMzIgM2MtNC0yMS0xNi0zNS00MS0zNSIgZmlsbD0iIzNhNDE0YSIvPjxwYXRoIGlkPSJiaCIgZD0iTTEwMC0xOTRjNjItMSA4NSAzNyA4NSA5OSAxIDYzLTI3IDk5LTg2IDk5UzE2LTM1IDE1LTk1YzAtNjYgMjgtOTkgODUtOTl6TTk5LTIwYzQ0IDEgNTMtMzEgNTMtNzUgMC00My04LTc1LTUxLTc1cy01MyAzMi01MyA3NSAxMCA3NCA1MSA3NSIgZmlsbD0iIzNhNDE0YSIvPjxwYXRoIGlkPSJiaSIgZD0iTTg1LTE5NGMzMSAwIDQ4IDEzIDYwIDMzbC0xLTEwMGgzMmwxIDI2MWgtMzBjLTItMTAgMC0yMy0zLTMxQzEzNC04IDExNiA0IDg1IDQgMzIgNCAxNi0zNSAxNS05NGMwLTY2IDIzLTEwMCA3MC0xMDB6bTkgMjRjLTQwIDAtNDYgMzQtNDYgNzUgMCA0MCA2IDc0IDQ1IDc0IDQyIDAgNTEtMzIgNTEtNzYgMC00Mi05LTc0LTUwLTczIiBmaWxsPSIjM2E0MTRhIi8+PGcgaWQ9ImMiPjx1c2UgeGxpbms6aHJlZj0iI2FaIiB0cmFuc2Zvcm09Im1hdHJpeCgwLjA0OTM4MjcxNjA0OTM4MjcwNiwwLDAsMC4wNDkzODI3MTYwNDkzODI3MDYsMCwwKSIvPjx1c2UgeGxpbms6aHJlZj0iI2FZIiB0cmFuc2Zvcm09Im1hdHJpeCgwLjA0OTM4MjcxNjA0OTM4MjcwNiwwLDAsMC4wNDkzODI3MTYwNDkzODI3MDYsNS44NzY1NDMyMDk4NzY1NDIsMCkiLz48dXNlIHhsaW5rOmhyZWY9IiNiZyIgdHJhbnNmb3JtPSJtYXRyaXgoMC4wNDkzODI3MTYwNDkzODI3MDYsMCwwLDAuMDQ5MzgyNzE2MDQ5MzgyNzA2LDE1Ljc1MzA4NjQxOTc1MzA4LDApIi8+PHVzZSB4bGluazpocmVmPSIjYmgiIHRyYW5zZm9ybT0ibWF0cml4KDAuMDQ5MzgyNzE2MDQ5MzgyNzA2LDAsMCwwLjA0OTM4MjcxNjA0OTM4MjcwNiwyNC42NDE5NzUzMDg2NDE5NjgsMCkiLz48dXNlIHhsaW5rOmhyZWY9IiNhWiIgdHJhbnNmb3JtPSJtYXRyaXgoMC4wNDkzODI3MTYwNDkzODI3MDYsMCwwLDAuMDQ5MzgyNzE2MDQ5MzgyNzA2LDM0LjUxODUxODUxODUxODUwNSwwKSIvPjx1c2UgeGxpbms6aHJlZj0iI2JpIiB0cmFuc2Zvcm09Im1hdHJpeCgwLjA0OTM4MjcxNjA0OTM4MjcwNiwwLDAsMC4wNDkzODI3MTYwNDkzODI3MDYsNDAuMzk1MDYxNzI4Mzk1MDUsMCkiLz48L2c+PHBhdGggaWQ9ImJqIiBkPSJNMTQxIDBMOTAtNzggMzggMEg0bDY4LTk4LTY1LTkyaDM1bDQ4IDc0IDQ3LTc0aDM1bC02NCA5MiA2OCA5OGgtMzUiIGZpbGw9IiMzYTQxNGEiLz48cGF0aCBpZD0iYmsiIGQ9Ik0xMzUtMTQzYy0zLTM0LTg2LTM4LTg3IDAgMTUgNTMgMTE1IDEyIDExOSA5MFMxNyAyMSAxMC00NWwyOC01YzQgMzYgOTcgNDUgOTggMC0xMC01Ni0xMTMtMTUtMTE4LTkwLTQtNTcgODItNjMgMTIyLTQyIDEyIDcgMjEgMTkgMjQgMzUiIGZpbGw9IiMzYTQxNGEiLz48ZyBpZD0iZCI+PHVzZSB4bGluazpocmVmPSIjYVkiIHRyYW5zZm9ybT0ibWF0cml4KDAuMDQ5MzgyNzE2MDQ5MzgyNzA2LDAsMCwwLjA0OTM4MjcxNjA0OTM4MjcwNiwwLDApIi8+PHVzZSB4bGluazpocmVmPSIjYmoiIHRyYW5zZm9ybT0ibWF0cml4KDAuMDQ5MzgyNzE2MDQ5MzgyNzA2LDAsMCwwLjA0OTM4MjcxNjA0OTM4MjcwNiw5Ljg3NjU0MzIwOTg3NjU0LDApIi8+PHVzZSB4bGluazpocmVmPSIjYmMiIHRyYW5zZm9ybT0ibWF0cml4KDAuMDQ5MzgyNzE2MDQ5MzgyNzA2LDAsMCwwLjA0OTM4MjcxNjA0OTM4MjcwNiwxOC43NjU0MzIwOTg3NjU0MywwKSIvPjx1c2UgeGxpbms6aHJlZj0iI2JrIiB0cmFuc2Zvcm09Im1hdHJpeCgwLjA0OTM4MjcxNjA0OTM4MjcwNiwwLDAsMC4wNDkzODI3MTYwNDkzODI3MDYsMjIuNjY2NjY2NjY2NjY2NjY0LDApIi8+PHVzZSB4bGluazpocmVmPSIjYVgiIHRyYW5zZm9ybT0ibWF0cml4KDAuMDQ5MzgyNzE2MDQ5MzgyNzA2LDAsMCwwLjA0OTM4MjcxNjA0OTM4MjcwNiwzMS41NTU1NTU1NTU1NTU1NSwwKSIvPjx1c2UgeGxpbms6aHJlZj0iI2JrIiB0cmFuc2Zvcm09Im1hdHJpeCgwLjA0OTM4MjcxNjA0OTM4MjcwNiwwLDAsMC4wNDkzODI3MTYwNDkzODI3MDYsMzYuNDkzODI3MTYwNDkzODIsMCkiLz48L2c+PHBhdGggaWQ9ImJsIiBkPSJNMjM0LTJjLTI4IDEwLTYyIDAtNzctMThDMTE3IDE5IDggMTIgMTMtNjVjMy00MyAyOS02MSA2MC03Ni0yNS00MC0xNy0xMTQgNDctMTA4IDM1IDMgNTkgMTUgNTkgNTAgMCA0NC00MCA1My03MSA2OSAxNCAyNiAzMiA1MCA1MSA3MiAxNC0yMSAyNC00MyAzMC03MmwyNiA4Yy05IDMzLTIxIDU3LTM4IDgyIDEzIDEzIDMzIDIyIDU3IDE1djIzek05Ny0xNTFjMjUtMTAgNTItMTggNTYtNDgtMS0xOC0xMy0yOS0zMy0yOS00MiAwLTM5IDUwLTIzIDc3ek00Mi02NmMtMyA1MSA3MSA1OCA5OCAyOC0yMC0yNC00MS01MS01Ni04MC0yMyAxMC00MCAyNC00MiA1MiIgZmlsbD0iIzNhNDE0YSIvPjx1c2UgaWQ9ImUiIHhsaW5rOmhyZWY9IiNibCIgdHJhbnNmb3JtPSJtYXRyaXgoMC4wNDkzODI3MTYwNDkzODI3MDYsMCwwLDAuMDQ5MzgyNzE2MDQ5MzgyNzA2LDAsMCkiLz48cGF0aCBpZD0iYm0iIGQ9Ik04NCA0Qy01IDggMzAtMTEyIDIzLTE5MGgzMnYxMjBjMCAzMSA3IDUwIDM5IDQ5IDcyLTIgNDUtMTAxIDUwLTE2OWgzMWwxIDE5MGgtMzBjLTEtMTAgMS0yNS0yLTMzLTExIDIyLTI4IDM2LTYwIDM3IiBmaWxsPSIjM2E0MTRhIi8+PGcgaWQ9ImYiPjx1c2UgeGxpbms6aHJlZj0iI2JrIiB0cmFuc2Zvcm09Im1hdHJpeCgwLjA0OTM4MjcxNjA0OTM4MjcwNiwwLDAsMC4wNDkzODI3MTYwNDkzODI3MDYsMCwwKSIvPjx1c2UgeGxpbms6aHJlZj0iI2FYIiB0cmFuc2Zvcm09Im1hdHJpeCgwLjA0OTM4MjcxNjA0OTM4MjcwNiwwLDAsMC4wNDkzODI3MTYwNDkzODI3MDYsOC44ODg4ODg4ODg4ODg4ODgsMCkiLz48dXNlIHhsaW5rOmhyZWY9IiNiYiIgdHJhbnNmb3JtPSJtYXRyaXgoMC4wNDkzODI3MTYwNDkzODI3MDYsMCwwLDAuMDQ5MzgyNzE2MDQ5MzgyNzA2LDEzLjgyNzE2MDQ5MzgyNzE1OCwwKSIvPjx1c2UgeGxpbms6aHJlZj0iI2JtIiB0cmFuc2Zvcm09Im1hdHJpeCgwLjA0OTM4MjcxNjA0OTM4MjcwNiwwLDAsMC4wNDkzODI3MTYwNDkzODI3MDYsMjMuNzAzNzAzNzAzNzAzNywwKSIvPjx1c2UgeGxpbms6aHJlZj0iI2JrIiB0cmFuc2Zvcm09Im1hdHJpeCgwLjA0OTM4MjcxNjA0OTM4MjcwNiwwLDAsMC4wNDkzODI3MTYwNDkzODI3MDYsMzMuNTgwMjQ2OTEzNTgwMjQsMCkiLz48L2c+PHBhdGggaWQ9ImJuIiBkPSJNMTgtMTUwdi0yNmgxNzR2MjZIMTh6bTAgOTB2LTI2aDE3NHYyNkgxOCIgZmlsbD0iIzNhNDE0YSIvPjx1c2UgaWQ9ImciIHhsaW5rOmhyZWY9IiNibiIgdHJhbnNmb3JtPSJtYXRyaXgoMC4wNDkzODI3MTYwNDkzODI3MDYsMCwwLDAuMDQ5MzgyNzE2MDQ5MzgyNzA2LDAsMCkiLz48cGF0aCBpZD0iYm8iIGQ9Ik0xODUtMTg5Yy01LTQ4LTEyMy01NC0xMjQgMiAxNCA3NSAxNTggMTQgMTYzIDExOSAzIDc4LTEyMSA4Ny0xNzUgNTUtMTctMTAtMjgtMjYtMzMtNDZsMzMtN2M1IDU2IDE0MSA2MyAxNDEtMSAwLTc4LTE1NS0xNC0xNjItMTE4LTUtODIgMTQ1LTg0IDE3OS0zNCA1IDcgOCAxNiAxMSAyNSIgZmlsbD0iIzNhNDE0YSIvPjxnIGlkPSJoIj48dXNlIHhsaW5rOmhyZWY9IiNibyIgdHJhbnNmb3JtPSJtYXRyaXgoMC4wNDkzODI3MTYwNDkzODI3MDYsMCwwLDAuMDQ5MzgyNzE2MDQ5MzgyNzA2LDAsMCkiLz48dXNlIHhsaW5rOmhyZWY9IiNibSIgdHJhbnNmb3JtPSJtYXRyaXgoMC4wNDkzODI3MTYwNDkzODI3MDYsMCwwLDAuMDQ5MzgyNzE2MDQ5MzgyNzA2LDExLjg1MTg1MTg1MTg1MTg1LDApIi8+PHVzZSB4bGluazpocmVmPSIjYmciIHRyYW5zZm9ybT0ibWF0cml4KDAuMDQ5MzgyNzE2MDQ5MzgyNzA2LDAsMCwwLjA0OTM4MjcxNjA0OTM4MjcwNiwyMS43MjgzOTUwNjE3MjgzOTIsMCkiLz48dXNlIHhsaW5rOmhyZWY9IiNiZyIgdHJhbnNmb3JtPSJtYXRyaXgoMC4wNDkzODI3MTYwNDkzODI3MDYsMCwwLDAuMDQ5MzgyNzE2MDQ5MzgyNzA2LDMwLjYxNzI4Mzk1MDYxNzI3OCwwKSIvPjx1c2UgeGxpbms6aHJlZj0iI2FZIiB0cmFuc2Zvcm09Im1hdHJpeCgwLjA0OTM4MjcxNjA0OTM4MjcwNiwwLDAsMC4wNDkzODI3MTYwNDkzODI3MDYsMzkuNTA2MTcyODM5NTA2MTYsMCkiLz48dXNlIHhsaW5rOmhyZWY9IiNiayIgdHJhbnNmb3JtPSJtYXRyaXgoMC4wNDkzODI3MTYwNDkzODI3MDYsMCwwLDAuMDQ5MzgyNzE2MDQ5MzgyNzA2LDQ5LjM4MjcxNjA0OTM4MjcxLDApIi8+PHVzZSB4bGluazpocmVmPSIjYmsiIHRyYW5zZm9ybT0ibWF0cml4KDAuMDQ5MzgyNzE2MDQ5MzgyNzA2LDAsMCwwLjA0OTM4MjcxNjA0OTM4MjcwNiw1OC4yNzE2MDQ5MzgyNzE1OTQsMCkiLz48L2c+PHBhdGggaWQ9ImJwIiBkPSJNMyA3NVY1Mmg0MXYtMjkwSDN2LTIzaDcxVjc1SDMiIGZpbGw9IiMzYTQxNGEiLz48dXNlIGlkPSJpIiB4bGluazpocmVmPSIjYnAiIHRyYW5zZm9ybT0ibWF0cml4KDAuMDQ5MzgyNzE2MDQ5MzgyNzA2LDAsMCwwLjA0OTM4MjcxNjA0OTM4MjcwNiwwLDApIi8+PHBhdGggaWQ9ImJxIiBkPSJNMzAgMHYtMjQ4aDE4N3YyOEg2M3Y3OWgxNDR2MjdINjN2ODdoMTYyVjBIMzAiIGZpbGw9IiMzYTQxNGEiLz48ZyBpZD0iaiI+PHVzZSB4bGluazpocmVmPSIjYmUiIHRyYW5zZm9ybT0ibWF0cml4KDAuMDYxNzI4Mzk1MDYxNzI4MzksMCwwLDAuMDYxNzI4Mzk1MDYxNzI4MzksMCwwKSIvPjx1c2UgeGxpbms6aHJlZj0iI2JxIiB0cmFuc2Zvcm09Im1hdHJpeCgwLjA2MTcyODM5NTA2MTcyODM5LDAsMCwwLjA2MTcyODM5NTA2MTcyODM5LDYuMTcyODM5NTA2MTcyODM5LDApIi8+PHVzZSB4bGluazpocmVmPSIjYVciIHRyYW5zZm9ybT0ibWF0cml4KDAuMDYxNzI4Mzk1MDYxNzI4MzksMCwwLDAuMDYxNzI4Mzk1MDYxNzI4MzksMjAuOTg3NjU0MzIwOTg3NjUsMCkiLz48dXNlIHhsaW5rOmhyZWY9IiNiayIgdHJhbnNmb3JtPSJtYXRyaXgoMC4wNjE3MjgzOTUwNjE3MjgzOSwwLDAsMC4wNjE3MjgzOTUwNjE3MjgzOSwyNS44NjQxOTc1MzA4NjQxOTYsMCkiLz48dXNlIHhsaW5rOmhyZWY9IiNhWSIgdHJhbnNmb3JtPSJtYXRyaXgoMC4wNjE3MjgzOTUwNjE3MjgzOSwwLDAsMC4wNjE3MjgzOTUwNjE3MjgzOSwzNi45NzUzMDg2NDE5NzUzLDApIi8+PHVzZSB4bGluazpocmVmPSIjYnAiIHRyYW5zZm9ybT0ibWF0cml4KDAuMDYxNzI4Mzk1MDYxNzI4MzksMCwwLDAuMDYxNzI4Mzk1MDYxNzI4MzksNDkuMzIwOTg3NjU0MzIwOTgsMCkiLz48L2c+PHBhdGggaWQ9ImJyIiBkPSJNMzMgMHYtMjQ4aDM0VjBIMzMiIGZpbGw9IiMzYTQxNGEiLz48cGF0aCBpZD0iYnMiIGQ9Ik02My0yMjB2OTJoMTM4djI4SDYzVjBIMzB2LTI0OGgxNzV2MjhINjMiIGZpbGw9IiMzYTQxNGEiLz48ZyBpZD0iayI+PHVzZSB4bGluazpocmVmPSIjYmUiIHRyYW5zZm9ybT0ibWF0cml4KDAuMDQzMjA5ODc2NTQzMjA5ODcsMCwwLDAuMDQzMjA5ODc2NTQzMjA5ODcsMCwwKSIvPjx1c2UgeGxpbms6aHJlZj0iI2JyIiB0cmFuc2Zvcm09Im1hdHJpeCgwLjA0MzIwOTg3NjU0MzIwOTg3LDAsMCwwLjA0MzIwOTg3NjU0MzIwOTg3LDQuMzIwOTg3NjU0MzIwOTg2LDApIi8+PHVzZSB4bGluazpocmVmPSIjYnMiIHRyYW5zZm9ybT0ibWF0cml4KDAuMDQzMjA5ODc2NTQzMjA5ODcsMCwwLDAuMDQzMjA5ODc2NTQzMjA5ODcsOC42NDE5NzUzMDg2NDE5NzMsMCkiLz48L2c+PGcgaWQ9ImwiPjx1c2UgeGxpbms6aHJlZj0iI2JxIiB0cmFuc2Zvcm09Im1hdHJpeCgwLjA0MzIwOTg3NjU0MzIwOTg3LDAsMCwwLjA0MzIwOTg3NjU0MzIwOTg3LDAsMCkiLz48dXNlIHhsaW5rOmhyZWY9IiNiaiIgdHJhbnNmb3JtPSJtYXRyaXgoMC4wNDMyMDk4NzY1NDMyMDk4NywwLDAsMC4wNDMyMDk4NzY1NDMyMDk4NywxMC4zNzAzNzAzNzAzNzAzNjgsMCkiLz48dXNlIHhsaW5rOmhyZWY9IiNiYyIgdHJhbnNmb3JtPSJtYXRyaXgoMC4wNDMyMDk4NzY1NDMyMDk4NywwLDAsMC4wNDMyMDk4NzY1NDMyMDk4NywxOC4xNDgxNDgxNDgxNDgxNDUsMCkiLz48dXNlIHhsaW5rOmhyZWY9IiNiayIgdHJhbnNmb3JtPSJtYXRyaXgoMC4wNDMyMDk4NzY1NDMyMDk4NywwLDAsMC4wNDMyMDk4NzY1NDMyMDk4NywyMS41NjE3MjgzOTUwNjE3MjQsMCkiLz48dXNlIHhsaW5rOmhyZWY9IiNhWCIgdHJhbnNmb3JtPSJtYXRyaXgoMC4wNDMyMDk4NzY1NDMyMDk4NywwLDAsMC4wNDMyMDk4NzY1NDMyMDk4NywyOS4zMzk1MDYxNzI4Mzk1LDApIi8+PHVzZSB4bGluazpocmVmPSIjYmsiIHRyYW5zZm9ybT0ibWF0cml4KDAuMDQzMjA5ODc2NTQzMjA5ODcsMCwwLDAuMDQzMjA5ODc2NTQzMjA5ODcsMzMuNjYwNDkzODI3MTYwNDksMCkiLz48L2c+PHVzZSBpZD0ibSIgeGxpbms6aHJlZj0iI2JsIiB0cmFuc2Zvcm09Im1hdHJpeCgwLjA0MzIwOTg3NjU0MzIwOTg3LDAsMCwwLjA0MzIwOTg3NjU0MzIwOTg3LDAsMCkiLz48cGF0aCBpZD0iYnQiIGQ9Ik0xMjctMjIwVjBIOTN2LTIyMEg4di0yOGgyMDR2MjhoLTg1IiBmaWxsPSIjM2E0MTRhIi8+PHBhdGggaWQ9ImJ1IiBkPSJNMjMzLTE3N2MtMSA0MS0yMyA2NC02MCA3MEwyNDMgMGgtMzhsLTY1LTEwM0g2M1YwSDMwdi0yNDhjODggMyAyMDUtMjEgMjAzIDcxek02My0xMjljNjAtMiAxMzcgMTMgMTM3LTQ3IDAtNjEtODAtNDItMTM3LTQ1djkyIiBmaWxsPSIjM2E0MTRhIi8+PHBhdGggaWQ9ImJ2IiBkPSJNMTkwIDBMNTgtMjExIDU5IDBIMzB2LTI0OGgzOUwyMDItMzVsLTItMjEzaDMxVjBoLTQxIiBmaWxsPSIjM2E0MTRhIi8+PHBhdGggaWQ9ImJ3IiBkPSJNMjEyLTE3OWMtMTAtMjgtMzUtNDUtNzMtNDUtNTkgMC04NyA0MC04NyA5OSAwIDYwIDI5IDEwMSA4OSAxMDEgNDMgMCA2Mi0yNCA3OC01MmwyNyAxNEMyMjgtMjQgMTk1IDQgMTM5IDQgNTkgNCAyMi00NiAxOC0xMjVjLTYtMTA0IDk5LTE1MyAxODctMTExIDE5IDkgMzEgMjYgMzkgNDYiIGZpbGw9IiMzYTQxNGEiLz48cGF0aCBpZD0iYngiIGQ9Ik0xNDAtMjUxYzgxIDAgMTIzIDQ2IDEyMyAxMjZDMjYzLTQ2IDIxOSA0IDE0MCA0IDU5IDQgMTctNDUgMTctMTI1czQyLTEyNiAxMjMtMTI2em0wIDIyN2M2MyAwIDg5LTQxIDg5LTEwMXMtMjktOTktODktOTljLTYxIDAtODkgMzktODkgOTlTNzktMjUgMTQwLTI0IiBmaWxsPSIjM2E0MTRhIi8+PHBhdGggaWQ9ImJ5IiBkPSJNLTUgNzJWNDloMjA5djIzSC01IiBmaWxsPSIjM2E0MTRhIi8+PHBhdGggaWQ9ImJ6IiBkPSJNMTM3LTEwM1YwaC0zNHYtMTAzTDgtMjQ4aDM3bDc1IDExOCA3NS0xMThoMzciIGZpbGw9IiMzYTQxNGEiLz48cGF0aCBpZD0iYkEiIGQ9Ik0zMC0yNDhjODcgMSAxOTEtMTUgMTkxIDc1IDAgNzgtNzcgODAtMTU4IDc2VjBIMzB2LTI0OHptMzMgMTI1YzU3IDAgMTI0IDExIDEyNC01MCAwLTU5LTY4LTQ3LTEyNC00OHY5OCIgZmlsbD0iIzNhNDE0YSIvPjxnIGlkPSJuIj48dXNlIHhsaW5rOmhyZWY9IiNidCIgdHJhbnNmb3JtPSJtYXRyaXgoMC4wNDMyMDk4NzY1NDMyMDk4NywwLDAsMC4wNDMyMDk4NzY1NDMyMDk4NywwLDApIi8+PHVzZSB4bGluazpocmVmPSIjYnUiIHRyYW5zZm9ybT0ibWF0cml4KDAuMDQzMjA5ODc2NTQzMjA5ODcsMCwwLDAuMDQzMjA5ODc2NTQzMjA5ODcsOS40NjI5NjI5NjI5NjI5NiwwKSIvPjx1c2UgeGxpbms6aHJlZj0iI2FWIiB0cmFuc2Zvcm09Im1hdHJpeCgwLjA0MzIwOTg3NjU0MzIwOTg3LDAsMCwwLjA0MzIwOTg3NjU0MzIwOTg3LDIwLjY1NDMyMDk4NzY1NDMxNiwwKSIvPjx1c2UgeGxpbms6aHJlZj0iI2J2IiB0cmFuc2Zvcm09Im1hdHJpeCgwLjA0MzIwOTg3NjU0MzIwOTg3LDAsMCwwLjA0MzIwOTg3NjU0MzIwOTg3LDMxLjAyNDY5MTM1ODAyNDY4NiwwKSIvPjx1c2UgeGxpbms6aHJlZj0iI2JvIiB0cmFuc2Zvcm09Im1hdHJpeCgwLjA0MzIwOTg3NjU0MzIwOTg3LDAsMCwwLjA0MzIwOTg3NjU0MzIwOTg3LDQyLjIxNjA0OTM4MjcxNjA0LDApIi8+PHVzZSB4bGluazpocmVmPSIjYVYiIHRyYW5zZm9ybT0ibWF0cml4KDAuMDQzMjA5ODc2NTQzMjA5ODcsMCwwLDAuMDQzMjA5ODc2NTQzMjA5ODcsNTIuNTg2NDE5NzUzMDg2Mzk2LDApIi8+PHVzZSB4bGluazpocmVmPSIjYnciIHRyYW5zZm9ybT0ibWF0cml4KDAuMDQzMjA5ODc2NTQzMjA5ODcsMCwwLDAuMDQzMjA5ODc2NTQzMjA5ODcsNjIuOTU2NzkwMTIzNDU2NzcsMCkiLz48dXNlIHhsaW5rOmhyZWY9IiNidCIgdHJhbnNmb3JtPSJtYXRyaXgoMC4wNDMyMDk4NzY1NDMyMDk4NywwLDAsMC4wNDMyMDk4NzY1NDMyMDk4Nyw3NC4xNDgxNDgxNDgxNDgxMiwwKSIvPjx1c2UgeGxpbms6aHJlZj0iI2JyIiB0cmFuc2Zvcm09Im1hdHJpeCgwLjA0MzIwOTg3NjU0MzIwOTg3LDAsMCwwLjA0MzIwOTg3NjU0MzIwOTg3LDgzLjYxMTExMTExMTExMTA5LDApIi8+PHVzZSB4bGluazpocmVmPSIjYngiIHRyYW5zZm9ybT0ibWF0cml4KDAuMDQzMjA5ODc2NTQzMjA5ODcsMCwwLDAuMDQzMjA5ODc2NTQzMjA5ODcsODcuOTMyMDk4NzY1NDMyMDcsMCkiLz48dXNlIHhsaW5rOmhyZWY9IiNidiIgdHJhbnNmb3JtPSJtYXRyaXgoMC4wNDMyMDk4NzY1NDMyMDk4NywwLDAsMC4wNDMyMDk4NzY1NDMyMDk4NywxMDAuMDMwODY0MTk3NTMwODIsMCkiLz48dXNlIHhsaW5rOmhyZWY9IiNieSIgdHJhbnNmb3JtPSJtYXRyaXgoMC4wNDMyMDk4NzY1NDMyMDk4NywwLDAsMC4wNDMyMDk4NzY1NDMyMDk4NywxMTEuMjIyMjIyMjIyMjIyMTcsMCkiLz48dXNlIHhsaW5rOmhyZWY9IiNidCIgdHJhbnNmb3JtPSJtYXRyaXgoMC4wNDMyMDk4NzY1NDMyMDk4NywwLDAsMC4wNDMyMDk4NzY1NDMyMDk4NywxMTkuODY0MTk3NTMwODY0MTUsMCkiLz48dXNlIHhsaW5rOmhyZWY9IiNieiIgdHJhbnNmb3JtPSJtYXRyaXgoMC4wNDMyMDk4NzY1NDMyMDk4NywwLDAsMC4wNDMyMDk4NzY1NDMyMDk4NywxMjkuMzI3MTYwNDkzODI3MSwwKSIvPjx1c2UgeGxpbms6aHJlZj0iI2JBIiB0cmFuc2Zvcm09Im1hdHJpeCgwLjA0MzIwOTg3NjU0MzIwOTg3LDAsMCwwLjA0MzIwOTg3NjU0MzIwOTg3LDEzOS42OTc1MzA4NjQxOTc1LDApIi8+PHVzZSB4bGluazpocmVmPSIjYnEiIHRyYW5zZm9ybT0ibWF0cml4KDAuMDQzMjA5ODc2NTQzMjA5ODcsMCwwLDAuMDQzMjA5ODc2NTQzMjA5ODcsMTUwLjA2NzkwMTIzNDU2Nzg3LDApIi8+PC9nPjx1c2UgaWQ9Im8iIHhsaW5rOmhyZWY9IiNibiIgdHJhbnNmb3JtPSJtYXRyaXgoMC4wNDMyMDk4NzY1NDMyMDk4NywwLDAsMC4wNDMyMDk4NzY1NDMyMDk4NywwLDApIi8+PHBhdGggaWQ9ImJCIiBkPSJNMTA5LTE3MEg4NGwtNC03OGgzMnptLTY1IDBIMTlsLTQtNzhoMzMiIGZpbGw9IiMzYTQxNGEiLz48cGF0aCBpZD0iYkMiIGQ9Ik0zMC0yNDhjMTE4LTcgMjE2IDggMjEzIDEyMkMyNDAtNDggMjAwIDAgMTIyIDBIMzB2LTI0OHpNNjMtMjdjODkgOCAxNDYtMTYgMTQ2LTk5cy02MC0xMDEtMTQ2LTk1djE5NCIgZmlsbD0iIzNhNDE0YSIvPjxwYXRoIGlkPSJiRCIgZD0iTTE2MC0xMzFjMzUgNSA2MSAyMyA2MSA2MUMyMjEgMTcgMTE1LTIgMzAgMHYtMjQ4Yzc2IDMgMTc3LTE3IDE3NyA2MCAwIDMzLTE5IDUwLTQ3IDU3em0tOTctMTFjNTAtMSAxMTAgOSAxMTAtNDIgMC00Ny02My0zNi0xMTAtMzd2Nzl6bTAgMTE1YzU1LTIgMTI0IDE0IDEyNC00NSAwLTU2LTcwLTQyLTEyNC00NHY4OSIgZmlsbD0iIzNhNDE0YSIvPjxnIGlkPSJwIj48dXNlIHhsaW5rOmhyZWY9IiNiQiIgdHJhbnNmb3JtPSJtYXRyaXgoMC4wNDMyMDk4NzY1NDMyMDk4NywwLDAsMC4wNDMyMDk4NzY1NDMyMDk4NywwLDApIi8+PHVzZSB4bGluazpocmVmPSIjYkMiIHRyYW5zZm9ybT0ibWF0cml4KDAuMDQzMjA5ODc2NTQzMjA5ODcsMCwwLDAuMDQzMjA5ODc2NTQzMjA5ODcsNS40ODc2NTQzMjA5ODc2NTMsMCkiLz48dXNlIHhsaW5rOmhyZWY9IiNicSIgdHJhbnNmb3JtPSJtYXRyaXgoMC4wNDMyMDk4NzY1NDMyMDk4NywwLDAsMC4wNDMyMDk4NzY1NDMyMDk4NywxNi42NzkwMTIzNDU2NzkwMSwwKSIvPjx1c2UgeGxpbms6aHJlZj0iI2JEIiB0cmFuc2Zvcm09Im1hdHJpeCgwLjA0MzIwOTg3NjU0MzIwOTg3LDAsMCwwLjA0MzIwOTg3NjU0MzIwOTg3LDI3LjA0OTM4MjcxNjA0OTM4MywwKSIvPjx1c2UgeGxpbms6aHJlZj0iI2JyIiB0cmFuc2Zvcm09Im1hdHJpeCgwLjA0MzIwOTg3NjU0MzIwOTg3LDAsMCwwLjA0MzIwOTg3NjU0MzIwOTg3LDM3LjQxOTc1MzA4NjQxOTc0NiwwKSIvPjx1c2UgeGxpbms6aHJlZj0iI2J0IiB0cmFuc2Zvcm09Im1hdHJpeCgwLjA0MzIwOTg3NjU0MzIwOTg3LDAsMCwwLjA0MzIwOTg3NjU0MzIwOTg3LDQxLjc0MDc0MDc0MDc0MDczLDApIi8+PHVzZSB4bGluazpocmVmPSIjYkIiIHRyYW5zZm9ybT0ibWF0cml4KDAuMDQzMjA5ODc2NTQzMjA5ODcsMCwwLDAuMDQzMjA5ODc2NTQzMjA5ODcsNTEuMjAzNzAzNzAzNzAzNjk1LDApIi8+PHVzZSB4bGluazpocmVmPSIjYnAiIHRyYW5zZm9ybT0ibWF0cml4KDAuMDQzMjA5ODc2NTQzMjA5ODcsMCwwLDAuMDQzMjA5ODc2NTQzMjA5ODcsNTYuNjkxMzU4MDI0NjkxMzUsMCkiLz48L2c+PGcgaWQ9InEiPjx1c2UgeGxpbms6aHJlZj0iI2J3IiB0cmFuc2Zvcm09Im1hdHJpeCgwLjA0OTM4MjcxNjA0OTM4MjcwNiwwLDAsMC4wNDkzODI3MTYwNDkzODI3MDYsMCwwKSIvPjx1c2UgeGxpbms6aHJlZj0iI2FWIiB0cmFuc2Zvcm09Im1hdHJpeCgwLjA0OTM4MjcxNjA0OTM4MjcwNiwwLDAsMC4wNDkzODI3MTYwNDkzODI3MDYsMTIuNzkwMTIzNDU2NzkwMTIyLDApIi8+PHVzZSB4bGluazpocmVmPSIjYnUiIHRyYW5zZm9ybT0ibWF0cml4KDAuMDQ5MzgyNzE2MDQ5MzgyNzA2LDAsMCwwLjA0OTM4MjcxNjA0OTM4MjcwNiwyNC42NDE5NzUzMDg2NDE5NywwKSIvPjx1c2UgeGxpbms6aHJlZj0iI2JDIiB0cmFuc2Zvcm09Im1hdHJpeCgwLjA0OTM4MjcxNjA0OTM4MjcwNiwwLDAsMC4wNDkzODI3MTYwNDkzODI3MDYsMzcuNDMyMDk4NzY1NDMyMDk0LDApIi8+PC9nPjxnIGlkPSJyIj48dXNlIHhsaW5rOmhyZWY9IiNiciIgdHJhbnNmb3JtPSJtYXRyaXgoMC4wNDkzODI3MTYwNDkzODI3MDYsMCwwLDAuMDQ5MzgyNzE2MDQ5MzgyNzA2LDAsMCkiLz48dXNlIHhsaW5rOmhyZWY9IiNidiIgdHJhbnNmb3JtPSJtYXRyaXgoMC4wNDkzODI3MTYwNDkzODI3MDYsMCwwLDAuMDQ5MzgyNzE2MDQ5MzgyNzA2LDQuOTM4MjcxNjA0OTM4MjcsMCkiLz48dXNlIHhsaW5rOmhyZWY9IiNicyIgdHJhbnNmb3JtPSJtYXRyaXgoMC4wNDkzODI3MTYwNDkzODI3MDYsMCwwLDAuMDQ5MzgyNzE2MDQ5MzgyNzA2LDE3LjcyODM5NTA2MTcyODM5MiwwKSIvPjx1c2UgeGxpbms6aHJlZj0iI2J4IiB0cmFuc2Zvcm09Im1hdHJpeCgwLjA0OTM4MjcxNjA0OTM4MjcwNiwwLDAsMC4wNDkzODI3MTYwNDkzODI3MDYsMjguNTQzMjA5ODc2NTQzMjA1LDApIi8+PC9nPjxwYXRoIGlkPSJiRSIgZD0iTTE0NS0zMUMxMzQtOSAxMTYgNCA4NSA0IDMyIDQgMTYtMzUgMTUtOTRjMC01OSAxNy05OSA3MC0xMDAgMzItMSA0OCAxNCA2MCAzMyAwLTExLTEtMjQgMi0zMmgzMGwtMSAyNjhoLTMyek05My0yMWM0MSAwIDUxLTMzIDUxLTc2cy04LTczLTUwLTczYy00MCAwLTQ2IDM1LTQ2IDc1czUgNzQgNDUgNzQiIGZpbGw9IiMzYTQxNGEiLz48ZyBpZD0icyI+PHVzZSB4bGluazpocmVmPSIjYVoiIHRyYW5zZm9ybT0ibWF0cml4KDAuMDQ5MzgyNzE2MDQ5MzgyNzA2LDAsMCwwLjA0OTM4MjcxNjA0OTM4MjcwNiwwLDApIi8+PHVzZSB4bGluazpocmVmPSIjYVkiIHRyYW5zZm9ybT0ibWF0cml4KDAuMDQ5MzgyNzE2MDQ5MzgyNzA2LDAsMCwwLjA0OTM4MjcxNjA0OTM4MjcwNiw1Ljg3NjU0MzIwOTg3NjU0MiwwKSIvPjx1c2UgeGxpbms6aHJlZj0iI2JFIiB0cmFuc2Zvcm09Im1hdHJpeCgwLjA0OTM4MjcxNjA0OTM4MjcwNiwwLDAsMC4wNDkzODI3MTYwNDkzODI3MDYsMTUuNzUzMDg2NDE5NzUzMDgsMCkiLz48dXNlIHhsaW5rOmhyZWY9IiNibSIgdHJhbnNmb3JtPSJtYXRyaXgoMC4wNDkzODI3MTYwNDkzODI3MDYsMCwwLDAuMDQ5MzgyNzE2MDQ5MzgyNzA2LDI1LjYyOTYyOTYyOTYyOTYyNiwwKSIvPjx1c2UgeGxpbms6aHJlZj0iI2FZIiB0cmFuc2Zvcm09Im1hdHJpeCgwLjA0OTM4MjcxNjA0OTM4MjcwNiwwLDAsMC4wNDkzODI3MTYwNDkzODI3MDYsMzUuNTA2MTcyODM5NTA2MTYsMCkiLz48dXNlIHhsaW5rOmhyZWY9IiNiayIgdHJhbnNmb3JtPSJtYXRyaXgoMC4wNDkzODI3MTYwNDkzODI3MDYsMCwwLDAuMDQ5MzgyNzE2MDQ5MzgyNzA2LDQ1LjM4MjcxNjA0OTM4MjcxLDApIi8+PHVzZSB4bGluazpocmVmPSIjYVgiIHRyYW5zZm9ybT0ibWF0cml4KDAuMDQ5MzgyNzE2MDQ5MzgyNzA2LDAsMCwwLjA0OTM4MjcxNjA0OTM4MjcwNiw1NC4yNzE2MDQ5MzgyNzE1OTQsMCkiLz48L2c+PGcgaWQ9InQiPjx1c2UgeGxpbms6aHJlZj0iI2JrIiB0cmFuc2Zvcm09Im1hdHJpeCgwLjA0OTM4MjcxNjA0OTM4MjcwNiwwLDAsMC4wNDkzODI3MTYwNDkzODI3MDYsMCwwKSIvPjx1c2UgeGxpbms6aHJlZj0iI2JtIiB0cmFuc2Zvcm09Im1hdHJpeCgwLjA0OTM4MjcxNjA0OTM4MjcwNiwwLDAsMC4wNDkzODI3MTYwNDkzODI3MDYsOC44ODg4ODg4ODg4ODg4ODgsMCkiLz48dXNlIHhsaW5rOmhyZWY9IiNiZyIgdHJhbnNmb3JtPSJtYXRyaXgoMC4wNDkzODI3MTYwNDkzODI3MDYsMCwwLDAuMDQ5MzgyNzE2MDQ5MzgyNzA2LDE4Ljc2NTQzMjA5ODc2NTQzLDApIi8+PHVzZSB4bGluazpocmVmPSIjYmciIHRyYW5zZm9ybT0ibWF0cml4KDAuMDQ5MzgyNzE2MDQ5MzgyNzA2LDAsMCwwLjA0OTM4MjcxNjA0OTM4MjcwNiwyNy42NTQzMjA5ODc2NTQzMTYsMCkiLz48dXNlIHhsaW5rOmhyZWY9IiNhWSIgdHJhbnNmb3JtPSJtYXRyaXgoMC4wNDkzODI3MTYwNDkzODI3MDYsMCwwLDAuMDQ5MzgyNzE2MDQ5MzgyNzA2LDM2LjU0MzIwOTg3NjU0MzIsMCkiLz48dXNlIHhsaW5rOmhyZWY9IiNhWSIgdHJhbnNmb3JtPSJtYXRyaXgoMC4wNDkzODI3MTYwNDkzODI3MDYsMCwwLDAuMDQ5MzgyNzE2MDQ5MzgyNzA2LDQ2LjQxOTc1MzA4NjQxOTc0NiwwKSIvPjx1c2UgeGxpbms6aHJlZj0iI2JpIiB0cmFuc2Zvcm09Im1hdHJpeCgwLjA0OTM4MjcxNjA0OTM4MjcwNiwwLDAsMC4wNDkzODI3MTYwNDkzODI3MDYsNTYuMjk2Mjk2Mjk2Mjk2MjgsMCkiLz48dXNlIHhsaW5rOmhyZWY9IiNiayIgdHJhbnNmb3JtPSJtYXRyaXgoMC4wNDkzODI3MTYwNDkzODI3MDYsMCwwLDAuMDQ5MzgyNzE2MDQ5MzgyNzA2LDY2LjE3MjgzOTUwNjE3MjgzLDApIi8+PHVzZSB4bGluazpocmVmPSIjYnAiIHRyYW5zZm9ybT0ibWF0cml4KDAuMDQ5MzgyNzE2MDQ5MzgyNzA2LDAsMCwwLjA0OTM4MjcxNjA0OTM4MjcwNiw3NS4wNjE3MjgzOTUwNjE3MiwwKSIvPjwvZz48ZyBpZD0idSI+PHVzZSB4bGluazpocmVmPSIjYmUiIHRyYW5zZm9ybT0ibWF0cml4KDAuMDQzMjA5ODc2NTQzMjA5ODcsMCwwLDAuMDQzMjA5ODc2NTQzMjA5ODcsMCwwKSIvPjx1c2UgeGxpbms6aHJlZj0iI2JjIiB0cmFuc2Zvcm09Im1hdHJpeCgwLjA0MzIwOTg3NjU0MzIwOTg3LDAsMCwwLjA0MzIwOTg3NjU0MzIwOTg3LDQuMzIwOTg3NjU0MzIwOTg2LDApIi8+PHVzZSB4bGluazpocmVmPSIjYmYiIHRyYW5zZm9ybT0ibWF0cml4KDAuMDQzMjA5ODc2NTQzMjA5ODcsMCwwLDAuMDQzMjA5ODc2NTQzMjA5ODcsNy43MzQ1Njc5MDEyMzQ1NjYsMCkiLz48L2c+PHBhdGggaWQ9ImJGIiBkPSJNMTc3LTE5MEMxNjctNjUgMjE4IDEwMyA2NyA3MWMtMjMtNi0zOC0yMC00NC00M2wzMi01YzE1IDQ3IDEwMCAzMiA4OS0yOHYtMzBDMTMzLTE0IDExNSAxIDgzIDEgMjkgMSAxNS00MCAxNS05NWMwLTU2IDE2LTk3IDcxLTk4IDI5LTEgNDggMTYgNTkgMzUgMS0xMCAwLTIzIDItMzJoMzB6TTk0LTIyYzM2IDAgNTAtMzIgNTAtNzMgMC00Mi0xNC03NS01MC03NS0zOSAwLTQ2IDM0LTQ2IDc1czYgNzMgNDYgNzMiIGZpbGw9IiMzYTQxNGEiLz48cGF0aCBpZD0iYkciIGQ9Ik0xMTUtMTk0YzUzIDAgNjkgMzkgNzAgOTggMCA2Ni0yMyAxMDAtNzAgMTAwQzg0IDMgNjYtNyA1Ni0zMEw1NCAwSDIzbDEtMjYxaDMydjEwMWMxMC0yMyAyOC0zNCA1OS0zNHptLTggMTc0YzQwIDAgNDUtMzQgNDUtNzUgMC00MC01LTc1LTQ1LTc0LTQyIDAtNTEgMzItNTEgNzYgMCA0MyAxMCA3MyA1MSA3MyIgZmlsbD0iIzNhNDE0YSIvPjxwYXRoIGlkPSJiSCIgZD0iTTE3OS0xOTBMOTMgMzFDNzkgNTkgNTYgODIgMTIgNzNWNDljMzkgNiA1My0yMCA2NC01MEwxLTE5MGgzNEw5Mi0zNGw1NC0xNTZoMzMiIGZpbGw9IiMzYTQxNGEiLz48ZyBpZD0idiI+PHVzZSB4bGluazpocmVmPSIjYVkiIHRyYW5zZm9ybT0ibWF0cml4KDAuMDQzMjA5ODc2NTQzMjA5ODcsMCwwLDAuMDQzMjA5ODc2NTQzMjA5ODcsMCwwKSIvPjx1c2UgeGxpbms6aHJlZj0iI2FXIiB0cmFuc2Zvcm09Im1hdHJpeCgwLjA0MzIwOTg3NjU0MzIwOTg3LDAsMCwwLjA0MzIwOTg3NjU0MzIwOTg3LDguNjQxOTc1MzA4NjQxOTczLDApIi8+PHVzZSB4bGluazpocmVmPSIjYmMiIHRyYW5zZm9ybT0ibWF0cml4KDAuMDQzMjA5ODc2NTQzMjA5ODcsMCwwLDAuMDQzMjA5ODc2NTQzMjA5ODcsMTIuMDU1NTU1NTU1NTU1NTU0LDApIi8+PHVzZSB4bGluazpocmVmPSIjYkYiIHRyYW5zZm9ybT0ibWF0cml4KDAuMDQzMjA5ODc2NTQzMjA5ODcsMCwwLDAuMDQzMjA5ODc2NTQzMjA5ODcsMTUuNDY5MTM1ODAyNDY5MTMsMCkiLz48dXNlIHhsaW5rOmhyZWY9IiNiYyIgdHJhbnNmb3JtPSJtYXRyaXgoMC4wNDMyMDk4NzY1NDMyMDk4NywwLDAsMC4wNDMyMDk4NzY1NDMyMDk4NywyNC4xMTExMTExMTExMTExMDcsMCkiLz48dXNlIHhsaW5rOmhyZWY9IiNiRyIgdHJhbnNmb3JtPSJtYXRyaXgoMC4wNDMyMDk4NzY1NDMyMDk4NywwLDAsMC4wNDMyMDk4NzY1NDMyMDk4NywyNy41MjQ2OTEzNTgwMjQ2OCwwKSIvPjx1c2UgeGxpbms6aHJlZj0iI2JjIiB0cmFuc2Zvcm09Im1hdHJpeCgwLjA0MzIwOTg3NjU0MzIwOTg3LDAsMCwwLjA0MzIwOTg3NjU0MzIwOTg3LDM2LjE2NjY2NjY2NjY2NjY2LDApIi8+PHVzZSB4bGluazpocmVmPSIjYVciIHRyYW5zZm9ybT0ibWF0cml4KDAuMDQzMjA5ODc2NTQzMjA5ODcsMCwwLDAuMDQzMjA5ODc2NTQzMjA5ODcsMzkuNTgwMjQ2OTEzNTgwMjQsMCkiLz48dXNlIHhsaW5rOmhyZWY9IiNiYyIgdHJhbnNmb3JtPSJtYXRyaXgoMC4wNDMyMDk4NzY1NDMyMDk4NywwLDAsMC4wNDMyMDk4NzY1NDMyMDk4Nyw0Mi45OTM4MjcxNjA0OTM4MiwwKSIvPjx1c2UgeGxpbms6aHJlZj0iI2FYIiB0cmFuc2Zvcm09Im1hdHJpeCgwLjA0MzIwOTg3NjU0MzIwOTg3LDAsMCwwLjA0MzIwOTg3NjU0MzIwOTg3LDQ2LjQwNzQwNzQwNzQwNzQwNSwwKSIvPjx1c2UgeGxpbms6aHJlZj0iI2JIIiB0cmFuc2Zvcm09Im1hdHJpeCgwLjA0MzIwOTg3NjU0MzIwOTg3LDAsMCwwLjA0MzIwOTg3NjU0MzIwOTg3LDUwLjcyODM5NTA2MTcyODM5LDApIi8+PC9nPjxnIGlkPSJ3Ij48dXNlIHhsaW5rOmhyZWY9IiNiYyIgdHJhbnNmb3JtPSJtYXRyaXgoMC4wNDMyMDk4NzY1NDMyMDk4NywwLDAsMC4wNDMyMDk4NzY1NDMyMDk4NywwLDApIi8+PHVzZSB4bGluazpocmVmPSIjYmsiIHRyYW5zZm9ybT0ibWF0cml4KDAuMDQzMjA5ODc2NTQzMjA5ODcsMCwwLDAuMDQzMjA5ODc2NTQzMjA5ODcsMy40MTM1ODAyNDY5MTM1Nzk0LDApIi8+PC9nPjxnIGlkPSJ4Ij48dXNlIHhsaW5rOmhyZWY9IiNidCIgdHJhbnNmb3JtPSJtYXRyaXgoMC4wNDMyMDk4NzY1NDMyMDk4NywwLDAsMC4wNDMyMDk4NzY1NDMyMDk4NywwLDApIi8+PHVzZSB4bGluazpocmVmPSIjYVoiIHRyYW5zZm9ybT0ibWF0cml4KDAuMDQzMjA5ODc2NTQzMjA5ODcsMCwwLDAuMDQzMjA5ODc2NTQzMjA5ODcsOC45MDEyMzQ1Njc5MDEyMzIsMCkiLz48dXNlIHhsaW5rOmhyZWY9IiNibSIgdHJhbnNmb3JtPSJtYXRyaXgoMC4wNDMyMDk4NzY1NDMyMDk4NywwLDAsMC4wNDMyMDk4NzY1NDMyMDk4NywxNC4wNDMyMDk4NzY1NDMyMDcsMCkiLz48dXNlIHhsaW5rOmhyZWY9IiNhWSIgdHJhbnNmb3JtPSJtYXRyaXgoMC4wNDMyMDk4NzY1NDMyMDk4NywwLDAsMC4wNDMyMDk4NzY1NDMyMDk4NywyMi42ODUxODUxODUxODUxOCwwKSIvPjx1c2UgeGxpbms6aHJlZj0iI2JwIiB0cmFuc2Zvcm09Im1hdHJpeCgwLjA0MzIwOTg3NjU0MzIwOTg3LDAsMCwwLjA0MzIwOTg3NjU0MzIwOTg3LDMxLjMyNzE2MDQ5MzgyNzE0NywwKSIvPjwvZz48ZyBpZD0ieSI+PHVzZSB4bGluazpocmVmPSIjYmUiIHRyYW5zZm9ybT0ibWF0cml4KDAuMDQzMjA5ODc2NTQzMjA5ODcsMCwwLDAuMDQzMjA5ODc2NTQzMjA5ODcsMCwwKSIvPjx1c2UgeGxpbms6aHJlZj0iI2JyIiB0cmFuc2Zvcm09Im1hdHJpeCgwLjA0MzIwOTg3NjU0MzIwOTg3LDAsMCwwLjA0MzIwOTg3NjU0MzIwOTg3LDQuMzIwOTg3NjU0MzIwOTg2LDApIi8+PHVzZSB4bGluazpocmVmPSIjYmYiIHRyYW5zZm9ybT0ibWF0cml4KDAuMDQzMjA5ODc2NTQzMjA5ODcsMCwwLDAuMDQzMjA5ODc2NTQzMjA5ODcsOC42NDE5NzUzMDg2NDE5NzMsMCkiLz48L2c+PGcgaWQ9InoiPjx1c2UgeGxpbms6aHJlZj0iI2JBIiB0cmFuc2Zvcm09Im1hdHJpeCgwLjA0MzIwOTg3NjU0MzIwOTg3LDAsMCwwLjA0MzIwOTg3NjU0MzIwOTg3LDAsMCkiLz48dXNlIHhsaW5rOmhyZWY9IiNhViIgdHJhbnNmb3JtPSJtYXRyaXgoMC4wNDMyMDk4NzY1NDMyMDk4NywwLDAsMC4wNDMyMDk4NzY1NDMyMDk4Nyw5LjIwMzcwMzcwMzcwMzcwMiwwKSIvPjx1c2UgeGxpbms6aHJlZj0iI2J1IiB0cmFuc2Zvcm09Im1hdHJpeCgwLjA0MzIwOTg3NjU0MzIwOTg3LDAsMCwwLjA0MzIwOTg3NjU0MzIwOTg3LDE5LjU3NDA3NDA3NDA3NDA3LDApIi8+PHVzZSB4bGluazpocmVmPSIjYnQiIHRyYW5zZm9ybT0ibWF0cml4KDAuMDQzMjA5ODc2NTQzMjA5ODcsMCwwLDAuMDQzMjA5ODc2NTQzMjA5ODcsMzAuNDYyOTYyOTYyOTYyOTU1LDApIi8+PHVzZSB4bGluazpocmVmPSIjYnYiIHRyYW5zZm9ybT0ibWF0cml4KDAuMDQzMjA5ODc2NTQzMjA5ODcsMCwwLDAuMDQzMjA5ODc2NTQzMjA5ODcsMzkuOTI1OTI1OTI1OTI1OTIsMCkiLz48dXNlIHhsaW5rOmhyZWY9IiNicSIgdHJhbnNmb3JtPSJtYXRyaXgoMC4wNDMyMDk4NzY1NDMyMDk4NywwLDAsMC4wNDMyMDk4NzY1NDMyMDk4Nyw1MS4xMTcyODM5NTA2MTcyNywwKSIvPjx1c2UgeGxpbms6aHJlZj0iI2J1IiB0cmFuc2Zvcm09Im1hdHJpeCgwLjA0MzIwOTg3NjU0MzIwOTg3LDAsMCwwLjA0MzIwOTg3NjU0MzIwOTg3LDYxLjQ4NzY1NDMyMDk4NzY0NCwwKSIvPjx1c2UgeGxpbms6aHJlZj0iI2J5IiB0cmFuc2Zvcm09Im1hdHJpeCgwLjA0MzIwOTg3NjU0MzIwOTg3LDAsMCwwLjA0MzIwOTg3NjU0MzIwOTg3LDcyLjY3OTAxMjM0NTY3OSwwKSIvPjx1c2UgeGxpbms6aHJlZj0iI2J0IiB0cmFuc2Zvcm09Im1hdHJpeCgwLjA0MzIwOTg3NjU0MzIwOTg3LDAsMCwwLjA0MzIwOTg3NjU0MzIwOTg3LDgxLjMyMDk4NzY1NDMyMDk3LDApIi8+PHVzZSB4bGluazpocmVmPSIjYnUiIHRyYW5zZm9ybT0ibWF0cml4KDAuMDQzMjA5ODc2NTQzMjA5ODcsMCwwLDAuMDQzMjA5ODc2NTQzMjA5ODcsOTAuNzgzOTUwNjE3MjgzOTQsMCkiLz48dXNlIHhsaW5rOmhyZWY9IiNhViIgdHJhbnNmb3JtPSJtYXRyaXgoMC4wNDMyMDk4NzY1NDMyMDk4NywwLDAsMC4wNDMyMDk4NzY1NDMyMDk4NywxMDEuOTc1MzA4NjQxOTc1MjksMCkiLz48dXNlIHhsaW5rOmhyZWY9IiNidiIgdHJhbnNmb3JtPSJtYXRyaXgoMC4wNDMyMDk4NzY1NDMyMDk4NywwLDAsMC4wNDMyMDk4NzY1NDMyMDk4NywxMTIuMzQ1Njc5MDEyMzQ1NjYsMCkiLz48dXNlIHhsaW5rOmhyZWY9IiNibyIgdHJhbnNmb3JtPSJtYXRyaXgoMC4wNDMyMDk4NzY1NDMyMDk4NywwLDAsMC4wNDMyMDk4NzY1NDMyMDk4NywxMjMuNTM3MDM3MDM3MDM3MDEsMCkiLz48dXNlIHhsaW5rOmhyZWY9IiNhViIgdHJhbnNmb3JtPSJtYXRyaXgoMC4wNDMyMDk4NzY1NDMyMDk4NywwLDAsMC4wNDMyMDk4NzY1NDMyMDk4NywxMzMuOTA3NDA3NDA3NDA3NCwwKSIvPjx1c2UgeGxpbms6aHJlZj0iI2J3IiB0cmFuc2Zvcm09Im1hdHJpeCgwLjA0MzIwOTg3NjU0MzIwOTg3LDAsMCwwLjA0MzIwOTg3NjU0MzIwOTg3LDE0NC4yNzc3Nzc3Nzc3Nzc3NywwKSIvPjx1c2UgeGxpbms6aHJlZj0iI2J0IiB0cmFuc2Zvcm09Im1hdHJpeCgwLjA0MzIwOTg3NjU0MzIwOTg3LDAsMCwwLjA0MzIwOTg3NjU0MzIwOTg3LDE1NS40NjkxMzU4MDI0NjkxNCwwKSIvPjx1c2UgeGxpbms6aHJlZj0iI2JyIiB0cmFuc2Zvcm09Im1hdHJpeCgwLjA0MzIwOTg3NjU0MzIwOTg3LDAsMCwwLjA0MzIwOTg3NjU0MzIwOTg3LDE2NC45MzIwOTg3NjU0MzIxLDApIi8+PHVzZSB4bGluazpocmVmPSIjYngiIHRyYW5zZm9ybT0ibWF0cml4KDAuMDQzMjA5ODc2NTQzMjA5ODcsMCwwLDAuMDQzMjA5ODc2NTQzMjA5ODcsMTY5LjI1MzA4NjQxOTc1MzEsMCkiLz48dXNlIHhsaW5rOmhyZWY9IiNidiIgdHJhbnNmb3JtPSJtYXRyaXgoMC4wNDMyMDk4NzY1NDMyMDk4NywwLDAsMC4wNDMyMDk4NzY1NDMyMDk4NywxODEuMzUxODUxODUxODUxODUsMCkiLz48dXNlIHhsaW5rOmhyZWY9IiNieSIgdHJhbnNmb3JtPSJtYXRyaXgoMC4wNDMyMDk4NzY1NDMyMDk4NywwLDAsMC4wNDMyMDk4NzY1NDMyMDk4NywxOTIuNTQzMjA5ODc2NTQzMjIsMCkiLz48dXNlIHhsaW5rOmhyZWY9IiNiciIgdHJhbnNmb3JtPSJtYXRyaXgoMC4wNDMyMDk4NzY1NDMyMDk4NywwLDAsMC4wNDMyMDk4NzY1NDMyMDk4NywyMDEuMTg1MTg1MTg1MTg1MiwwKSIvPjx1c2UgeGxpbms6aHJlZj0iI2JDIiB0cmFuc2Zvcm09Im1hdHJpeCgwLjA0MzIwOTg3NjU0MzIwOTg3LDAsMCwwLjA0MzIwOTg3NjU0MzIwOTg3LDIwNS41MDYxNzI4Mzk1MDYxOCwwKSIvPjwvZz48ZyBpZD0iQSI+PHVzZSB4bGluazpocmVmPSIjYVkiIHRyYW5zZm9ybT0ibWF0cml4KDAuMDQzMjA5ODc2NTQzMjA5ODcsMCwwLDAuMDQzMjA5ODc2NTQzMjA5ODcsMCwwKSIvPjx1c2UgeGxpbms6aHJlZj0iI2JqIiB0cmFuc2Zvcm09Im1hdHJpeCgwLjA0MzIwOTg3NjU0MzIwOTg3LDAsMCwwLjA0MzIwOTg3NjU0MzIwOTg3LDguNjQxOTc1MzA4NjQxOTczLDApIi8+PHVzZSB4bGluazpocmVmPSIjYmMiIHRyYW5zZm9ybT0ibWF0cml4KDAuMDQzMjA5ODc2NTQzMjA5ODcsMCwwLDAuMDQzMjA5ODc2NTQzMjA5ODcsMTYuNDE5NzUzMDg2NDE5NzUsMCkiLz48dXNlIHhsaW5rOmhyZWY9IiNiayIgdHJhbnNmb3JtPSJtYXRyaXgoMC4wNDMyMDk4NzY1NDMyMDk4NywwLDAsMC4wNDMyMDk4NzY1NDMyMDk4NywxOS44MzMzMzMzMzMzMzMzMywwKSIvPjx1c2UgeGxpbms6aHJlZj0iI2FYIiB0cmFuc2Zvcm09Im1hdHJpeCgwLjA0MzIwOTg3NjU0MzIwOTg3LDAsMCwwLjA0MzIwOTg3NjU0MzIwOTg3LDI3LjYxMTExMTExMTExMTEwNCwwKSIvPjx1c2UgeGxpbms6aHJlZj0iI2JrIiB0cmFuc2Zvcm09Im1hdHJpeCgwLjA0MzIwOTg3NjU0MzIwOTg3LDAsMCwwLjA0MzIwOTg3NjU0MzIwOTg3LDMxLjkzMjA5ODc2NTQzMjA5LDApIi8+PC9nPjxnIGlkPSJCIj48dXNlIHhsaW5rOmhyZWY9IiNibyIgdHJhbnNmb3JtPSJtYXRyaXgoMC4wNDMyMDk4NzY1NDMyMDk4NywwLDAsMC4wNDMyMDk4NzY1NDMyMDk4NywwLDApIi8+PHVzZSB4bGluazpocmVmPSIjYVgiIHRyYW5zZm9ybT0ibWF0cml4KDAuMDQzMjA5ODc2NTQzMjA5ODcsMCwwLDAuMDQzMjA5ODc2NTQzMjA5ODcsMTAuMzcwMzcwMzcwMzcwMzY4LDApIi8+PHVzZSB4bGluazpocmVmPSIjYmIiIHRyYW5zZm9ybT0ibWF0cml4KDAuMDQzMjA5ODc2NTQzMjA5ODcsMCwwLDAuMDQzMjA5ODc2NTQzMjA5ODcsMTQuNjkxMzU4MDI0NjkxMzU0LDApIi8+PHVzZSB4bGluazpocmVmPSIjYVgiIHRyYW5zZm9ybT0ibWF0cml4KDAuMDQzMjA5ODc2NTQzMjA5ODcsMCwwLDAuMDQzMjA5ODc2NTQzMjA5ODcsMjMuMzMzMzMzMzMzMzMzMzMsMCkiLz48dXNlIHhsaW5rOmhyZWY9IiNibSIgdHJhbnNmb3JtPSJtYXRyaXgoMC4wNDMyMDk4NzY1NDMyMDk4NywwLDAsMC4wNDMyMDk4NzY1NDMyMDk4NywyNy42NTQzMjA5ODc2NTQzMTYsMCkiLz48dXNlIHhsaW5rOmhyZWY9IiNiayIgdHJhbnNmb3JtPSJtYXRyaXgoMC4wNDMyMDk4NzY1NDMyMDk4NywwLDAsMC4wNDMyMDk4NzY1NDMyMDk4NywzNi4yOTYyOTYyOTYyOTYyOSwwKSIvPjwvZz48ZyBpZD0iQyI+PHVzZSB4bGluazpocmVmPSIjYnMiIHRyYW5zZm9ybT0ibWF0cml4KDAuMDQzMjA5ODc2NTQzMjA5ODcsMCwwLDAuMDQzMjA5ODc2NTQzMjA5ODcsMCwwKSIvPjx1c2UgeGxpbms6aHJlZj0iI2JiIiB0cmFuc2Zvcm09Im1hdHJpeCgwLjA0MzIwOTg3NjU0MzIwOTg3LDAsMCwwLjA0MzIwOTg3NjU0MzIwOTg3LDkuNDYyOTYyOTYyOTYyOTYsMCkiLz48dXNlIHhsaW5rOmhyZWY9IiNiYyIgdHJhbnNmb3JtPSJtYXRyaXgoMC4wNDMyMDk4NzY1NDMyMDk4NywwLDAsMC4wNDMyMDk4NzY1NDMyMDk4NywxOC4xMDQ5MzgyNzE2MDQ5MzMsMCkiLz48dXNlIHhsaW5rOmhyZWY9IiNhVyIgdHJhbnNmb3JtPSJtYXRyaXgoMC4wNDMyMDk4NzY1NDMyMDk4NywwLDAsMC4wNDMyMDk4NzY1NDMyMDk4NywyMS41MTg1MTg1MTg1MTg1MTIsMCkiLz48dXNlIHhsaW5rOmhyZWY9IiNicCIgdHJhbnNmb3JtPSJtYXRyaXgoMC4wNDMyMDk4NzY1NDMyMDk4NywwLDAsMC4wNDMyMDk4NzY1NDMyMDk4NywyNC45MzIwOTg3NjU0MzIwODcsMCkiLz48L2c+PGcgaWQ9IkQiPjx1c2UgeGxpbms6aHJlZj0iI2JlIiB0cmFuc2Zvcm09Im1hdHJpeCgwLjA2MTcyODM5NTA2MTcyODM5LDAsMCwwLjA2MTcyODM5NTA2MTcyODM5LDAsMCkiLz48dXNlIHhsaW5rOmhyZWY9IiNicSIgdHJhbnNmb3JtPSJtYXRyaXgoMC4wNDMyMDk4NzY1NDMyMDk4NywwLDAsMC4wNDMyMDk4NzY1NDMyMDk4Nyw2LjE3MjgzOTUwNjE3MjgzOSwwKSIvPjx1c2UgeGxpbms6aHJlZj0iI2FXIiB0cmFuc2Zvcm09Im1hdHJpeCgwLjA0MzIwOTg3NjU0MzIwOTg3LDAsMCwwLjA0MzIwOTg3NjU0MzIwOTg3LDE2LjU0MzIwOTg3NjU0MzIxLDApIi8+PHVzZSB4bGluazpocmVmPSIjYmsiIHRyYW5zZm9ybT0ibWF0cml4KDAuMDQzMjA5ODc2NTQzMjA5ODcsMCwwLDAuMDQzMjA5ODc2NTQzMjA5ODcsMTkuOTU2NzkwMTIzNDU2Nzg4LDApIi8+PHVzZSB4bGluazpocmVmPSIjYVkiIHRyYW5zZm9ybT0ibWF0cml4KDAuMDQzMjA5ODc2NTQzMjA5ODcsMCwwLDAuMDQzMjA5ODc2NTQzMjA5ODcsMjcuNzM0NTY3OTAxMjM0NTYzLDApIi8+PC9nPjx1c2UgaWQ9IkUiIHhsaW5rOmhyZWY9IiNicCIgdHJhbnNmb3JtPSJtYXRyaXgoMC4wNjE3MjgzOTUwNjE3MjgzOSwwLDAsMC4wNjE3MjgzOTUwNjE3MjgzOSwwLDApIi8+PGcgaWQ9IkYiPjx1c2UgeGxpbms6aHJlZj0iI2JlIiB0cmFuc2Zvcm09Im1hdHJpeCgwLjA2MTcyODM5NTA2MTcyODM5LDAsMCwwLjA2MTcyODM5NTA2MTcyODM5LDAsMCkiLz48dXNlIHhsaW5rOmhyZWY9IiNiYyIgdHJhbnNmb3JtPSJtYXRyaXgoMC4wNjE3MjgzOTUwNjE3MjgzOSwwLDAsMC4wNjE3MjgzOTUwNjE3MjgzOSw2LjE3MjgzOTUwNjE3MjgzOSwwKSIvPjx1c2UgeGxpbms6aHJlZj0iI2JmIiB0cmFuc2Zvcm09Im1hdHJpeCgwLjA2MTcyODM5NTA2MTcyODM5LDAsMCwwLjA2MTcyODM5NTA2MTcyODM5LDExLjA0OTM4MjcxNjA0OTM4MywwKSIvPjwvZz48cGF0aCBpZD0iYkkiIGQ9Ik0yNC0yMzF2LTMwaDMydjMwSDI0ek0tOSA0OWMyNCA0IDMzLTYgMzMtMzB2LTIwOWgzMlYyNGMyIDQwLTIzIDU4LTY1IDQ5VjQ5IiBmaWxsPSIjM2E0MTRhIi8+PHBhdGggaWQ9ImJKIiBkPSJNMjEwLTE2OWMtNjcgMy0zOCAxMDUtNDQgMTY5aC0zMXYtMTIxYzAtMjktNS01MC0zNS00OEMzNC0xNjUgNjItNjUgNTYgMEgyNWwtMS0xOTBoMzBjMSAxMC0xIDI0IDIgMzIgMTAtNDQgOTktNTAgMTA3IDAgMTEtMjEgMjctMzUgNTgtMzYgODUtMiA0NyAxMTkgNTUgMTk0aC0zMXYtMTIxYzAtMjktNS00OS0zNS00OCIgZmlsbD0iIzNhNDE0YSIvPjxnIGlkPSJHIj48dXNlIHhsaW5rOmhyZWY9IiNiYiIgdHJhbnNmb3JtPSJtYXRyaXgoMC4wNjE3MjgzOTUwNjE3MjgzOSwwLDAsMC4wNjE3MjgzOTUwNjE3MjgzOSwwLDApIi8+PHVzZSB4bGluazpocmVmPSIjYmkiIHRyYW5zZm9ybT0ibWF0cml4KDAuMDYxNzI4Mzk1MDYxNzI4MzksMCwwLDAuMDYxNzI4Mzk1MDYxNzI4MzksMTIuMzQ1Njc5MDEyMzQ1Njc5LDApIi8+PHVzZSB4bGluazpocmVmPSIjYkkiIHRyYW5zZm9ybT0ibWF0cml4KDAuMDYxNzI4Mzk1MDYxNzI4MzksMCwwLDAuMDYxNzI4Mzk1MDYxNzI4MzksMjQuNjkxMzU4MDI0NjkxMzU4LDApIi8+PHVzZSB4bGluazpocmVmPSIjYm0iIHRyYW5zZm9ybT0ibWF0cml4KDAuMDYxNzI4Mzk1MDYxNzI4MzksMCwwLDAuMDYxNzI4Mzk1MDYxNzI4MzksMjkuNTY3OTAxMjM0NTY3OSwwKSIvPjx1c2UgeGxpbms6aHJlZj0iI2JrIiB0cmFuc2Zvcm09Im1hdHJpeCgwLjA2MTcyODM5NTA2MTcyODM5LDAsMCwwLjA2MTcyODM5NTA2MTcyODM5LDQxLjkxMzU4MDI0NjkxMzU3NSwwKSIvPjx1c2UgeGxpbms6aHJlZj0iI2FYIiB0cmFuc2Zvcm09Im1hdHJpeCgwLjA2MTcyODM5NTA2MTcyODM5LDAsMCwwLjA2MTcyODM5NTA2MTcyODM5LDUzLjAyNDY5MTM1ODAyNDY4LDApIi8+PHVzZSB4bGluazpocmVmPSIjYkoiIHRyYW5zZm9ybT0ibWF0cml4KDAuMDYxNzI4Mzk1MDYxNzI4MzksMCwwLDAuMDYxNzI4Mzk1MDYxNzI4MzksNTkuMTk3NTMwODY0MTk3NTI1LDApIi8+PHVzZSB4bGluazpocmVmPSIjYVkiIHRyYW5zZm9ybT0ibWF0cml4KDAuMDYxNzI4Mzk1MDYxNzI4MzksMCwwLDAuMDYxNzI4Mzk1MDYxNzI4MzksNzcuNjU0MzIwOTg3NjU0MzIsMCkiLz48dXNlIHhsaW5rOmhyZWY9IiNiYSIgdHJhbnNmb3JtPSJtYXRyaXgoMC4wNjE3MjgzOTUwNjE3MjgzOSwwLDAsMC4wNjE3MjgzOTUwNjE3MjgzOSw5MCwwKSIvPjx1c2UgeGxpbms6aHJlZj0iI2FYIiB0cmFuc2Zvcm09Im1hdHJpeCgwLjA2MTcyODM5NTA2MTcyODM5LDAsMCwwLjA2MTcyODM5NTA2MTcyODM5LDEwMi4zNDU2NzkwMTIzNDU2OCwwKSIvPjwvZz48ZyBpZD0iSCI+PHVzZSB4bGluazpocmVmPSIjYVkiIHRyYW5zZm9ybT0ibWF0cml4KDAuMDYxNzI4Mzk1MDYxNzI4MzksMCwwLDAuMDYxNzI4Mzk1MDYxNzI4MzksMCwwKSIvPjx1c2UgeGxpbms6aHJlZj0iI2JkIiB0cmFuc2Zvcm09Im1hdHJpeCgwLjA2MTcyODM5NTA2MTcyODM5LDAsMCwwLjA2MTcyODM5NTA2MTcyODM5LDEyLjM0NTY3OTAxMjM0NTY3OSwwKSIvPjx1c2UgeGxpbms6aHJlZj0iI2FZIiB0cmFuc2Zvcm09Im1hdHJpeCgwLjA2MTcyODM5NTA2MTcyODM5LDAsMCwwLjA2MTcyODM5NTA2MTcyODM5LDIzLjQ1Njc5MDEyMzQ1Njc5LDApIi8+PHVzZSB4bGluazpocmVmPSIjYmEiIHRyYW5zZm9ybT0ibWF0cml4KDAuMDYxNzI4Mzk1MDYxNzI4MzksMCwwLDAuMDYxNzI4Mzk1MDYxNzI4MzksMzUuODAyNDY5MTM1ODAyNDcsMCkiLz48dXNlIHhsaW5rOmhyZWY9IiNhWCIgdHJhbnNmb3JtPSJtYXRyaXgoMC4wNjE3MjgzOTUwNjE3MjgzOSwwLDAsMC4wNjE3MjgzOTUwNjE3MjgzOSw0OC4xNDgxNDgxNDgxNDgxNDUsMCkiLz48L2c+PGcgaWQ9IkkiPjx1c2UgeGxpbms6aHJlZj0iI2JjIiB0cmFuc2Zvcm09Im1hdHJpeCgwLjA2MTcyODM5NTA2MTcyODM5LDAsMCwwLjA2MTcyODM5NTA2MTcyODM5LDAsMCkiLz48dXNlIHhsaW5rOmhyZWY9IiNiayIgdHJhbnNmb3JtPSJtYXRyaXgoMC4wNjE3MjgzOTUwNjE3MjgzOSwwLDAsMC4wNjE3MjgzOTUwNjE3MjgzOSw0Ljg3NjU0MzIwOTg3NjU0MywwKSIvPjwvZz48ZyBpZD0iSiI+PHVzZSB4bGluazpocmVmPSIjYmsiIHRyYW5zZm9ybT0ibWF0cml4KDAuMDYxNzI4Mzk1MDYxNzI4MzksMCwwLDAuMDYxNzI4Mzk1MDYxNzI4MzksMCwwKSIvPjx1c2UgeGxpbms6aHJlZj0iI2JtIiB0cmFuc2Zvcm09Im1hdHJpeCgwLjA2MTcyODM5NTA2MTcyODM5LDAsMCwwLjA2MTcyODM5NTA2MTcyODM5LDExLjExMTExMTExMTExMTExLDApIi8+PHVzZSB4bGluazpocmVmPSIjYmciIHRyYW5zZm9ybT0ibWF0cml4KDAuMDYxNzI4Mzk1MDYxNzI4MzksMCwwLDAuMDYxNzI4Mzk1MDYxNzI4MzksMjMuNDU2NzkwMTIzNDU2NzksMCkiLz48dXNlIHhsaW5rOmhyZWY9IiNiZyIgdHJhbnNmb3JtPSJtYXRyaXgoMC4wNjE3MjgzOTUwNjE3MjgzOSwwLDAsMC4wNjE3MjgzOTUwNjE3MjgzOSwzNC41Njc5MDEyMzQ1Njc5LDApIi8+PHVzZSB4bGluazpocmVmPSIjYVkiIHRyYW5zZm9ybT0ibWF0cml4KDAuMDYxNzI4Mzk1MDYxNzI4MzksMCwwLDAuMDYxNzI4Mzk1MDYxNzI4MzksNDUuNjc5MDEyMzQ1Njc5MDEsMCkiLz48dXNlIHhsaW5rOmhyZWY9IiNiayIgdHJhbnNmb3JtPSJtYXRyaXgoMC4wNjE3MjgzOTUwNjE3MjgzOSwwLDAsMC4wNjE3MjgzOTUwNjE3MjgzOSw1OC4wMjQ2OTEzNTgwMjQ2OSwwKSIvPjx1c2UgeGxpbms6aHJlZj0iI2JrIiB0cmFuc2Zvcm09Im1hdHJpeCgwLjA2MTcyODM5NTA2MTcyODM5LDAsMCwwLjA2MTcyODM5NTA2MTcyODM5LDY5LjEzNTgwMjQ2OTEzNTgsMCkiLz48dXNlIHhsaW5rOmhyZWY9IiNiZiIgdHJhbnNmb3JtPSJtYXRyaXgoMC4wNjE3MjgzOTUwNjE3MjgzOSwwLDAsMC4wNjE3MjgzOTUwNjE3MjgzOSw4MC4yNDY5MTM1ODAyNDY5MSwwKSIvPjx1c2UgeGxpbms6aHJlZj0iI2JtIiB0cmFuc2Zvcm09Im1hdHJpeCgwLjA2MTcyODM5NTA2MTcyODM5LDAsMCwwLjA2MTcyODM5NTA2MTcyODM5LDg2LjQxOTc1MzA4NjQxOTc1LDApIi8+PHVzZSB4bGluazpocmVmPSIjYVciIHRyYW5zZm9ybT0ibWF0cml4KDAuMDYxNzI4Mzk1MDYxNzI4MzksMCwwLDAuMDYxNzI4Mzk1MDYxNzI4MzksOTguNzY1NDMyMDk4NzY1NDMsMCkiLz48dXNlIHhsaW5rOmhyZWY9IiNicCIgdHJhbnNmb3JtPSJtYXRyaXgoMC4wNjE3MjgzOTUwNjE3MjgzOSwwLDAsMC4wNjE3MjgzOTUwNjE3MjgzOSwxMDMuNjQxOTc1MzA4NjQxOTcsMCkiLz48L2c+PHBhdGggaWQ9ImJLIiBkPSJNMzAgMHYtMjQ4aDMzdjIyMWgxMjVWMEgzMCIgZmlsbD0iIzNhNDE0YSIvPjxnIGlkPSJLIj48dXNlIHhsaW5rOmhyZWY9IiNiSyIgdHJhbnNmb3JtPSJtYXRyaXgoMC4wNjE3MjgzOTUwNjE3MjgzOSwwLDAsMC4wNjE3MjgzOTUwNjE3MjgzOSwwLDApIi8+PHVzZSB4bGluazpocmVmPSIjYkEiIHRyYW5zZm9ybT0ibWF0cml4KDAuMDYxNzI4Mzk1MDYxNzI4MzksMCwwLDAuMDYxNzI4Mzk1MDYxNzI4MzksMTIuMzQ1Njc5MDEyMzQ1Njc5LDApIi8+PHVzZSB4bGluazpocmVmPSIjYVYiIHRyYW5zZm9ybT0ibWF0cml4KDAuMDYxNzI4Mzk1MDYxNzI4MzksMCwwLDAuMDYxNzI4Mzk1MDYxNzI4MzksMjUuNDkzODI3MTYwNDkzODI2LDApIi8+PHVzZSB4bGluazpocmVmPSIjYkEiIHRyYW5zZm9ybT0ibWF0cml4KDAuMDYxNzI4Mzk1MDYxNzI4MzksMCwwLDAuMDYxNzI4Mzk1MDYxNzI4MzksNDAuMzA4NjQxOTc1MzA4NjQsMCkiLz48dXNlIHhsaW5rOmhyZWY9IiNiciIgdHJhbnNmb3JtPSJtYXRyaXgoMC4wNjE3MjgzOTUwNjE3MjgzOSwwLDAsMC4wNjE3MjgzOTUwNjE3MjgzOSw1NS4xMjM0NTY3OTAxMjM0NTYsMCkiLz48L2c+PGcgaWQ9IkwiPjx1c2UgeGxpbms6aHJlZj0iI2J0IiB0cmFuc2Zvcm09Im1hdHJpeCgwLjA2MTcyODM5NTA2MTcyODM5LDAsMCwwLjA2MTcyODM5NTA2MTcyODM5LDAsMCkiLz48dXNlIHhsaW5rOmhyZWY9IiNiQyIgdHJhbnNmb3JtPSJtYXRyaXgoMC4wNjE3MjgzOTUwNjE3MjgzOSwwLDAsMC4wNjE3MjgzOTUwNjE3MjgzOSwxMy41MTg1MTg1MTg1MTg1MTcsMCkiLz48L2c+PHBhdGggaWQ9ImJMIiBkPSJNMjA2IDBoLTM2bC00MC0xNjRMODkgMEg1M0wtMS0xOTBoMzJMNzAtMjZsNDMtMTY0aDM0bDQxIDE2NCA0Mi0xNjRoMzEiIGZpbGw9IiMzYTQxNGEiLz48ZyBpZD0iTSI+PHVzZSB4bGluazpocmVmPSIjYnUiIHRyYW5zZm9ybT0ibWF0cml4KDAuMDYxNzI4Mzk1MDYxNzI4MzksMCwwLDAuMDYxNzI4Mzk1MDYxNzI4MzksMCwwKSIvPjx1c2UgeGxpbms6aHJlZj0iI2FZIiB0cmFuc2Zvcm09Im1hdHJpeCgwLjA2MTcyODM5NTA2MTcyODM5LDAsMCwwLjA2MTcyODM5NTA2MTcyODM5LDE1Ljk4NzY1NDMyMDk4NzY1MywwKSIvPjx1c2UgeGxpbms6aHJlZj0iI2JMIiB0cmFuc2Zvcm09Im1hdHJpeCgwLjA2MTcyODM5NTA2MTcyODM5LDAsMCwwLjA2MTcyODM5NTA2MTcyODM5LDI4LjMzMzMzMzMzMzMzMzMzMiwwKSIvPjx1c2UgeGxpbms6aHJlZj0iI2JiIiB0cmFuc2Zvcm09Im1hdHJpeCgwLjA2MTcyODM5NTA2MTcyODM5LDAsMCwwLjA2MTcyODM5NTA2MTcyODM5LDQ0LjMyMDk4NzY1NDMyMDk5LDApIi8+PHVzZSB4bGluazpocmVmPSIjYVoiIHRyYW5zZm9ybT0ibWF0cml4KDAuMDYxNzI4Mzk1MDYxNzI4MzksMCwwLDAuMDYxNzI4Mzk1MDYxNzI4MzksNTYuNjY2NjY2NjY2NjY2NjY0LDApIi8+PHVzZSB4bGluazpocmVmPSIjYmkiIHRyYW5zZm9ybT0ibWF0cml4KDAuMDYxNzI4Mzk1MDYxNzI4MzksMCwwLDAuMDYxNzI4Mzk1MDYxNzI4MzksNjQuMDEyMzQ1Njc5MDEyMzQsMCkiLz48dXNlIHhsaW5rOmhyZWY9IiNiayIgdHJhbnNmb3JtPSJtYXRyaXgoMC4wNjE3MjgzOTUwNjE3MjgzOSwwLDAsMC4wNjE3MjgzOTUwNjE3MjgzOSw3Ni4zNTgwMjQ2OTEzNTgwMywwKSIvPjwvZz48cGF0aCBpZD0iYk0iIGQ9Ik0xMTUtMTk0YzU1IDEgNzAgNDEgNzAgOThTMTY5IDIgMTE1IDRDODQgNCA2Ni05IDU1LTMwbDEgMTA1SDI0bC0xLTI2NWgzMWwyIDMwYzEwLTIxIDI4LTM0IDU5LTM0em0tOCAxNzRjNDAgMCA0NS0zNCA0NS03NXMtNi03My00NS03NGMtNDIgMC01MSAzMi01MSA3NiAwIDQzIDEwIDczIDUxIDczIiBmaWxsPSIjM2E0MTRhIi8+PGcgaWQ9Ik4iPjx1c2UgeGxpbms6aHJlZj0iI2J1IiB0cmFuc2Zvcm09Im1hdHJpeCgwLjA2MTcyODM5NTA2MTcyODM5LDAsMCwwLjA2MTcyODM5NTA2MTcyODM5LDAsMCkiLz48dXNlIHhsaW5rOmhyZWY9IiNhWSIgdHJhbnNmb3JtPSJtYXRyaXgoMC4wNjE3MjgzOTUwNjE3MjgzOSwwLDAsMC4wNjE3MjgzOTUwNjE3MjgzOSwxNS45ODc2NTQzMjA5ODc2NTMsMCkiLz48dXNlIHhsaW5rOmhyZWY9IiNiaSIgdHJhbnNmb3JtPSJtYXRyaXgoMC4wNjE3MjgzOTUwNjE3MjgzOSwwLDAsMC4wNjE3MjgzOTUwNjE3MjgzOSwyOC4zMzMzMzMzMzMzMzMzMzIsMCkiLz48dXNlIHhsaW5rOmhyZWY9IiNhWSIgdHJhbnNmb3JtPSJtYXRyaXgoMC4wNjE3MjgzOTUwNjE3MjgzOSwwLDAsMC4wNjE3MjgzOTUwNjE3MjgzOSw0MC42NzkwMTIzNDU2NzkwMSwwKSIvPjx1c2UgeGxpbms6aHJlZj0iI2JKIiB0cmFuc2Zvcm09Im1hdHJpeCgwLjA2MTcyODM5NTA2MTcyODM5LDAsMCwwLjA2MTcyODM5NTA2MTcyODM5LDUzLjAyNDY5MTM1ODAyNDY5LDApIi8+PHVzZSB4bGluazpocmVmPSIjYk0iIHRyYW5zZm9ybT0ibWF0cml4KDAuMDYxNzI4Mzk1MDYxNzI4MzksMCwwLDAuMDYxNzI4Mzk1MDYxNzI4MzksNzEuNDgxNDgxNDgxNDgxNDgsMCkiLz48dXNlIHhsaW5rOmhyZWY9IiNhWCIgdHJhbnNmb3JtPSJtYXRyaXgoMC4wNjE3MjgzOTUwNjE3MjgzOSwwLDAsMC4wNjE3MjgzOTUwNjE3MjgzOSw4My44MjcxNjA0OTM4MjcxNywwKSIvPjx1c2UgeGxpbms6aHJlZj0iI2JjIiB0cmFuc2Zvcm09Im1hdHJpeCgwLjA2MTcyODM5NTA2MTcyODM5LDAsMCwwLjA2MTcyODM5NTA2MTcyODM5LDkwLDApIi8+PHVzZSB4bGluazpocmVmPSIjYmgiIHRyYW5zZm9ybT0ibWF0cml4KDAuMDYxNzI4Mzk1MDYxNzI4MzksMCwwLDAuMDYxNzI4Mzk1MDYxNzI4MzksOTQuODc2NTQzMjA5ODc2NTQsMCkiLz48dXNlIHhsaW5rOmhyZWY9IiNiYSIgdHJhbnNmb3JtPSJtYXRyaXgoMC4wNjE3MjgzOTUwNjE3MjgzOSwwLDAsMC4wNjE3MjgzOTUwNjE3MjgzOSwxMDcuMjIyMjIyMjIyMjIyMjMsMCkiLz48L2c+PGcgaWQ9Ik8iPjx1c2UgeGxpbms6aHJlZj0iI2JvIiB0cmFuc2Zvcm09Im1hdHJpeCgwLjA2MTcyODM5NTA2MTcyODM5LDAsMCwwLjA2MTcyODM5NTA2MTcyODM5LDAsMCkiLz48dXNlIHhsaW5rOmhyZWY9IiNhWSIgdHJhbnNmb3JtPSJtYXRyaXgoMC4wNjE3MjgzOTUwNjE3MjgzOSwwLDAsMC4wNjE3MjgzOTUwNjE3MjgzOSwxNC44MTQ4MTQ4MTQ4MTQ4MTMsMCkiLz48dXNlIHhsaW5rOmhyZWY9IiNhWiIgdHJhbnNmb3JtPSJtYXRyaXgoMC4wNjE3MjgzOTUwNjE3MjgzOSwwLDAsMC4wNjE3MjgzOTUwNjE3MjgzOSwyNy4xNjA0OTM4MjcxNjA0OTQsMCkiLz48dXNlIHhsaW5rOmhyZWY9IiNiZCIgdHJhbnNmb3JtPSJtYXRyaXgoMC4wNjE3MjgzOTUwNjE3MjgzOSwwLDAsMC4wNjE3MjgzOTUwNjE3MjgzOSwzNC41MDYxNzI4Mzk1MDYxNywwKSIvPjx1c2UgeGxpbms6aHJlZj0iI2JjIiB0cmFuc2Zvcm09Im1hdHJpeCgwLjA2MTcyODM5NTA2MTcyODM5LDAsMCwwLjA2MTcyODM5NTA2MTcyODM5LDQ1LjYxNzI4Mzk1MDYxNzI4LDApIi8+PHVzZSB4bGluazpocmVmPSIjYmciIHRyYW5zZm9ybT0ibWF0cml4KDAuMDYxNzI4Mzk1MDYxNzI4MzksMCwwLDAuMDYxNzI4Mzk1MDYxNzI4MzksNTAuNDkzODI3MTYwNDkzODIsMCkiLz48dXNlIHhsaW5rOmhyZWY9IiNhWSIgdHJhbnNmb3JtPSJtYXRyaXgoMC4wNjE3MjgzOTUwNjE3MjgzOSwwLDAsMC4wNjE3MjgzOTUwNjE3MjgzOSw2MS42MDQ5MzgyNzE2MDQ5NCwwKSIvPjwvZz48ZyBpZD0iUCI+PHVzZSB4bGluazpocmVmPSIjYnUiIHRyYW5zZm9ybT0ibWF0cml4KDAuMDYxNzI4Mzk1MDYxNzI4MzksMCwwLDAuMDYxNzI4Mzk1MDYxNzI4MzksMCwwKSIvPjx1c2UgeGxpbms6aHJlZj0iI2FZIiB0cmFuc2Zvcm09Im1hdHJpeCgwLjA2MTcyODM5NTA2MTcyODM5LDAsMCwwLjA2MTcyODM5NTA2MTcyODM5LDE1Ljk4NzY1NDMyMDk4NzY1MywwKSIvPjx1c2UgeGxpbms6aHJlZj0iI2JpIiB0cmFuc2Zvcm09Im1hdHJpeCgwLjA2MTcyODM5NTA2MTcyODM5LDAsMCwwLjA2MTcyODM5NTA2MTcyODM5LDI4LjMzMzMzMzMzMzMzMzMzMiwwKSIvPjx1c2UgeGxpbms6aHJlZj0iI2FZIiB0cmFuc2Zvcm09Im1hdHJpeCgwLjA2MTcyODM5NTA2MTcyODM5LDAsMCwwLjA2MTcyODM5NTA2MTcyODM5LDQwLjY3OTAxMjM0NTY3OTAxLDApIi8+PHVzZSB4bGluazpocmVmPSIjYkoiIHRyYW5zZm9ybT0ibWF0cml4KDAuMDYxNzI4Mzk1MDYxNzI4MzksMCwwLDAuMDYxNzI4Mzk1MDYxNzI4MzksNTMuMDI0NjkxMzU4MDI0NjksMCkiLz48dXNlIHhsaW5rOmhyZWY9IiNiTSIgdHJhbnNmb3JtPSJtYXRyaXgoMC4wNjE3MjgzOTUwNjE3MjgzOSwwLDAsMC4wNjE3MjgzOTUwNjE3MjgzOSw3MS40ODE0ODE0ODE0ODE0OCwwKSIvPjx1c2UgeGxpbms6aHJlZj0iI2FYIiB0cmFuc2Zvcm09Im1hdHJpeCgwLjA2MTcyODM5NTA2MTcyODM5LDAsMCwwLjA2MTcyODM5NTA2MTcyODM5LDgzLjgyNzE2MDQ5MzgyNzE3LDApIi8+PHVzZSB4bGluazpocmVmPSIjYmMiIHRyYW5zZm9ybT0ibWF0cml4KDAuMDYxNzI4Mzk1MDYxNzI4MzksMCwwLDAuMDYxNzI4Mzk1MDYxNzI4MzksOTAsMCkiLz48dXNlIHhsaW5rOmhyZWY9IiNiaCIgdHJhbnNmb3JtPSJtYXRyaXgoMC4wNjE3MjgzOTUwNjE3MjgzOSwwLDAsMC4wNjE3MjgzOTUwNjE3MjgzOSw5NC44NzY1NDMyMDk4NzY1NCwwKSIvPjx1c2UgeGxpbms6aHJlZj0iI2JhIiB0cmFuc2Zvcm09Im1hdHJpeCgwLjA2MTcyODM5NTA2MTcyODM5LDAsMCwwLjA2MTcyODM5NTA2MTcyODM5LDEwNy4yMjIyMjIyMjIyMjIyMywwKSIvPjwvZz48ZyBpZD0iUSI+PHVzZSB4bGluazpocmVmPSIjYkMiIHRyYW5zZm9ybT0ibWF0cml4KDAuMDYxNzI4Mzk1MDYxNzI4MzksMCwwLDAuMDYxNzI4Mzk1MDYxNzI4MzksMCwwKSIvPjx1c2UgeGxpbms6aHJlZj0iI2JEIiB0cmFuc2Zvcm09Im1hdHJpeCgwLjA2MTcyODM5NTA2MTcyODM5LDAsMCwwLjA2MTcyODM5NTA2MTcyODM5LDE1Ljk4NzY1NDMyMDk4NzY1MywwKSIvPjwvZz48ZyBpZD0iUiI+PHVzZSB4bGluazpocmVmPSIjYnUiIHRyYW5zZm9ybT0ibWF0cml4KDAuMDQzMjA5ODc2NTQzMjA5ODcsMCwwLDAuMDQzMjA5ODc2NTQzMjA5ODcsMCwwKSIvPjx1c2UgeGxpbms6aHJlZj0iI2FZIiB0cmFuc2Zvcm09Im1hdHJpeCgwLjA0MzIwOTg3NjU0MzIwOTg3LDAsMCwwLjA0MzIwOTg3NjU0MzIwOTg3LDExLjE5MTM1ODAyNDY5MTM1NiwwKSIvPjx1c2UgeGxpbms6aHJlZj0iI2JnIiB0cmFuc2Zvcm09Im1hdHJpeCgwLjA0MzIwOTg3NjU0MzIwOTg3LDAsMCwwLjA0MzIwOTg3NjU0MzIwOTg3LDE5LjgzMzMzMzMzMzMzMzMzLDApIi8+PHVzZSB4bGluazpocmVmPSIjYmgiIHRyYW5zZm9ybT0ibWF0cml4KDAuMDQzMjA5ODc2NTQzMjA5ODcsMCwwLDAuMDQzMjA5ODc2NTQzMjA5ODcsMjcuNjExMTExMTExMTExMTA0LDApIi8+PHVzZSB4bGluazpocmVmPSIjYmkiIHRyYW5zZm9ybT0ibWF0cml4KDAuMDQzMjA5ODc2NTQzMjA5ODcsMCwwLDAuMDQzMjA5ODc2NTQzMjA5ODcsMzYuMjUzMDg2NDE5NzUzMDc1LDApIi8+PC9nPjxwYXRoIGlkPSJiTiIgZD0iTTQ3LTE3MEgyMmwtNC03OGgzMyIgZmlsbD0iIzNhNDE0YSIvPjxnIGlkPSJTIj48dXNlIHhsaW5rOmhyZWY9IiNiaSIgdHJhbnNmb3JtPSJtYXRyaXgoMC4wNDMyMDk4NzY1NDMyMDk4NywwLDAsMC4wNDMyMDk4NzY1NDMyMDk4NywwLDApIi8+PHVzZSB4bGluazpocmVmPSIjYmgiIHRyYW5zZm9ybT0ibWF0cml4KDAuMDQzMjA5ODc2NTQzMjA5ODcsMCwwLDAuMDQzMjA5ODc2NTQzMjA5ODcsOC42NDE5NzUzMDg2NDE5NzMsMCkiLz48dXNlIHhsaW5rOmhyZWY9IiNhWSIgdHJhbnNmb3JtPSJtYXRyaXgoMC4wNDMyMDk4NzY1NDMyMDk4NywwLDAsMC4wNDMyMDk4NzY1NDMyMDk4NywxNy4yODM5NTA2MTcyODM5NDYsMCkiLz48dXNlIHhsaW5rOmhyZWY9IiNiayIgdHJhbnNmb3JtPSJtYXRyaXgoMC4wNDMyMDk4NzY1NDMyMDk4NywwLDAsMC4wNDMyMDk4NzY1NDMyMDk4NywyNS45MjU5MjU5MjU5MjU5MTcsMCkiLz48dXNlIHhsaW5rOmhyZWY9IiNiYSIgdHJhbnNmb3JtPSJtYXRyaXgoMC4wNDMyMDk4NzY1NDMyMDk4NywwLDAsMC4wNDMyMDk4NzY1NDMyMDk4NywzMy43MDM3MDM3MDM3MDM2OTUsMCkiLz48dXNlIHhsaW5rOmhyZWY9IiNiTiIgdHJhbnNmb3JtPSJtYXRyaXgoMC4wNDMyMDk4NzY1NDMyMDk4NywwLDAsMC4wNDMyMDk4NzY1NDMyMDk4Nyw0Mi4zNDU2NzkwMTIzNDU2NywwKSIvPjx1c2UgeGxpbms6aHJlZj0iI2FYIiB0cmFuc2Zvcm09Im1hdHJpeCgwLjA0MzIwOTg3NjU0MzIwOTg3LDAsMCwwLjA0MzIwOTg3NjU0MzIwOTg3LDQ1LjI4Mzk1MDYxNzI4Mzk0LDApIi8+PC9nPjxnIGlkPSJUIj48dXNlIHhsaW5rOmhyZWY9IiNiaCIgdHJhbnNmb3JtPSJtYXRyaXgoMC4wNDMyMDk4NzY1NDMyMDk4NywwLDAsMC4wNDMyMDk4NzY1NDMyMDk4NywwLDApIi8+PHVzZSB4bGluazpocmVmPSIjYVoiIHRyYW5zZm9ybT0ibWF0cml4KDAuMDQzMjA5ODc2NTQzMjA5ODcsMCwwLDAuMDQzMjA5ODc2NTQzMjA5ODcsOC42NDE5NzUzMDg2NDE5NzMsMCkiLz48L2c+PHBhdGggaWQ9ImJPIiBkPSJNMjQwIDBsMi0yMThjLTIzIDc2LTU0IDE0NS04MCAyMThoLTIzTDU4LTIxOCA1OSAwSDMwdi0yNDhoNDRsNzcgMjExYzIxLTc1IDUxLTE0MCA3Ni0yMTFoNDNWMGgtMzAiIGZpbGw9IiMzYTQxNGEiLz48ZyBpZD0iVSI+PHVzZSB4bGluazpocmVmPSIjYnQiIHRyYW5zZm9ybT0ibWF0cml4KDAuMDQzMjA5ODc2NTQzMjA5ODcsMCwwLDAuMDQzMjA5ODc2NTQzMjA5ODcsMCwwKSIvPjx1c2UgeGxpbms6aHJlZj0iI2JDIiB0cmFuc2Zvcm09Im1hdHJpeCgwLjA0MzIwOTg3NjU0MzIwOTg3LDAsMCwwLjA0MzIwOTg3NjU0MzIwOTg3LDkuNDYyOTYyOTYyOTYyOTYsMCkiLz48dXNlIHhsaW5rOmhyZWY9IiNieSIgdHJhbnNmb3JtPSJtYXRyaXgoMC4wNDMyMDk4NzY1NDMyMDk4NywwLDAsMC4wNDMyMDk4NzY1NDMyMDk4NywyMC42NTQzMjA5ODc2NTQzMTYsMCkiLz48dXNlIHhsaW5rOmhyZWY9IiNidSIgdHJhbnNmb3JtPSJtYXRyaXgoMC4wNDMyMDk4NzY1NDMyMDk4NywwLDAsMC4wNDMyMDk4NzY1NDMyMDk4NywyOS4yOTYyOTYyOTYyOTYyOSwwKSIvPjx1c2UgeGxpbms6aHJlZj0iI2JxIiB0cmFuc2Zvcm09Im1hdHJpeCgwLjA0MzIwOTg3NjU0MzIwOTg3LDAsMCwwLjA0MzIwOTg3NjU0MzIwOTg3LDQwLjQ4NzY1NDMyMDk4NzY0NCwwKSIvPjx1c2UgeGxpbms6aHJlZj0iI2JDIiB0cmFuc2Zvcm09Im1hdHJpeCgwLjA0MzIwOTg3NjU0MzIwOTg3LDAsMCwwLjA0MzIwOTg3NjU0MzIwOTg3LDUwLjg1ODAyNDY5MTM1ODAxLDApIi8+PHVzZSB4bGluazpocmVmPSIjYnEiIHRyYW5zZm9ybT0ibWF0cml4KDAuMDQzMjA5ODc2NTQzMjA5ODcsMCwwLDAuMDQzMjA5ODc2NTQzMjA5ODcsNjIuMDQ5MzgyNzE2MDQ5MzcsMCkiLz48dXNlIHhsaW5rOmhyZWY9IiNiTyIgdHJhbnNmb3JtPSJtYXRyaXgoMC4wNDMyMDk4NzY1NDMyMDk4NywwLDAsMC4wNDMyMDk4NzY1NDMyMDk4Nyw3Mi40MTk3NTMwODY0MTk3MywwKSIvPjx1c2UgeGxpbms6aHJlZj0iI2JxIiB0cmFuc2Zvcm09Im1hdHJpeCgwLjA0MzIwOTg3NjU0MzIwOTg3LDAsMCwwLjA0MzIwOTg3NjU0MzIwOTg3LDg1LjMzOTUwNjE3MjgzOTQ4LDApIi8+PHVzZSB4bGluazpocmVmPSIjYkEiIHRyYW5zZm9ybT0ibWF0cml4KDAuMDQzMjA5ODc2NTQzMjA5ODcsMCwwLDAuMDQzMjA5ODc2NTQzMjA5ODcsOTUuNzA5ODc2NTQzMjA5ODMsMCkiLz48dXNlIHhsaW5rOmhyZWY9IiNidCIgdHJhbnNmb3JtPSJtYXRyaXgoMC4wNDMyMDk4NzY1NDMyMDk4NywwLDAsMC4wNDMyMDk4NzY1NDMyMDk4NywxMDYuMDgwMjQ2OTEzNTgwMjEsMCkiLz48dXNlIHhsaW5rOmhyZWY9IiNiciIgdHJhbnNmb3JtPSJtYXRyaXgoMC4wNDMyMDk4NzY1NDMyMDk4NywwLDAsMC4wNDMyMDk4NzY1NDMyMDk4NywxMTUuNTQzMjA5ODc2NTQzMTYsMCkiLz48dXNlIHhsaW5rOmhyZWY9IiNieCIgdHJhbnNmb3JtPSJtYXRyaXgoMC4wNDMyMDk4NzY1NDMyMDk4NywwLDAsMC4wNDMyMDk4NzY1NDMyMDk4NywxMTkuODY0MTk3NTMwODY0MTUsMCkiLz48dXNlIHhsaW5rOmhyZWY9IiNidiIgdHJhbnNmb3JtPSJtYXRyaXgoMC4wNDMyMDk4NzY1NDMyMDk4NywwLDAsMC4wNDMyMDk4NzY1NDMyMDk4NywxMzEuOTYyOTYyOTYyOTYyOTMsMCkiLz48dXNlIHhsaW5rOmhyZWY9IiNieSIgdHJhbnNmb3JtPSJtYXRyaXgoMC4wNDMyMDk4NzY1NDMyMDk4NywwLDAsMC4wNDMyMDk4NzY1NDMyMDk4NywxNDMuMTU0MzIwOTg3NjU0MywwKSIvPjx1c2UgeGxpbms6aHJlZj0iI2JLIiB0cmFuc2Zvcm09Im1hdHJpeCgwLjA0MzIwOTg3NjU0MzIwOTg3LDAsMCwwLjA0MzIwOTg3NjU0MzIwOTg3LDE1MS43OTYyOTYyOTYyOTYyOCwwKSIvPjx1c2UgeGxpbms6aHJlZj0iI2J4IiB0cmFuc2Zvcm09Im1hdHJpeCgwLjA0MzIwOTg3NjU0MzIwOTg3LDAsMCwwLjA0MzIwOTg3NjU0MzIwOTg3LDE2MC40MzgyNzE2MDQ5MzgyNSwwKSIvPjx1c2UgeGxpbms6aHJlZj0iI2J6IiB0cmFuc2Zvcm09Im1hdHJpeCgwLjA0MzIwOTg3NjU0MzIwOTg3LDAsMCwwLjA0MzIwOTg3NjU0MzIwOTg3LDE3Mi41MzcwMzcwMzcwMzcsMCkiLz48dXNlIHhsaW5rOmhyZWY9IiNhViIgdHJhbnNmb3JtPSJtYXRyaXgoMC4wNDMyMDk4NzY1NDMyMDk4NywwLDAsMC4wNDMyMDk4NzY1NDMyMDk4NywxODEuNzQwNzQwNzQwNzQwNzMsMCkiLz48dXNlIHhsaW5rOmhyZWY9IiNiSyIgdHJhbnNmb3JtPSJtYXRyaXgoMC4wNDMyMDk4NzY1NDMyMDk4NywwLDAsMC4wNDMyMDk4NzY1NDMyMDk4NywxOTIuMTExMTExMTExMTExMTEsMCkiLz48dXNlIHhsaW5rOmhyZWY9IiNiciIgdHJhbnNmb3JtPSJtYXRyaXgoMC4wNDMyMDk4NzY1NDMyMDk4NywwLDAsMC4wNDMyMDk4NzY1NDMyMDk4NywyMDAuNzUzMDg2NDE5NzUzMSwwKSIvPjx1c2UgeGxpbms6aHJlZj0iI2J0IiB0cmFuc2Zvcm09Im1hdHJpeCgwLjA0MzIwOTg3NjU0MzIwOTg3LDAsMCwwLjA0MzIwOTg3NjU0MzIwOTg3LDIwNS4wNzQwNzQwNzQwNzQwOCwwKSIvPjx1c2UgeGxpbms6aHJlZj0iI2J6IiB0cmFuc2Zvcm09Im1hdHJpeCgwLjA0MzIwOTg3NjU0MzIwOTg3LDAsMCwwLjA0MzIwOTg3NjU0MzIwOTg3LDIxNC41MzcwMzcwMzcwMzcwNCwwKSIvPjx1c2UgeGxpbms6aHJlZj0iI2J5IiB0cmFuc2Zvcm09Im1hdHJpeCgwLjA0MzIwOTg3NjU0MzIwOTg3LDAsMCwwLjA0MzIwOTg3NjU0MzIwOTg3LDIyNC45MDc0MDc0MDc0MDc0NSwwKSIvPjx1c2UgeGxpbms6aHJlZj0iI2JyIiB0cmFuc2Zvcm09Im1hdHJpeCgwLjA0MzIwOTg3NjU0MzIwOTg3LDAsMCwwLjA0MzIwOTg3NjU0MzIwOTg3LDIzMy41NDkzODI3MTYwNDk0MiwwKSIvPjx1c2UgeGxpbms6aHJlZj0iI2JDIiB0cmFuc2Zvcm09Im1hdHJpeCgwLjA0MzIwOTg3NjU0MzIwOTg3LDAsMCwwLjA0MzIwOTg3NjU0MzIwOTg3LDIzNy44NzAzNzAzNzAzNzA0LDApIi8+PC9nPjxwYXRoIGlkPSJiUCIgZD0iTTE4LTEwMHYtMzZsMTc1LTc0djI3TDQyLTExOGwxNTEgNjR2MjciIGZpbGw9IiMzYTQxNGEiLz48dXNlIGlkPSJWIiB4bGluazpocmVmPSIjYlAiIHRyYW5zZm9ybT0ibWF0cml4KDAuMDQzMjA5ODc2NTQzMjA5ODcsMCwwLDAuMDQzMjA5ODc2NTQzMjA5ODcsMCwwKSIvPjxwYXRoIGlkPSJiUSIgZD0iTTE0MC0yNTFjODEgMCAxMjMgNDYgMTIzIDEyNkMyNjMtNTMgMjI4LTggMTYzIDFjNyAzMCAzMCA0OCA2OSA0MHYyM2MtNTUgMTYtOTUtMTUtMTAzLTYxQzU2LTMgMTctNDggMTctMTI1YzAtODAgNDItMTI2IDEyMy0xMjZ6bTAgMjI3YzYzIDAgODktNDEgODktMTAxcy0yOS05OS04OS05OWMtNjEgMC04OSAzOS04OSA5OVM3OS0yNSAxNDAtMjQiIGZpbGw9IiMzYTQxNGEiLz48ZyBpZD0iVyI+PHVzZSB4bGluazpocmVmPSIjYVoiIHRyYW5zZm9ybT0ibWF0cml4KDAuMDQzMjA5ODc2NTQzMjA5ODcsMCwwLDAuMDQzMjA5ODc2NTQzMjA5ODcsMCwwKSIvPjx1c2UgeGxpbms6aHJlZj0iI2FZIiB0cmFuc2Zvcm09Im1hdHJpeCgwLjA0MzIwOTg3NjU0MzIwOTg3LDAsMCwwLjA0MzIwOTg3NjU0MzIwOTg3LDUuMTQxOTc1MzA4NjQxOTc1LDApIi8+PHVzZSB4bGluazpocmVmPSIjYkwiIHRyYW5zZm9ybT0ibWF0cml4KDAuMDQzMjA5ODc2NTQzMjA5ODcsMCwwLDAuMDQzMjA5ODc2NTQzMjA5ODcsMTMuNzgzOTUwNjE3MjgzOTQ3LDApIi8+PHVzZSB4bGluazpocmVmPSIjYmIiIHRyYW5zZm9ybT0ibWF0cml4KDAuMDQzMjA5ODc2NTQzMjA5ODcsMCwwLDAuMDQzMjA5ODc2NTQzMjA5ODcsMjQuOTc1MzA4NjQxOTc1MzAzLDApIi8+PHVzZSB4bGluazpocmVmPSIjYVoiIHRyYW5zZm9ybT0ibWF0cml4KDAuMDQzMjA5ODc2NTQzMjA5ODcsMCwwLDAuMDQzMjA5ODc2NTQzMjA5ODcsMzMuNjE3MjgzOTUwNjE3MjgsMCkiLz48dXNlIHhsaW5rOmhyZWY9IiNiaSIgdHJhbnNmb3JtPSJtYXRyaXgoMC4wNDMyMDk4NzY1NDMyMDk4NywwLDAsMC4wNDMyMDk4NzY1NDMyMDk4NywzOC43NTkyNTkyNTkyNTkyNSwwKSIvPjx1c2UgeGxpbms6aHJlZj0iI2FWIiB0cmFuc2Zvcm09Im1hdHJpeCgwLjA0MzIwOTg3NjU0MzIwOTg3LDAsMCwwLjA0MzIwOTg3NjU0MzIwOTg3LDQ3LjQwMTIzNDU2NzkwMTIzLDApIi8+PHVzZSB4bGluazpocmVmPSIjYmkiIHRyYW5zZm9ybT0ibWF0cml4KDAuMDQzMjA5ODc2NTQzMjA5ODcsMCwwLDAuMDQzMjA5ODc2NTQzMjA5ODcsNTcuNzcxNjA0OTM4MjcxNTk0LDApIi8+PHVzZSB4bGluazpocmVmPSIjYkkiIHRyYW5zZm9ybT0ibWF0cml4KDAuMDQzMjA5ODc2NTQzMjA5ODcsMCwwLDAuMDQzMjA5ODc2NTQzMjA5ODcsNjYuNDEzNTgwMjQ2OTEzNTcsMCkiLz48dXNlIHhsaW5rOmhyZWY9IiNibSIgdHJhbnNmb3JtPSJtYXRyaXgoMC4wNDMyMDk4NzY1NDMyMDk4NywwLDAsMC4wNDMyMDk4NzY1NDMyMDk4Nyw2OS44MjcxNjA0OTM4MjcxNSwwKSIvPjx1c2UgeGxpbms6aHJlZj0iI2JrIiB0cmFuc2Zvcm09Im1hdHJpeCgwLjA0MzIwOTg3NjU0MzIwOTg3LDAsMCwwLjA0MzIwOTg3NjU0MzIwOTg3LDc4LjQ2OTEzNTgwMjQ2OTEzLDApIi8+PHVzZSB4bGluazpocmVmPSIjYVgiIHRyYW5zZm9ybT0ibWF0cml4KDAuMDQzMjA5ODc2NTQzMjA5ODcsMCwwLDAuMDQzMjA5ODc2NTQzMjA5ODcsODYuMjQ2OTEzNTgwMjQ2OSwwKSIvPjx1c2UgeGxpbms6aHJlZj0iI2JKIiB0cmFuc2Zvcm09Im1hdHJpeCgwLjA0MzIwOTg3NjU0MzIwOTg3LDAsMCwwLjA0MzIwOTg3NjU0MzIwOTg3LDkwLjU2NzkwMTIzNDU2Nzg4LDApIi8+PHVzZSB4bGluazpocmVmPSIjYVkiIHRyYW5zZm9ybT0ibWF0cml4KDAuMDQzMjA5ODc2NTQzMjA5ODcsMCwwLDAuMDQzMjA5ODc2NTQzMjA5ODcsMTAzLjQ4NzY1NDMyMDk4NzYzLDApIi8+PHVzZSB4bGluazpocmVmPSIjYmEiIHRyYW5zZm9ybT0ibWF0cml4KDAuMDQzMjA5ODc2NTQzMjA5ODcsMCwwLDAuMDQzMjA5ODc2NTQzMjA5ODcsMTEyLjEyOTYyOTYyOTYyOTYsMCkiLz48dXNlIHhsaW5rOmhyZWY9IiNhWCIgdHJhbnNmb3JtPSJtYXRyaXgoMC4wNDMyMDk4NzY1NDMyMDk4NywwLDAsMC4wNDMyMDk4NzY1NDMyMDk4NywxMjAuNzcxNjA0OTM4MjcxNTgsMCkiLz48dXNlIHhsaW5rOmhyZWY9IiNiUSIgdHJhbnNmb3JtPSJtYXRyaXgoMC4wNDMyMDk4NzY1NDMyMDk4NywwLDAsMC4wNDMyMDk4NzY1NDMyMDk4NywxMjUuMDkyNTkyNTkyNTkyNTcsMCkiLz48dXNlIHhsaW5rOmhyZWY9IiNhWCIgdHJhbnNmb3JtPSJtYXRyaXgoMC4wNDMyMDk4NzY1NDMyMDk4NywwLDAsMC4wNDMyMDk4NzY1NDMyMDk4NywxMzcuMTkxMzU4MDI0NjkxMzQsMCkiLz48dXNlIHhsaW5rOmhyZWY9IiNiSCIgdHJhbnNmb3JtPSJtYXRyaXgoMC4wNDMyMDk4NzY1NDMyMDk4NywwLDAsMC4wNDMyMDk4NzY1NDMyMDk4NywxNDEuNTEyMzQ1Njc5MDEyMzMsMCkiLz48L2c+PGcgaWQ9IlgiPjx1c2UgeGxpbms6aHJlZj0iI2FZIiB0cmFuc2Zvcm09Im1hdHJpeCgwLjA0MzIwOTg3NjU0MzIwOTg3LDAsMCwwLjA0MzIwOTg3NjU0MzIwOTg3LDAsMCkiLz48dXNlIHhsaW5rOmhyZWY9IiNhWiIgdHJhbnNmb3JtPSJtYXRyaXgoMC4wNDMyMDk4NzY1NDMyMDk4NywwLDAsMC4wNDMyMDk4NzY1NDMyMDk4Nyw4LjY0MTk3NTMwODY0MTk3MywwKSIvPjx1c2UgeGxpbms6aHJlZj0iI2FaIiB0cmFuc2Zvcm09Im1hdHJpeCgwLjA0MzIwOTg3NjU0MzIwOTg3LDAsMCwwLjA0MzIwOTg3NjU0MzIwOTg3LDEzLjc4Mzk1MDYxNzI4Mzk0NywwKSIvPjx1c2UgeGxpbms6aHJlZj0iI2JoIiB0cmFuc2Zvcm09Im1hdHJpeCgwLjA0MzIwOTg3NjU0MzIwOTg3LDAsMCwwLjA0MzIwOTg3NjU0MzIwOTg3LDE4LjkyNTkyNTkyNTkyNTkyNCwwKSIvPjx1c2UgeGxpbms6aHJlZj0iI2FaIiB0cmFuc2Zvcm09Im1hdHJpeCgwLjA0MzIwOTg3NjU0MzIwOTg3LDAsMCwwLjA0MzIwOTg3NjU0MzIwOTg3LDI3LjU2NzkwMTIzNDU2NzksMCkiLz48L2c+PGcgaWQ9IlkiPjx1c2UgeGxpbms6aHJlZj0iI2JKIiB0cmFuc2Zvcm09Im1hdHJpeCgwLjA0MzIwOTg3NjU0MzIwOTg3LDAsMCwwLjA0MzIwOTg3NjU0MzIwOTg3LDAsMCkiLz48dXNlIHhsaW5rOmhyZWY9IiNiayIgdHJhbnNmb3JtPSJtYXRyaXgoMC4wNDMyMDk4NzY1NDMyMDk4NywwLDAsMC4wNDMyMDk4NzY1NDMyMDk4NywxMi45MTk3NTMwODY0MTk3NSwwKSIvPjx1c2UgeGxpbms6aHJlZj0iI2JGIiB0cmFuc2Zvcm09Im1hdHJpeCgwLjA0MzIwOTg3NjU0MzIwOTg3LDAsMCwwLjA0MzIwOTg3NjU0MzIwOTg3LDIwLjY5NzUzMDg2NDE5NzUyNSwwKSIvPjwvZz48cGF0aCBpZD0iYlIiIGQ9Ik0xOTUgMGwtNzQtMTA4TDQ1IDBIOGw5NC0xMjktODctMTE5aDM3bDY5IDk4IDY3LTk4aDM3bC04NCAxMThMMjMzIDBoLTM4IiBmaWxsPSIjM2E0MTRhIi8+PGcgaWQ9IloiPjx1c2UgeGxpbms6aHJlZj0iI2J3IiB0cmFuc2Zvcm09Im1hdHJpeCgwLjA0MzIwOTg3NjU0MzIwOTg3LDAsMCwwLjA0MzIwOTg3NjU0MzIwOTg3LDAsMCkiLz48dXNlIHhsaW5rOmhyZWY9IiNidSIgdHJhbnNmb3JtPSJtYXRyaXgoMC4wNDMyMDk4NzY1NDMyMDk4NywwLDAsMC4wNDMyMDk4NzY1NDMyMDk4NywxMS4xOTEzNTgwMjQ2OTEzNTYsMCkiLz48dXNlIHhsaW5rOmhyZWY9IiNicSIgdHJhbnNmb3JtPSJtYXRyaXgoMC4wNDMyMDk4NzY1NDMyMDk4NywwLDAsMC4wNDMyMDk4NzY1NDMyMDk4NywyMi4zODI3MTYwNDkzODI3MSwwKSIvPjx1c2UgeGxpbms6aHJlZj0iI2JDIiB0cmFuc2Zvcm09Im1hdHJpeCgwLjA0MzIwOTg3NjU0MzIwOTg3LDAsMCwwLjA0MzIwOTg3NjU0MzIwOTg3LDMyLjc1MzA4NjQxOTc1MzA4LDApIi8+PHVzZSB4bGluazpocmVmPSIjYnIiIHRyYW5zZm9ybT0ibWF0cml4KDAuMDQzMjA5ODc2NTQzMjA5ODcsMCwwLDAuMDQzMjA5ODc2NTQzMjA5ODcsNDMuOTQ0NDQ0NDQ0NDQ0NDM2LDApIi8+PHVzZSB4bGluazpocmVmPSIjYnQiIHRyYW5zZm9ybT0ibWF0cml4KDAuMDQzMjA5ODc2NTQzMjA5ODcsMCwwLDAuMDQzMjA5ODc2NTQzMjA5ODcsNDguMjY1NDMyMDk4NzY1NDIsMCkiLz48dXNlIHhsaW5rOmhyZWY9IiNieSIgdHJhbnNmb3JtPSJtYXRyaXgoMC4wNDMyMDk4NzY1NDMyMDk4NywwLDAsMC4wNDMyMDk4NzY1NDMyMDk4Nyw1Ny43MjgzOTUwNjE3MjgzODUsMCkiLz48dXNlIHhsaW5rOmhyZWY9IiNiSyIgdHJhbnNmb3JtPSJtYXRyaXgoMC4wNDMyMDk4NzY1NDMyMDk4NywwLDAsMC4wNDMyMDk4NzY1NDMyMDk4Nyw2Ni4zNzAzNzAzNzAzNzAzNSwwKSIvPjx1c2UgeGxpbms6aHJlZj0iI2JyIiB0cmFuc2Zvcm09Im1hdHJpeCgwLjA0MzIwOTg3NjU0MzIwOTg3LDAsMCwwLjA0MzIwOTg3NjU0MzIwOTg3LDc1LjAxMjM0NTY3OTAxMjMzLDApIi8+PHVzZSB4bGluazpocmVmPSIjYk8iIHRyYW5zZm9ybT0ibWF0cml4KDAuMDQzMjA5ODc2NTQzMjA5ODcsMCwwLDAuMDQzMjA5ODc2NTQzMjA5ODcsNzkuMzMzMzMzMzMzMzMzMzEsMCkiLz48dXNlIHhsaW5rOmhyZWY9IiNiciIgdHJhbnNmb3JtPSJtYXRyaXgoMC4wNDMyMDk4NzY1NDMyMDk4NywwLDAsMC4wNDMyMDk4NzY1NDMyMDk4Nyw5Mi4yNTMwODY0MTk3NTMwNiwwKSIvPjx1c2UgeGxpbms6aHJlZj0iI2J0IiB0cmFuc2Zvcm09Im1hdHJpeCgwLjA0MzIwOTg3NjU0MzIwOTg3LDAsMCwwLjA0MzIwOTg3NjU0MzIwOTg3LDk2LjU3NDA3NDA3NDA3NDA1LDApIi8+PHVzZSB4bGluazpocmVmPSIjYnkiIHRyYW5zZm9ybT0ibWF0cml4KDAuMDQzMjA5ODc2NTQzMjA5ODcsMCwwLDAuMDQzMjA5ODc2NTQzMjA5ODcsMTA2LjAzNzAzNzAzNzAzNzAxLDApIi8+PHVzZSB4bGluazpocmVmPSIjYnEiIHRyYW5zZm9ybT0ibWF0cml4KDAuMDQzMjA5ODc2NTQzMjA5ODcsMCwwLDAuMDQzMjA5ODc2NTQzMjA5ODcsMTE0LjY3OTAxMjM0NTY3ODk4LDApIi8+PHVzZSB4bGluazpocmVmPSIjYlIiIHRyYW5zZm9ybT0ibWF0cml4KDAuMDQzMjA5ODc2NTQzMjA5ODcsMCwwLDAuMDQzMjA5ODc2NTQzMjA5ODcsMTI1LjA0OTM4MjcxNjA0OTM1LDApIi8+PHVzZSB4bGluazpocmVmPSIjYnciIHRyYW5zZm9ybT0ibWF0cml4KDAuMDQzMjA5ODc2NTQzMjA5ODcsMCwwLDAuMDQzMjA5ODc2NTQzMjA5ODcsMTM1LjQxOTc1MzA4NjQxOTcyLDApIi8+PHVzZSB4bGluazpocmVmPSIjYnEiIHRyYW5zZm9ybT0ibWF0cml4KDAuMDQzMjA5ODc2NTQzMjA5ODcsMCwwLDAuMDQzMjA5ODc2NTQzMjA5ODcsMTQ2LjYxMTExMTExMTExMTEsMCkiLz48dXNlIHhsaW5rOmhyZWY9IiNicSIgdHJhbnNmb3JtPSJtYXRyaXgoMC4wNDMyMDk4NzY1NDMyMDk4NywwLDAsMC4wNDMyMDk4NzY1NDMyMDk4NywxNTYuOTgxNDgxNDgxNDgxNDcsMCkiLz48dXNlIHhsaW5rOmhyZWY9IiNiQyIgdHJhbnNmb3JtPSJtYXRyaXgoMC4wNDMyMDk4NzY1NDMyMDk4NywwLDAsMC4wNDMyMDk4NzY1NDMyMDk4NywxNjcuMzUxODUxODUxODUxODUsMCkiLz48dXNlIHhsaW5rOmhyZWY9IiNicSIgdHJhbnNmb3JtPSJtYXRyaXgoMC4wNDMyMDk4NzY1NDMyMDk4NywwLDAsMC4wNDMyMDk4NzY1NDMyMDk4NywxNzguNTQzMjA5ODc2NTQzMjIsMCkiLz48dXNlIHhsaW5rOmhyZWY9IiNiQyIgdHJhbnNmb3JtPSJtYXRyaXgoMC4wNDMyMDk4NzY1NDMyMDk4NywwLDAsMC4wNDMyMDk4NzY1NDMyMDk4NywxODguOTEzNTgwMjQ2OTEzNTcsMCkiLz48L2c+PGcgaWQ9ImFhIj48dXNlIHhsaW5rOmhyZWY9IiNiYiIgdHJhbnNmb3JtPSJtYXRyaXgoMC4wNDMyMDk4NzY1NDMyMDk4NywwLDAsMC4wNDMyMDk4NzY1NDMyMDk4NywwLDApIi8+PHVzZSB4bGluazpocmVmPSIjYmEiIHRyYW5zZm9ybT0ibWF0cml4KDAuMDQzMjA5ODc2NTQzMjA5ODcsMCwwLDAuMDQzMjA5ODc2NTQzMjA5ODcsOC42NDE5NzUzMDg2NDE5NzMsMCkiLz48dXNlIHhsaW5rOmhyZWY9IiNiaSIgdHJhbnNmb3JtPSJtYXRyaXgoMC4wNDMyMDk4NzY1NDMyMDk4NywwLDAsMC4wNDMyMDk4NzY1NDMyMDk4NywxNy4yODM5NTA2MTcyODM5NDYsMCkiLz48L2c+PGcgaWQ9ImFiIj48dXNlIHhsaW5rOmhyZWY9IiNiTiIgdHJhbnNmb3JtPSJtYXRyaXgoMC4wNDMyMDk4NzY1NDMyMDk4NywwLDAsMC4wNDMyMDk4NzY1NDMyMDk4NywwLDApIi8+PHVzZSB4bGluazpocmVmPSIjYnQiIHRyYW5zZm9ybT0ibWF0cml4KDAuMDQzMjA5ODc2NTQzMjA5ODcsMCwwLDAuMDQzMjA5ODc2NTQzMjA5ODcsMi45MzgyNzE2MDQ5MzgyNzEsMCkiLz48dXNlIHhsaW5rOmhyZWY9IiNiaCIgdHJhbnNmb3JtPSJtYXRyaXgoMC4wNDMyMDk4NzY1NDMyMDk4NywwLDAsMC4wNDMyMDk4NzY1NDMyMDk4NywxMC42NzI4Mzk1MDYxNzI4MzcsMCkiLz48dXNlIHhsaW5rOmhyZWY9IiNhWCIgdHJhbnNmb3JtPSJtYXRyaXgoMC4wNDMyMDk4NzY1NDMyMDk4NywwLDAsMC4wNDMyMDk4NzY1NDMyMDk4NywxOS4zMTQ4MTQ4MTQ4MTQ4MSwwKSIvPjx1c2UgeGxpbms6aHJlZj0iI2JiIiB0cmFuc2Zvcm09Im1hdHJpeCgwLjA0MzIwOTg3NjU0MzIwOTg3LDAsMCwwLjA0MzIwOTg3NjU0MzIwOTg3LDIzLjYzNTgwMjQ2OTEzNTc5NywwKSIvPjx1c2UgeGxpbms6aHJlZj0iI2FXIiB0cmFuc2Zvcm09Im1hdHJpeCgwLjA0MzIwOTg3NjU0MzIwOTg3LDAsMCwwLjA0MzIwOTg3NjU0MzIwOTg3LDMyLjI3Nzc3Nzc3Nzc3Nzc3LDApIi8+PC9nPjxnIGlkPSJhYyI+PHVzZSB4bGluazpocmVmPSIjYk0iIHRyYW5zZm9ybT0ibWF0cml4KDAuMDQzMjA5ODc2NTQzMjA5ODcsMCwwLDAuMDQzMjA5ODc2NTQzMjA5ODcsMCwwKSIvPjx1c2UgeGxpbms6aHJlZj0iI2JoIiB0cmFuc2Zvcm09Im1hdHJpeCgwLjA0MzIwOTg3NjU0MzIwOTg3LDAsMCwwLjA0MzIwOTg3NjU0MzIwOTg3LDguNjQxOTc1MzA4NjQxOTczLDApIi8+PHVzZSB4bGluazpocmVmPSIjYmMiIHRyYW5zZm9ybT0ibWF0cml4KDAuMDQzMjA5ODc2NTQzMjA5ODcsMCwwLDAuMDQzMjA5ODc2NTQzMjA5ODcsMTcuMjgzOTUwNjE3MjgzOTQ2LDApIi8+PHVzZSB4bGluazpocmVmPSIjYmEiIHRyYW5zZm9ybT0ibWF0cml4KDAuMDQzMjA5ODc2NTQzMjA5ODcsMCwwLDAuMDQzMjA5ODc2NTQzMjA5ODcsMjAuNjk3NTMwODY0MTk3NTI1LDApIi8+PHVzZSB4bGluazpocmVmPSIjYVgiIHRyYW5zZm9ybT0ibWF0cml4KDAuMDQzMjA5ODc2NTQzMjA5ODcsMCwwLDAuMDQzMjA5ODc2NTQzMjA5ODcsMjkuMzM5NTA2MTcyODM5NSwwKSIvPjx1c2UgeGxpbms6aHJlZj0iI2JrIiB0cmFuc2Zvcm09Im1hdHJpeCgwLjA0MzIwOTg3NjU0MzIwOTg3LDAsMCwwLjA0MzIwOTg3NjU0MzIwOTg3LDMzLjY2MDQ5MzgyNzE2MDQ5LDApIi8+PC9nPjxnIGlkPSJhZCI+PHVzZSB4bGluazpocmVmPSIjYVoiIHRyYW5zZm9ybT0ibWF0cml4KDAuMDQzMjA5ODc2NTQzMjA5ODcsMCwwLDAuMDQzMjA5ODc2NTQzMjA5ODcsMCwwKSIvPjx1c2UgeGxpbms6aHJlZj0iI2FZIiB0cmFuc2Zvcm09Im1hdHJpeCgwLjA0MzIwOTg3NjU0MzIwOTg3LDAsMCwwLjA0MzIwOTg3NjU0MzIwOTg3LDUuMTQxOTc1MzA4NjQxOTc1LDApIi8+PHVzZSB4bGluazpocmVmPSIjYmYiIHRyYW5zZm9ybT0ibWF0cml4KDAuMDQzMjA5ODc2NTQzMjA5ODcsMCwwLDAuMDQzMjA5ODc2NTQzMjA5ODcsMTMuNzgzOTUwNjE3MjgzOTQ3LDApIi8+PHVzZSB4bGluazpocmVmPSIjYm0iIHRyYW5zZm9ybT0ibWF0cml4KDAuMDQzMjA5ODc2NTQzMjA5ODcsMCwwLDAuMDQzMjA5ODc2NTQzMjA5ODcsMTguMTA0OTM4MjcxNjA0OTMzLDApIi8+PHVzZSB4bGluazpocmVmPSIjYmEiIHRyYW5zZm9ybT0ibWF0cml4KDAuMDQzMjA5ODc2NTQzMjA5ODcsMCwwLDAuMDQzMjA5ODc2NTQzMjA5ODcsMjYuNzQ2OTEzNTgwMjQ2OTA0LDApIi8+PHVzZSB4bGluazpocmVmPSIjYmkiIHRyYW5zZm9ybT0ibWF0cml4KDAuMDQzMjA5ODc2NTQzMjA5ODcsMCwwLDAuMDQzMjA5ODc2NTQzMjA5ODcsMzUuMzg4ODg4ODg4ODg4ODgsMCkiLz48dXNlIHhsaW5rOmhyZWY9IiNhWSIgdHJhbnNmb3JtPSJtYXRyaXgoMC4wNDMyMDk4NzY1NDMyMDk4NywwLDAsMC4wNDMyMDk4NzY1NDMyMDk4Nyw0NC4wMzA4NjQxOTc1MzA4NSwwKSIvPjx1c2UgeGxpbms6aHJlZj0iI2JpIiB0cmFuc2Zvcm09Im1hdHJpeCgwLjA0MzIwOTg3NjU0MzIwOTg3LDAsMCwwLjA0MzIwOTg3NjU0MzIwOTg3LDUyLjY3MjgzOTUwNjE3MjgzLDApIi8+PC9nPjxnIGlkPSJhZSI+PHVzZSB4bGluazpocmVmPSIjYVkiIHRyYW5zZm9ybT0ibWF0cml4KDAuMDQzMjA5ODc2NTQzMjA5ODcsMCwwLDAuMDQzMjA5ODc2NTQzMjA5ODcsMCwwKSIvPjx1c2UgeGxpbms6aHJlZj0iI2JqIiB0cmFuc2Zvcm09Im1hdHJpeCgwLjA0MzIwOTg3NjU0MzIwOTg3LDAsMCwwLjA0MzIwOTg3NjU0MzIwOTg3LDguNjQxOTc1MzA4NjQxOTczLDApIi8+PHVzZSB4bGluazpocmVmPSIjYmciIHRyYW5zZm9ybT0ibWF0cml4KDAuMDQzMjA5ODc2NTQzMjA5ODcsMCwwLDAuMDQzMjA5ODc2NTQzMjA5ODcsMTYuNDE5NzUzMDg2NDE5NzUsMCkiLz48dXNlIHhsaW5rOmhyZWY9IiNhWSIgdHJhbnNmb3JtPSJtYXRyaXgoMC4wNDMyMDk4NzY1NDMyMDk4NywwLDAsMC4wNDMyMDk4NzY1NDMyMDk4NywyNC4xOTc1MzA4NjQxOTc1MjUsMCkiLz48dXNlIHhsaW5rOmhyZWY9IiNhWSIgdHJhbnNmb3JtPSJtYXRyaXgoMC4wNDMyMDk4NzY1NDMyMDk4NywwLDAsMC4wNDMyMDk4NzY1NDMyMDk4NywzMi44Mzk1MDYxNzI4Mzk1LDApIi8+PHVzZSB4bGluazpocmVmPSIjYmkiIHRyYW5zZm9ybT0ibWF0cml4KDAuMDQzMjA5ODc2NTQzMjA5ODcsMCwwLDAuMDQzMjA5ODc2NTQzMjA5ODcsNDEuNDgxNDgxNDgxNDgxNDc0LDApIi8+PC9nPjxwYXRoIGlkPSJiUyIgZD0iTTEwNi0xNjlDMzQtMTY5IDYyLTY3IDU3IDBIMjV2LTI2MWgzMmwtMSAxMDNjMTItMjEgMjgtMzYgNjEtMzYgODkgMCA1MyAxMTYgNjAgMTk0aC0zMnYtMTIxYzItMzItOC00OS0zOS00OCIgZmlsbD0iIzNhNDE0YSIvPjxnIGlkPSJhZiI+PHVzZSB4bGluazpocmVmPSIjYVgiIHRyYW5zZm9ybT0ibWF0cml4KDAuMDQzMjA5ODc2NTQzMjA5ODcsMCwwLDAuMDQzMjA5ODc2NTQzMjA5ODcsMCwwKSIvPjx1c2UgeGxpbms6aHJlZj0iI2JTIiB0cmFuc2Zvcm09Im1hdHJpeCgwLjA0MzIwOTg3NjU0MzIwOTg3LDAsMCwwLjA0MzIwOTg3NjU0MzIwOTg3LDQuMzIwOTg3NjU0MzIwOTg2LDApIi8+PHVzZSB4bGluazpocmVmPSIjYVkiIHRyYW5zZm9ybT0ibWF0cml4KDAuMDQzMjA5ODc2NTQzMjA5ODcsMCwwLDAuMDQzMjA5ODc2NTQzMjA5ODcsMTIuOTYyOTYyOTYyOTYyOTU4LDApIi8+PC9nPjxnIGlkPSJhZyI+PHVzZSB4bGluazpocmVmPSIjYmMiIHRyYW5zZm9ybT0ibWF0cml4KDAuMDQzMjA5ODc2NTQzMjA5ODcsMCwwLDAuMDQzMjA5ODc2NTQzMjA5ODcsMCwwKSIvPjx1c2UgeGxpbms6aHJlZj0iI2JhIiB0cmFuc2Zvcm09Im1hdHJpeCgwLjA0MzIwOTg3NjU0MzIwOTg3LDAsMCwwLjA0MzIwOTg3NjU0MzIwOTg3LDMuNDEzNTgwMjQ2OTEzNTc5NCwwKSIvPjx1c2UgeGxpbms6aHJlZj0iI2FYIiB0cmFuc2Zvcm09Im1hdHJpeCgwLjA0MzIwOTg3NjU0MzIwOTg3LDAsMCwwLjA0MzIwOTg3NjU0MzIwOTg3LDEyLjA1NTU1NTU1NTU1NTU1NCwwKSIvPjx1c2UgeGxpbms6aHJlZj0iI2JjIiB0cmFuc2Zvcm09Im1hdHJpeCgwLjA0MzIwOTg3NjU0MzIwOTg3LDAsMCwwLjA0MzIwOTg3NjU0MzIwOTg3LDE2LjM3NjU0MzIwOTg3NjUzNywwKSIvPjx1c2UgeGxpbms6aHJlZj0iI2JiIiB0cmFuc2Zvcm09Im1hdHJpeCgwLjA0MzIwOTg3NjU0MzIwOTg3LDAsMCwwLjA0MzIwOTg3NjU0MzIwOTg3LDE5Ljc5MDEyMzQ1Njc5MDExNiwwKSIvPjx1c2UgeGxpbms6aHJlZj0iI2FXIiB0cmFuc2Zvcm09Im1hdHJpeCgwLjA0MzIwOTg3NjU0MzIwOTg3LDAsMCwwLjA0MzIwOTg3NjU0MzIwOTg3LDI4LjQzMjA5ODc2NTQzMjA4NywwKSIvPjwvZz48ZyBpZD0iYWgiPjx1c2UgeGxpbms6aHJlZj0iI2JpIiB0cmFuc2Zvcm09Im1hdHJpeCgwLjA0MzIwOTg3NjU0MzIwOTg3LDAsMCwwLjA0MzIwOTg3NjU0MzIwOTg3LDAsMCkiLz48dXNlIHhsaW5rOmhyZWY9IiNhWSIgdHJhbnNmb3JtPSJtYXRyaXgoMC4wNDMyMDk4NzY1NDMyMDk4NywwLDAsMC4wNDMyMDk4NzY1NDMyMDk4Nyw4LjY0MTk3NTMwODY0MTk3MywwKSIvPjx1c2UgeGxpbms6aHJlZj0iI2JHIiB0cmFuc2Zvcm09Im1hdHJpeCgwLjA0MzIwOTg3NjU0MzIwOTg3LDAsMCwwLjA0MzIwOTg3NjU0MzIwOTg3LDE3LjI4Mzk1MDYxNzI4Mzk0NiwwKSIvPjx1c2UgeGxpbms6aHJlZj0iI2JjIiB0cmFuc2Zvcm09Im1hdHJpeCgwLjA0MzIwOTg3NjU0MzIwOTg3LDAsMCwwLjA0MzIwOTg3NjU0MzIwOTg3LDI1LjkyNTkyNTkyNTkyNTkxNywwKSIvPjx1c2UgeGxpbms6aHJlZj0iI2FYIiB0cmFuc2Zvcm09Im1hdHJpeCgwLjA0MzIwOTg3NjU0MzIwOTg3LDAsMCwwLjA0MzIwOTg3NjU0MzIwOTg3LDI5LjMzOTUwNjE3MjgzOTQ5NiwwKSIvPjx1c2UgeGxpbms6aHJlZj0iI2JOIiB0cmFuc2Zvcm09Im1hdHJpeCgwLjA0MzIwOTg3NjU0MzIwOTg3LDAsMCwwLjA0MzIwOTg3NjU0MzIwOTg3LDMzLjY2MDQ5MzgyNzE2MDQ4LDApIi8+PC9nPjxnIGlkPSJhaSI+PHVzZSB4bGluazpocmVmPSIjYnUiIHRyYW5zZm9ybT0ibWF0cml4KDAuMDQzMjA5ODc2NTQzMjA5ODcsMCwwLDAuMDQzMjA5ODc2NTQzMjA5ODcsMCwwKSIvPjx1c2UgeGxpbms6aHJlZj0iI2FZIiB0cmFuc2Zvcm09Im1hdHJpeCgwLjA0MzIwOTg3NjU0MzIwOTg3LDAsMCwwLjA0MzIwOTg3NjU0MzIwOTg3LDExLjE5MTM1ODAyNDY5MTM1NiwwKSIvPjx1c2UgeGxpbms6aHJlZj0iI2JFIiB0cmFuc2Zvcm09Im1hdHJpeCgwLjA0MzIwOTg3NjU0MzIwOTg3LDAsMCwwLjA0MzIwOTg3NjU0MzIwOTg3LDE5LjgzMzMzMzMzMzMzMzMzLDApIi8+PHVzZSB4bGluazpocmVmPSIjYm0iIHRyYW5zZm9ybT0ibWF0cml4KDAuMDQzMjA5ODc2NTQzMjA5ODcsMCwwLDAuMDQzMjA5ODc2NTQzMjA5ODcsMjguNDc1MzA4NjQxOTc1MzAzLDApIi8+PHVzZSB4bGluazpocmVmPSIjYVkiIHRyYW5zZm9ybT0ibWF0cml4KDAuMDQzMjA5ODc2NTQzMjA5ODcsMCwwLDAuMDQzMjA5ODc2NTQzMjA5ODcsMzcuMTE3MjgzOTUwNjE3MjgsMCkiLz48dXNlIHhsaW5rOmhyZWY9IiNiayIgdHJhbnNmb3JtPSJtYXRyaXgoMC4wNDMyMDk4NzY1NDMyMDk4NywwLDAsMC4wNDMyMDk4NzY1NDMyMDk4Nyw0NS43NTkyNTkyNTkyNTkyNSwwKSIvPjx1c2UgeGxpbms6aHJlZj0iI2FYIiB0cmFuc2Zvcm09Im1hdHJpeCgwLjA0MzIwOTg3NjU0MzIwOTg3LDAsMCwwLjA0MzIwOTg3NjU0MzIwOTg3LDUzLjUzNzAzNzAzNzAzNzA0LDApIi8+PC9nPjxnIGlkPSJhaiI+PHVzZSB4bGluazpocmVmPSIjYmYiIHRyYW5zZm9ybT0ibWF0cml4KDAuMDQzMjA5ODc2NTQzMjA5ODcsMCwwLDAuMDQzMjA5ODc2NTQzMjA5ODcsMCwwKSIvPjx1c2UgeGxpbms6aHJlZj0iI2JiIiB0cmFuc2Zvcm09Im1hdHJpeCgwLjA0MzIwOTg3NjU0MzIwOTg3LDAsMCwwLjA0MzIwOTg3NjU0MzIwOTg3LDQuMzIwOTg3NjU0MzIwOTg2LDApIi8+PHVzZSB4bGluazpocmVmPSIjYmMiIHRyYW5zZm9ybT0ibWF0cml4KDAuMDQzMjA5ODc2NTQzMjA5ODcsMCwwLDAuMDQzMjA5ODc2NTQzMjA5ODcsMTIuOTYyOTYyOTYyOTYyOTU4LDApIi8+PHVzZSB4bGluazpocmVmPSIjYVciIHRyYW5zZm9ybT0ibWF0cml4KDAuMDQzMjA5ODc2NTQzMjA5ODcsMCwwLDAuMDQzMjA5ODc2NTQzMjA5ODcsMTYuMzc2NTQzMjA5ODc2NTM3LDApIi8+PHVzZSB4bGluazpocmVmPSIjYVkiIHRyYW5zZm9ybT0ibWF0cml4KDAuMDQzMjA5ODc2NTQzMjA5ODcsMCwwLDAuMDQzMjA5ODc2NTQzMjA5ODcsMTkuNzkwMTIzNDU2NzkwMTE2LDApIi8+PHVzZSB4bGluazpocmVmPSIjYmkiIHRyYW5zZm9ybT0ibWF0cml4KDAuMDQzMjA5ODc2NTQzMjA5ODcsMCwwLDAuMDQzMjA5ODc2NTQzMjA5ODcsMjguNDMyMDk4NzY1NDMyMDg3LDApIi8+PC9nPjxwYXRoIGlkPSJiVCIgZD0iTTI2NiAwaC00MGwtNTYtMjEwTDExNSAwSDc1TDItMjQ4aDM1TDk2LTMwbDE1LTY0IDQzLTE1NGgzMmw1OSAyMTggNTktMjE4aDM1IiBmaWxsPSIjM2E0MTRhIi8+PGcgaWQ9ImFrIj48dXNlIHhsaW5rOmhyZWY9IiNiQyIgdHJhbnNmb3JtPSJtYXRyaXgoMC4wNDMyMDk4NzY1NDMyMDk4NywwLDAsMC4wNDMyMDk4NzY1NDMyMDk4NywwLDApIi8+PHVzZSB4bGluazpocmVmPSIjYnEiIHRyYW5zZm9ybT0ibWF0cml4KDAuMDQzMjA5ODc2NTQzMjA5ODcsMCwwLDAuMDQzMjA5ODc2NTQzMjA5ODcsMTEuMTkxMzU4MDI0NjkxMzU2LDApIi8+PHVzZSB4bGluazpocmVmPSIjYksiIHRyYW5zZm9ybT0ibWF0cml4KDAuMDQzMjA5ODc2NTQzMjA5ODcsMCwwLDAuMDQzMjA5ODc2NTQzMjA5ODcsMjEuNTYxNzI4Mzk1MDYxNzI0LDApIi8+PHVzZSB4bGluazpocmVmPSIjYnEiIHRyYW5zZm9ybT0ibWF0cml4KDAuMDQzMjA5ODc2NTQzMjA5ODcsMCwwLDAuMDQzMjA5ODc2NTQzMjA5ODcsMzAuMjAzNzAzNzAzNzAzNywwKSIvPjx1c2UgeGxpbms6aHJlZj0iI2J0IiB0cmFuc2Zvcm09Im1hdHJpeCgwLjA0MzIwOTg3NjU0MzIwOTg3LDAsMCwwLjA0MzIwOTg3NjU0MzIwOTg3LDQwLjU3NDA3NDA3NDA3NDA2LDApIi8+PHVzZSB4bGluazpocmVmPSIjYnEiIHRyYW5zZm9ybT0ibWF0cml4KDAuMDQzMjA5ODc2NTQzMjA5ODcsMCwwLDAuMDQzMjA5ODc2NTQzMjA5ODcsNTAuMDM3MDM3MDM3MDM3MDI0LDApIi8+PHVzZSB4bGluazpocmVmPSIjYkMiIHRyYW5zZm9ybT0ibWF0cml4KDAuMDQzMjA5ODc2NTQzMjA5ODcsMCwwLDAuMDQzMjA5ODc2NTQzMjA5ODcsNjAuNDA3NDA3NDA3NDA3NCwwKSIvPjx1c2UgeGxpbms6aHJlZj0iI2J5IiB0cmFuc2Zvcm09Im1hdHJpeCgwLjA0MzIwOTg3NjU0MzIwOTg3LDAsMCwwLjA0MzIwOTg3NjU0MzIwOTg3LDcxLjU5ODc2NTQzMjA5ODc0LDApIi8+PHVzZSB4bGluazpocmVmPSIjYnUiIHRyYW5zZm9ybT0ibWF0cml4KDAuMDQzMjA5ODc2NTQzMjA5ODcsMCwwLDAuMDQzMjA5ODc2NTQzMjA5ODcsODAuMjQwNzQwNzQwNzQwNzIsMCkiLz48dXNlIHhsaW5rOmhyZWY9IiNicSIgdHJhbnNmb3JtPSJtYXRyaXgoMC4wNDMyMDk4NzY1NDMyMDk4NywwLDAsMC4wNDMyMDk4NzY1NDMyMDk4Nyw5MS40MzIwOTg3NjU0MzIwNywwKSIvPjx1c2UgeGxpbms6aHJlZj0iI2JUIiB0cmFuc2Zvcm09Im1hdHJpeCgwLjA0MzIwOTg3NjU0MzIwOTg3LDAsMCwwLjA0MzIwOTg3NjU0MzIwOTg3LDEwMS44MDI0NjkxMzU4MDI0NSwwKSIvPjx1c2UgeGxpbms6aHJlZj0iI2FWIiB0cmFuc2Zvcm09Im1hdHJpeCgwLjA0MzIwOTg3NjU0MzIwOTg3LDAsMCwwLjA0MzIwOTg3NjU0MzIwOTg3LDExNS44ODg4ODg4ODg4ODg4NiwwKSIvPjx1c2UgeGxpbms6aHJlZj0iI2J1IiB0cmFuc2Zvcm09Im1hdHJpeCgwLjA0MzIwOTg3NjU0MzIwOTg3LDAsMCwwLjA0MzIwOTg3NjU0MzIwOTg3LDEyNi4yNTkyNTkyNTkyNTkyNCwwKSIvPjx1c2UgeGxpbms6aHJlZj0iI2JDIiB0cmFuc2Zvcm09Im1hdHJpeCgwLjA0MzIwOTg3NjU0MzIwOTg3LDAsMCwwLjA0MzIwOTg3NjU0MzIwOTg3LDEzNy40NTA2MTcyODM5NTA1OCwwKSIvPjx1c2UgeGxpbms6aHJlZj0iI2JvIiB0cmFuc2Zvcm09Im1hdHJpeCgwLjA0MzIwOTg3NjU0MzIwOTg3LDAsMCwwLjA0MzIwOTg3NjU0MzIwOTg3LDE0OC42NDE5NzUzMDg2NDE5NSwwKSIvPjx1c2UgeGxpbms6aHJlZj0iI2J5IiB0cmFuc2Zvcm09Im1hdHJpeCgwLjA0MzIwOTg3NjU0MzIwOTg3LDAsMCwwLjA0MzIwOTg3NjU0MzIwOTg3LDE1OS4wMTIzNDU2NzkwMTIzMywwKSIvPjx1c2UgeGxpbms6aHJlZj0iI2J3IiB0cmFuc2Zvcm09Im1hdHJpeCgwLjA0MzIwOTg3NjU0MzIwOTg3LDAsMCwwLjA0MzIwOTg3NjU0MzIwOTg3LDE2Ny42NTQzMjA5ODc2NTQzLDApIi8+PHVzZSB4bGluazpocmVmPSIjYVYiIHRyYW5zZm9ybT0ibWF0cml4KDAuMDQzMjA5ODc2NTQzMjA5ODcsMCwwLDAuMDQzMjA5ODc2NTQzMjA5ODcsMTc4Ljg0NTY3OTAxMjM0NTY3LDApIi8+PHVzZSB4bGluazpocmVmPSIjYnUiIHRyYW5zZm9ybT0ibWF0cml4KDAuMDQzMjA5ODc2NTQzMjA5ODcsMCwwLDAuMDQzMjA5ODc2NTQzMjA5ODcsMTg5LjIxNjA0OTM4MjcxNjA1LDApIi8+PHVzZSB4bGluazpocmVmPSIjYkMiIHRyYW5zZm9ybT0ibWF0cml4KDAuMDQzMjA5ODc2NTQzMjA5ODcsMCwwLDAuMDQzMjA5ODc2NTQzMjA5ODcsMjAwLjQwNzQwNzQwNzQwNzQsMCkiLz48L2c+PGcgaWQ9ImFsIj48dXNlIHhsaW5rOmhyZWY9IiNiaCIgdHJhbnNmb3JtPSJtYXRyaXgoMC4wNDMyMDk4NzY1NDMyMDk4NywwLDAsMC4wNDMyMDk4NzY1NDMyMDk4NywwLDApIi8+PHVzZSB4bGluazpocmVmPSIjYVoiIHRyYW5zZm9ybT0ibWF0cml4KDAuMDQzMjA5ODc2NTQzMjA5ODcsMCwwLDAuMDQzMjA5ODc2NTQzMjA5ODcsOC42NDE5NzUzMDg2NDE5NzMsMCkiLz48L2c+PHBhdGggaWQ9ImJVIiBkPSJNMjMyLTkzYy0xIDY1LTQwIDk3LTEwNCA5N0M2NyA0IDI4LTI4IDI4LTkwdi0xNThoMzNjOCA4OS0zMyAyMjQgNjcgMjI0IDEwMiAwIDY0LTEzMyA3MS0yMjRoMzN2MTU1IiBmaWxsPSIjM2E0MTRhIi8+PGcgaWQ9ImFtIj48dXNlIHhsaW5rOmhyZWY9IiNidiIgdHJhbnNmb3JtPSJtYXRyaXgoMC4wNDMyMDk4NzY1NDMyMDk4NywwLDAsMC4wNDMyMDk4NzY1NDMyMDk4NywwLDApIi8+PHVzZSB4bGluazpocmVmPSIjYngiIHRyYW5zZm9ybT0ibWF0cml4KDAuMDQzMjA5ODc2NTQzMjA5ODcsMCwwLDAuMDQzMjA5ODc2NTQzMjA5ODcsMTEuMTkxMzU4MDI0NjkxMzU2LDApIi8+PHVzZSB4bGluazpocmVmPSIjYnQiIHRyYW5zZm9ybT0ibWF0cml4KDAuMDQzMjA5ODc2NTQzMjA5ODcsMCwwLDAuMDQzMjA5ODc2NTQzMjA5ODcsMjMuMjkwMTIzNDU2NzkwMTIsMCkiLz48dXNlIHhsaW5rOmhyZWY9IiNieSIgdHJhbnNmb3JtPSJtYXRyaXgoMC4wNDMyMDk4NzY1NDMyMDk4NywwLDAsMC4wNDMyMDk4NzY1NDMyMDk4NywzMi43NTMwODY0MTk3NTMwOCwwKSIvPjx1c2UgeGxpbms6aHJlZj0iI2JzIiB0cmFuc2Zvcm09Im1hdHJpeCgwLjA0MzIwOTg3NjU0MzIwOTg3LDAsMCwwLjA0MzIwOTg3NjU0MzIwOTg3LDQxLjM5NTA2MTcyODM5NTA1NiwwKSIvPjx1c2UgeGxpbms6aHJlZj0iI2J4IiB0cmFuc2Zvcm09Im1hdHJpeCgwLjA0MzIwOTg3NjU0MzIwOTg3LDAsMCwwLjA0MzIwOTg3NjU0MzIwOTg3LDUwLjg1ODAyNDY5MTM1ODAxLDApIi8+PHVzZSB4bGluazpocmVmPSIjYlUiIHRyYW5zZm9ybT0ibWF0cml4KDAuMDQzMjA5ODc2NTQzMjA5ODcsMCwwLDAuMDQzMjA5ODc2NTQzMjA5ODcsNjIuOTU2NzkwMTIzNDU2Nzg0LDApIi8+PHVzZSB4bGluazpocmVmPSIjYnYiIHRyYW5zZm9ybT0ibWF0cml4KDAuMDQzMjA5ODc2NTQzMjA5ODcsMCwwLDAuMDQzMjA5ODc2NTQzMjA5ODcsNzQuMTQ4MTQ4MTQ4MTQ4MTQsMCkiLz48dXNlIHhsaW5rOmhyZWY9IiNiQyIgdHJhbnNmb3JtPSJtYXRyaXgoMC4wNDMyMDk4NzY1NDMyMDk4NywwLDAsMC4wNDMyMDk4NzY1NDMyMDk4Nyw4NS4zMzk1MDYxNzI4Mzk0OSwwKSIvPjwvZz48ZyBpZD0iYW4iPjx1c2UgeGxpbms6aHJlZj0iI2JxIiB0cmFuc2Zvcm09Im1hdHJpeCgwLjA0MzIwOTg3NjU0MzIwOTg3LDAsMCwwLjA0MzIwOTg3NjU0MzIwOTg3LDAsMCkiLz48dXNlIHhsaW5rOmhyZWY9IiNhVyIgdHJhbnNmb3JtPSJtYXRyaXgoMC4wNDMyMDk4NzY1NDMyMDk4NywwLDAsMC4wNDMyMDk4NzY1NDMyMDk4NywxMC4zNzAzNzAzNzAzNzAzNjgsMCkiLz48dXNlIHhsaW5rOmhyZWY9IiNiYyIgdHJhbnNmb3JtPSJtYXRyaXgoMC4wNDMyMDk4NzY1NDMyMDk4NywwLDAsMC4wNDMyMDk4NzY1NDMyMDk4NywxMy43ODM5NTA2MTcyODM5NDcsMCkiLz48dXNlIHhsaW5rOmhyZWY9IiNiRiIgdHJhbnNmb3JtPSJtYXRyaXgoMC4wNDMyMDk4NzY1NDMyMDk4NywwLDAsMC4wNDMyMDk4NzY1NDMyMDk4NywxNy4xOTc1MzA4NjQxOTc1MjgsMCkiLz48dXNlIHhsaW5rOmhyZWY9IiNiYyIgdHJhbnNmb3JtPSJtYXRyaXgoMC4wNDMyMDk4NzY1NDMyMDk4NywwLDAsMC4wNDMyMDk4NzY1NDMyMDk4NywyNS44Mzk1MDYxNzI4Mzk1LDApIi8+PHVzZSB4bGluazpocmVmPSIjYkciIHRyYW5zZm9ybT0ibWF0cml4KDAuMDQzMjA5ODc2NTQzMjA5ODcsMCwwLDAuMDQzMjA5ODc2NTQzMjA5ODcsMjkuMjUzMDg2NDE5NzUzMDgsMCkiLz48dXNlIHhsaW5rOmhyZWY9IiNiYyIgdHJhbnNmb3JtPSJtYXRyaXgoMC4wNDMyMDk4NzY1NDMyMDk4NywwLDAsMC4wNDMyMDk4NzY1NDMyMDk4NywzNy44OTUwNjE3MjgzOTUwNSwwKSIvPjx1c2UgeGxpbms6aHJlZj0iI2FXIiB0cmFuc2Zvcm09Im1hdHJpeCgwLjA0MzIwOTg3NjU0MzIwOTg3LDAsMCwwLjA0MzIwOTg3NjU0MzIwOTg3LDQxLjMwODY0MTk3NTMwODYzLDApIi8+PHVzZSB4bGluazpocmVmPSIjYVgiIHRyYW5zZm9ybT0ibWF0cml4KDAuMDQzMjA5ODc2NTQzMjA5ODcsMCwwLDAuMDQzMjA5ODc2NTQzMjA5ODcsNDQuNzIyMjIyMjIyMjIyMjE0LDApIi8+PHVzZSB4bGluazpocmVmPSIjYkgiIHRyYW5zZm9ybT0ibWF0cml4KDAuMDQzMjA5ODc2NTQzMjA5ODcsMCwwLDAuMDQzMjA5ODc2NTQzMjA5ODcsNDkuMDQzMjA5ODc2NTQzMiwwKSIvPjwvZz48ZyBpZD0iYW8iPjx1c2UgeGxpbms6aHJlZj0iI2JmIiB0cmFuc2Zvcm09Im1hdHJpeCgwLjA0MzIwOTg3NjU0MzIwOTg3LDAsMCwwLjA0MzIwOTg3NjU0MzIwOTg3LDAsMCkiLz48dXNlIHhsaW5rOmhyZWY9IiNiYiIgdHJhbnNmb3JtPSJtYXRyaXgoMC4wNDMyMDk4NzY1NDMyMDk4NywwLDAsMC4wNDMyMDk4NzY1NDMyMDk4Nyw0LjMyMDk4NzY1NDMyMDk4NiwwKSIvPjx1c2UgeGxpbms6aHJlZj0iI2FXIiB0cmFuc2Zvcm09Im1hdHJpeCgwLjA0MzIwOTg3NjU0MzIwOTg3LDAsMCwwLjA0MzIwOTg3NjU0MzIwOTg3LDEyLjk2Mjk2Mjk2Mjk2Mjk1OCwwKSIvPjx1c2UgeGxpbms6aHJlZj0iI2JrIiB0cmFuc2Zvcm09Im1hdHJpeCgwLjA0MzIwOTg3NjU0MzIwOTg3LDAsMCwwLjA0MzIwOTg3NjU0MzIwOTg3LDE2LjM3NjU0MzIwOTg3NjUzNywwKSIvPjx1c2UgeGxpbms6aHJlZj0iI2FZIiB0cmFuc2Zvcm09Im1hdHJpeCgwLjA0MzIwOTg3NjU0MzIwOTg3LDAsMCwwLjA0MzIwOTg3NjU0MzIwOTg3LDI0LjE1NDMyMDk4NzY1NDMxMiwwKSIvPjwvZz48ZyBpZD0iYXAiPjx1c2UgeGxpbms6aHJlZj0iI2JxIiB0cmFuc2Zvcm09Im1hdHJpeCgwLjA0MzIwOTg3NjU0MzIwOTg3LDAsMCwwLjA0MzIwOTg3NjU0MzIwOTg3LDAsMCkiLz48dXNlIHhsaW5rOmhyZWY9IiNhWiIgdHJhbnNmb3JtPSJtYXRyaXgoMC4wNDMyMDk4NzY1NDMyMDk4NywwLDAsMC4wNDMyMDk4NzY1NDMyMDk4NywxMC4zNzAzNzAzNzAzNzAzNjgsMCkiLz48dXNlIHhsaW5rOmhyZWY9IiNhWiIgdHJhbnNmb3JtPSJtYXRyaXgoMC4wNDMyMDk4NzY1NDMyMDk4NywwLDAsMC4wNDMyMDk4NzY1NDMyMDk4NywxNS41MTIzNDU2NzkwMTIzNDMsMCkiLz48dXNlIHhsaW5rOmhyZWY9IiNiaCIgdHJhbnNmb3JtPSJtYXRyaXgoMC4wNDMyMDk4NzY1NDMyMDk4NywwLDAsMC4wNDMyMDk4NzY1NDMyMDk4NywyMC42NTQzMjA5ODc2NTQzMTYsMCkiLz48dXNlIHhsaW5rOmhyZWY9IiNhWiIgdHJhbnNmb3JtPSJtYXRyaXgoMC4wNDMyMDk4NzY1NDMyMDk4NywwLDAsMC4wNDMyMDk4NzY1NDMyMDk4NywyOS4yOTYyOTYyOTYyOTYyOSwwKSIvPjx1c2UgeGxpbms6aHJlZj0iI2JKIiB0cmFuc2Zvcm09Im1hdHJpeCgwLjA0MzIwOTg3NjU0MzIwOTg3LDAsMCwwLjA0MzIwOTg3NjU0MzIwOTg3LDM0LjQzODI3MTYwNDkzODI2NSwwKSIvPjx1c2UgeGxpbms6aHJlZj0iI2JrIiB0cmFuc2Zvcm09Im1hdHJpeCgwLjA0MzIwOTg3NjU0MzIwOTg3LDAsMCwwLjA0MzIwOTg3NjU0MzIwOTg3LDQ3LjM1ODAyNDY5MTM1ODAxLDApIi8+PHVzZSB4bGluazpocmVmPSIjYkYiIHRyYW5zZm9ybT0ibWF0cml4KDAuMDQzMjA5ODc2NTQzMjA5ODcsMCwwLDAuMDQzMjA5ODc2NTQzMjA5ODcsNTUuMTM1ODAyNDY5MTM1NzksMCkiLz48L2c+PHBhdGggaWQ9ImJWIiBkPSJNMTQzIDRDNjEgNCAyMi00NCAxOC0xMjVjLTUtMTA3IDEwMC0xNTQgMTkzLTExMSAxNyA4IDI5IDI1IDM3IDQzbC0zMiA5Yy0xMy0yNS0zNy00MC03Ni00MC02MSAwLTg4IDM5LTg4IDk5IDAgNjEgMjkgMTAwIDkxIDEwMSAzNSAwIDYyLTExIDc5LTI3di00NWgtNzR2LTI4aDEwNXY4NkMyMjgtMTMgMTkyIDQgMTQzIDQiIGZpbGw9IiMzYTQxNGEiLz48ZyBpZD0iYXEiPjx1c2UgeGxpbms6aHJlZj0iI2JOIiB0cmFuc2Zvcm09Im1hdHJpeCgwLjA0MzIwOTg3NjU0MzIwOTg3LDAsMCwwLjA0MzIwOTg3NjU0MzIwOTg3LDAsMCkiLz48dXNlIHhsaW5rOmhyZWY9IiNidiIgdHJhbnNmb3JtPSJtYXRyaXgoMC4wNDMyMDk4NzY1NDMyMDk4NywwLDAsMC4wNDMyMDk4NzY1NDMyMDk4NywyLjkzODI3MTYwNDkzODI3MSwwKSIvPjx1c2UgeGxpbms6aHJlZj0iI2J4IiB0cmFuc2Zvcm09Im1hdHJpeCgwLjA0MzIwOTg3NjU0MzIwOTg3LDAsMCwwLjA0MzIwOTg3NjU0MzIwOTg3LDE0LjEyOTYyOTYyOTYyOTYyNiwwKSIvPjx1c2UgeGxpbms6aHJlZj0iI2J0IiB0cmFuc2Zvcm09Im1hdHJpeCgwLjA0MzIwOTg3NjU0MzIwOTg3LDAsMCwwLjA0MzIwOTg3NjU0MzIwOTg3LDI2LjIyODM5NTA2MTcyODM5LDApIi8+PHVzZSB4bGluazpocmVmPSIjYnkiIHRyYW5zZm9ybT0ibWF0cml4KDAuMDQzMjA5ODc2NTQzMjA5ODcsMCwwLDAuMDQzMjA5ODc2NTQzMjA5ODcsMzUuNjkxMzU4MDI0NjkxMzUsMCkiLz48dXNlIHhsaW5rOmhyZWY9IiNicSIgdHJhbnNmb3JtPSJtYXRyaXgoMC4wNDMyMDk4NzY1NDMyMDk4NywwLDAsMC4wNDMyMDk4NzY1NDMyMDk4Nyw0NC4zMzMzMzMzMzMzMzMzMiwwKSIvPjx1c2UgeGxpbms6aHJlZj0iI2JLIiB0cmFuc2Zvcm09Im1hdHJpeCgwLjA0MzIwOTg3NjU0MzIwOTg3LDAsMCwwLjA0MzIwOTg3NjU0MzIwOTg3LDU0LjcwMzcwMzcwMzcwMzY5NSwwKSIvPjx1c2UgeGxpbms6aHJlZj0iI2JyIiB0cmFuc2Zvcm09Im1hdHJpeCgwLjA0MzIwOTg3NjU0MzIwOTg3LDAsMCwwLjA0MzIwOTg3NjU0MzIwOTg3LDYzLjM0NTY3OTAxMjM0NTY2LDApIi8+PHVzZSB4bGluazpocmVmPSIjYlYiIHRyYW5zZm9ybT0ibWF0cml4KDAuMDQzMjA5ODc2NTQzMjA5ODcsMCwwLDAuMDQzMjA5ODc2NTQzMjA5ODcsNjcuNjY2NjY2NjY2NjY2NjQsMCkiLz48dXNlIHhsaW5rOmhyZWY9IiNiciIgdHJhbnNmb3JtPSJtYXRyaXgoMC4wNDMyMDk4NzY1NDMyMDk4NywwLDAsMC4wNDMyMDk4NzY1NDMyMDk4Nyw3OS43NjU0MzIwOTg3NjU0LDApIi8+PHVzZSB4bGluazpocmVmPSIjYkQiIHRyYW5zZm9ybT0ibWF0cml4KDAuMDQzMjA5ODc2NTQzMjA5ODcsMCwwLDAuMDQzMjA5ODc2NTQzMjA5ODcsODQuMDg2NDE5NzUzMDg2MzksMCkiLz48dXNlIHhsaW5rOmhyZWY9IiNiSyIgdHJhbnNmb3JtPSJtYXRyaXgoMC4wNDMyMDk4NzY1NDMyMDk4NywwLDAsMC4wNDMyMDk4NzY1NDMyMDk4Nyw5NC40NTY3OTAxMjM0NTY3NiwwKSIvPjx1c2UgeGxpbms6aHJlZj0iI2JxIiB0cmFuc2Zvcm09Im1hdHJpeCgwLjA0MzIwOTg3NjU0MzIwOTg3LDAsMCwwLjA0MzIwOTg3NjU0MzIwOTg3LDEwMy4wOTg3NjU0MzIwOTg3MywwKSIvPjx1c2UgeGxpbms6aHJlZj0iI2JOIiB0cmFuc2Zvcm09Im1hdHJpeCgwLjA0MzIwOTg3NjU0MzIwOTg3LDAsMCwwLjA0MzIwOTg3NjU0MzIwOTg3LDExMy40NjkxMzU4MDI0NjkxLDApIi8+PC9nPjxnIGlkPSJhciI+PHVzZSB4bGluazpocmVmPSIjYkwiIHRyYW5zZm9ybT0ibWF0cml4KDAuMDQzMjA5ODc2NTQzMjA5ODcsMCwwLDAuMDQzMjA5ODc2NTQzMjA5ODcsMCwwKSIvPjx1c2UgeGxpbms6aHJlZj0iI2JjIiB0cmFuc2Zvcm09Im1hdHJpeCgwLjA0MzIwOTg3NjU0MzIwOTg3LDAsMCwwLjA0MzIwOTg3NjU0MzIwOTg3LDExLjE5MTM1ODAyNDY5MTM1NiwwKSIvPjx1c2UgeGxpbms6aHJlZj0iI2FYIiB0cmFuc2Zvcm09Im1hdHJpeCgwLjA0MzIwOTg3NjU0MzIwOTg3LDAsMCwwLjA0MzIwOTg3NjU0MzIwOTg3LDE0LjYwNDkzODI3MTYwNDkzNSwwKSIvPjx1c2UgeGxpbms6aHJlZj0iI2JTIiB0cmFuc2Zvcm09Im1hdHJpeCgwLjA0MzIwOTg3NjU0MzIwOTg3LDAsMCwwLjA0MzIwOTg3NjU0MzIwOTg3LDE4LjkyNTkyNTkyNTkyNTkyLDApIi8+PC9nPjxnIGlkPSJhcyI+PHVzZSB4bGluazpocmVmPSIjYVkiIHRyYW5zZm9ybT0ibWF0cml4KDAuMDQzMjA5ODc2NTQzMjA5ODcsMCwwLDAuMDQzMjA5ODc2NTQzMjA5ODcsMCwwKSIvPjx1c2UgeGxpbms6aHJlZj0iI2FaIiB0cmFuc2Zvcm09Im1hdHJpeCgwLjA0MzIwOTg3NjU0MzIwOTg3LDAsMCwwLjA0MzIwOTg3NjU0MzIwOTg3LDguNjQxOTc1MzA4NjQxOTczLDApIi8+PHVzZSB4bGluazpocmVmPSIjYVoiIHRyYW5zZm9ybT0ibWF0cml4KDAuMDQzMjA5ODc2NTQzMjA5ODcsMCwwLDAuMDQzMjA5ODc2NTQzMjA5ODcsMTMuNzgzOTUwNjE3MjgzOTQ3LDApIi8+PHVzZSB4bGluazpocmVmPSIjYmgiIHRyYW5zZm9ybT0ibWF0cml4KDAuMDQzMjA5ODc2NTQzMjA5ODcsMCwwLDAuMDQzMjA5ODc2NTQzMjA5ODcsMTguOTI1OTI1OTI1OTI1OTI0LDApIi8+PHVzZSB4bGluazpocmVmPSIjYVoiIHRyYW5zZm9ybT0ibWF0cml4KDAuMDQzMjA5ODc2NTQzMjA5ODcsMCwwLDAuMDQzMjA5ODc2NTQzMjA5ODcsMjcuNTY3OTAxMjM0NTY3OSwwKSIvPjwvZz48ZyBpZD0iYXQiPjx1c2UgeGxpbms6aHJlZj0iI2JnIiB0cmFuc2Zvcm09Im1hdHJpeCgwLjA0MzIwOTg3NjU0MzIwOTg3LDAsMCwwLjA0MzIwOTg3NjU0MzIwOTg3LDAsMCkiLz48dXNlIHhsaW5rOmhyZWY9IiNiaCIgdHJhbnNmb3JtPSJtYXRyaXgoMC4wNDMyMDk4NzY1NDMyMDk4NywwLDAsMC4wNDMyMDk4NzY1NDMyMDk4Nyw3Ljc3Nzc3Nzc3Nzc3Nzc3NiwwKSIvPjx1c2UgeGxpbms6aHJlZj0iI2JpIiB0cmFuc2Zvcm09Im1hdHJpeCgwLjA0MzIwOTg3NjU0MzIwOTg3LDAsMCwwLjA0MzIwOTg3NjU0MzIwOTg3LDE2LjQxOTc1MzA4NjQxOTc1LDApIi8+PHVzZSB4bGluazpocmVmPSIjYVkiIHRyYW5zZm9ybT0ibWF0cml4KDAuMDQzMjA5ODc2NTQzMjA5ODcsMCwwLDAuMDQzMjA5ODc2NTQzMjA5ODcsMjUuMDYxNzI4Mzk1MDYxNzI0LDApIi8+PC9nPjxwYXRoIGlkPSJiVyIgZD0iTTE1NS01NlYwaC0zMHYtNTZIOHYtMjVsMTE0LTE2N2gzM3YxNjdoMzV2MjVoLTM1em0tMzAtMTU2Yy0yNyA0Ni01OCA5MC04OCAxMzFoODh2LTEzMSIgZmlsbD0iIzNhNDE0YSIvPjxwYXRoIGlkPSJiWCIgZD0iTTEwMS0yNTFjNjggMCA4NSA1NSA4NSAxMjdTMTY2IDQgMTAwIDRDMzMgNCAxNC01MiAxNC0xMjRjMC03MyAxNy0xMjcgODctMTI3em0tMSAyMjljNDcgMCA1NC00OSA1NC0xMDJzLTQtMTAyLTUzLTEwMmMtNTEgMC01NSA0OC01NSAxMDIgMCA1MyA1IDEwMiA1NCAxMDIiIGZpbGw9IiMzYTQxNGEiLz48ZyBpZD0iYXUiPjx1c2UgeGxpbms6aHJlZj0iI2JXIiB0cmFuc2Zvcm09Im1hdHJpeCgwLjA0MzIwOTg3NjU0MzIwOTg3LDAsMCwwLjA0MzIwOTg3NjU0MzIwOTg3LDAsMCkiLz48dXNlIHhsaW5rOmhyZWY9IiNiWCIgdHJhbnNmb3JtPSJtYXRyaXgoMC4wNDMyMDk4NzY1NDMyMDk4NywwLDAsMC4wNDMyMDk4NzY1NDMyMDk4Nyw4LjY0MTk3NTMwODY0MTk3MywwKSIvPjx1c2UgeGxpbms6aHJlZj0iI2JYIiB0cmFuc2Zvcm09Im1hdHJpeCgwLjA0MzIwOTg3NjU0MzIwOTg3LDAsMCwwLjA0MzIwOTg3NjU0MzIwOTg3LDE3LjI4Mzk1MDYxNzI4Mzk0NiwwKSIvPjwvZz48ZyBpZD0iYXYiPjx1c2UgeGxpbms6aHJlZj0iI2JvIiB0cmFuc2Zvcm09Im1hdHJpeCgwLjA0MzIwOTg3NjU0MzIwOTg3LDAsMCwwLjA0MzIwOTg3NjU0MzIwOTg3LDAsMCkiLz48dXNlIHhsaW5rOmhyZWY9IiNiSCIgdHJhbnNmb3JtPSJtYXRyaXgoMC4wNDMyMDk4NzY1NDMyMDk4NywwLDAsMC4wNDMyMDk4NzY1NDMyMDk4NywxMC4zNzAzNzAzNzAzNzAzNjgsMCkiLz48dXNlIHhsaW5rOmhyZWY9IiNiayIgdHJhbnNmb3JtPSJtYXRyaXgoMC4wNDMyMDk4NzY1NDMyMDk4NywwLDAsMC4wNDMyMDk4NzY1NDMyMDk4NywxOC4xNDgxNDgxNDgxNDgxNDUsMCkiLz48dXNlIHhsaW5rOmhyZWY9IiNhWCIgdHJhbnNmb3JtPSJtYXRyaXgoMC4wNDMyMDk4NzY1NDMyMDk4NywwLDAsMC4wNDMyMDk4NzY1NDMyMDk4NywyNS45MjU5MjU5MjU5MjU5MiwwKSIvPjx1c2UgeGxpbms6aHJlZj0iI2FZIiB0cmFuc2Zvcm09Im1hdHJpeCgwLjA0MzIwOTg3NjU0MzIwOTg3LDAsMCwwLjA0MzIwOTg3NjU0MzIwOTg3LDMwLjI0NjkxMzU4MDI0NjkwOCwwKSIvPjx1c2UgeGxpbms6aHJlZj0iI2JKIiB0cmFuc2Zvcm09Im1hdHJpeCgwLjA0MzIwOTg3NjU0MzIwOTg3LDAsMCwwLjA0MzIwOTg3NjU0MzIwOTg3LDM4Ljg4ODg4ODg4ODg4ODg4LDApIi8+PC9nPjxnIGlkPSJhdyI+PHVzZSB4bGluazpocmVmPSIjYmgiIHRyYW5zZm9ybT0ibWF0cml4KDAuMDQzMjA5ODc2NTQzMjA5ODcsMCwwLDAuMDQzMjA5ODc2NTQzMjA5ODcsMCwwKSIvPjx1c2UgeGxpbms6aHJlZj0iI2JtIiB0cmFuc2Zvcm09Im1hdHJpeCgwLjA0MzIwOTg3NjU0MzIwOTg3LDAsMCwwLjA0MzIwOTg3NjU0MzIwOTg3LDguNjQxOTc1MzA4NjQxOTczLDApIi8+PHVzZSB4bGluazpocmVmPSIjYk0iIHRyYW5zZm9ybT0ibWF0cml4KDAuMDQzMjA5ODc2NTQzMjA5ODcsMCwwLDAuMDQzMjA5ODc2NTQzMjA5ODcsMTcuMjgzOTUwNjE3MjgzOTQ2LDApIi8+PHVzZSB4bGluazpocmVmPSIjYm0iIHRyYW5zZm9ybT0ibWF0cml4KDAuMDQzMjA5ODc2NTQzMjA5ODcsMCwwLDAuMDQzMjA5ODc2NTQzMjA5ODcsMjUuOTI1OTI1OTI1OTI1OTE3LDApIi8+PHVzZSB4bGluazpocmVmPSIjYVgiIHRyYW5zZm9ybT0ibWF0cml4KDAuMDQzMjA5ODc2NTQzMjA5ODcsMCwwLDAuMDQzMjA5ODc2NTQzMjA5ODcsMzQuNTY3OTAxMjM0NTY3ODksMCkiLz48dXNlIHhsaW5rOmhyZWY9IiNiayIgdHJhbnNmb3JtPSJtYXRyaXgoMC4wNDMyMDk4NzY1NDMyMDk4NywwLDAsMC4wNDMyMDk4NzY1NDMyMDk4NywzOC44ODg4ODg4ODg4ODg4OCwwKSIvPjwvZz48cGF0aCBpZD0iYlkiIGQ9Ik04NyA3NUM0OSAzMyAyMi0xNyAyMi05NGMwLTc2IDI4LTEyNiA2NS0xNjdoMzFjLTM4IDQxLTY0IDkyLTY0IDE2OFM4MCAzNCAxMTggNzVIODciIGZpbGw9IiMzYTQxNGEiLz48cGF0aCBpZD0iYloiIGQ9Ik05OS0yNTFjNjQgMCA4NCA1MCA4NCAxMjJDMTgzLTM3IDEzMCAzMyA0Ny04Yy0xNC03LTIwLTIzLTI1LTQwbDMwLTVjNiAzOSA2OSAzOSA4NCA3IDktMTkgMTYtNDQgMTYtNzQtMTAgMjItMzEgMzUtNjIgMzUtNDkgMC03My0zMy03My04MyAwLTU0IDI4LTgzIDgyLTgzem0tMSAxNDFjMzEtMSA1MS0xOCA1MS00OSAwLTM2LTE0LTY3LTUxLTY3LTM0IDAtNDkgMjMtNDkgNTggMCAzNCAxNSA1OCA0OSA1OCIgZmlsbD0iIzNhNDE0YSIvPjxwYXRoIGlkPSJjYSIgZD0iTTMzLTI2MWMzOCA0MSA2NSA5MiA2NSAxNjhTNzEgMzQgMzMgNzVIMkMzOSAzNCA2Ni0xNyA2Ni05M1MzOS0yMjAgMi0yNjFoMzEiIGZpbGw9IiMzYTQxNGEiLz48ZyBpZD0iYXgiPjx1c2UgeGxpbms6aHJlZj0iI2JNIiB0cmFuc2Zvcm09Im1hdHJpeCgwLjA0MzIwOTg3NjU0MzIwOTg3LDAsMCwwLjA0MzIwOTg3NjU0MzIwOTg3LDAsMCkiLz48dXNlIHhsaW5rOmhyZWY9IiNiYiIgdHJhbnNmb3JtPSJtYXRyaXgoMC4wNDMyMDk4NzY1NDMyMDk4NywwLDAsMC4wNDMyMDk4NzY1NDMyMDk4Nyw4LjY0MTk3NTMwODY0MTk3MywwKSIvPjx1c2UgeGxpbms6aHJlZj0iI2FaIiB0cmFuc2Zvcm09Im1hdHJpeCgwLjA0MzIwOTg3NjU0MzIwOTg3LDAsMCwwLjA0MzIwOTg3NjU0MzIwOTg3LDE3LjI4Mzk1MDYxNzI4Mzk0NiwwKSIvPjx1c2UgeGxpbms6aHJlZj0iI2JiIiB0cmFuc2Zvcm09Im1hdHJpeCgwLjA0MzIwOTg3NjU0MzIwOTg3LDAsMCwwLjA0MzIwOTg3NjU0MzIwOTg3LDIyLjQyNTkyNTkyNTkyNTkyLDApIi8+PHVzZSB4bGluazpocmVmPSIjYkoiIHRyYW5zZm9ybT0ibWF0cml4KDAuMDQzMjA5ODc2NTQzMjA5ODcsMCwwLDAuMDQzMjA5ODc2NTQzMjA5ODcsMzEuMDY3OTAxMjM0NTY3ODksMCkiLz48dXNlIHhsaW5rOmhyZWY9IiNhWSIgdHJhbnNmb3JtPSJtYXRyaXgoMC4wNDMyMDk4NzY1NDMyMDk4NywwLDAsMC4wNDMyMDk4NzY1NDMyMDk4Nyw0My45ODc2NTQzMjA5ODc2NDQsMCkiLz48dXNlIHhsaW5rOmhyZWY9IiNhWCIgdHJhbnNmb3JtPSJtYXRyaXgoMC4wNDMyMDk4NzY1NDMyMDk4NywwLDAsMC4wNDMyMDk4NzY1NDMyMDk4Nyw1Mi42Mjk2Mjk2Mjk2Mjk2MiwwKSIvPjx1c2UgeGxpbms6aHJlZj0iI2FZIiB0cmFuc2Zvcm09Im1hdHJpeCgwLjA0MzIwOTg3NjU0MzIwOTg3LDAsMCwwLjA0MzIwOTg3NjU0MzIwOTg3LDU2Ljk1MDYxNzI4Mzk1MDYwNiwwKSIvPjx1c2UgeGxpbms6aHJlZj0iI2FaIiB0cmFuc2Zvcm09Im1hdHJpeCgwLjA0MzIwOTg3NjU0MzIwOTg3LDAsMCwwLjA0MzIwOTg3NjU0MzIwOTg3LDY1LjU5MjU5MjU5MjU5MjU4LDApIi8+PHVzZSB4bGluazpocmVmPSIjYmsiIHRyYW5zZm9ybT0ibWF0cml4KDAuMDQzMjA5ODc2NTQzMjA5ODcsMCwwLDAuMDQzMjA5ODc2NTQzMjA5ODcsNzAuNzM0NTY3OTAxMjM0NTYsMCkiLz48dXNlIHhsaW5rOmhyZWY9IiNiWSIgdHJhbnNmb3JtPSJtYXRyaXgoMC4wNDMyMDk4NzY1NDMyMDk4NywwLDAsMC4wNDMyMDk4NzY1NDMyMDk4Nyw3OC41MTIzNDU2NzkwMTIzMywwKSIvPjx1c2UgeGxpbms6aHJlZj0iI2JaIiB0cmFuc2Zvcm09Im1hdHJpeCgwLjA0MzIwOTg3NjU0MzIwOTg3LDAsMCwwLjA0MzIwOTg3NjU0MzIwOTg3LDgzLjY1NDMyMDk4NzY1NDMsMCkiLz48dXNlIHhsaW5rOmhyZWY9IiNjYSIgdHJhbnNmb3JtPSJtYXRyaXgoMC4wNDMyMDk4NzY1NDMyMDk4NywwLDAsMC4wNDMyMDk4NzY1NDMyMDk4Nyw5Mi4yOTYyOTYyOTYyOTYyOCwwKSIvPjwvZz48ZyBpZD0iYXoiPjx1c2UgeGxpbms6aHJlZj0iI2FWIiB0cmFuc2Zvcm09Im1hdHJpeCgwLjA1NTU1NTU1NTU1NTU1NTUwNCwwLDAsMC4wNTU1NTU1NTU1NTU1NTU1MDQsMCwwKSIvPjx1c2UgeGxpbms6aHJlZj0iI2JpIiB0cmFuc2Zvcm09Im1hdHJpeCgwLjA1NTU1NTU1NTU1NTU1NTUwNCwwLDAsMC4wNTU1NTU1NTU1NTU1NTU1MDQsMTMuMzMzMzMzMzMzMzMzMzIxLDApIi8+PHVzZSB4bGluazpocmVmPSIjYkkiIHRyYW5zZm9ybT0ibWF0cml4KDAuMDU1NTU1NTU1NTU1NTU1NTA0LDAsMCwwLjA1NTU1NTU1NTU1NTU1NTUwNCwyNC40NDQ0NDQ0NDQ0NDQ0MiwwKSIvPjx1c2UgeGxpbms6aHJlZj0iI2JtIiB0cmFuc2Zvcm09Im1hdHJpeCgwLjA1NTU1NTU1NTU1NTU1NTUwNCwwLDAsMC4wNTU1NTU1NTU1NTU1NTU1MDQsMjguODMzMzMzMzMzMzMzMzA3LDApIi8+PHVzZSB4bGluazpocmVmPSIjYmsiIHRyYW5zZm9ybT0ibWF0cml4KDAuMDU1NTU1NTU1NTU1NTU1NTA0LDAsMCwwLjA1NTU1NTU1NTU1NTU1NTUwNCwzOS45NDQ0NDQ0NDQ0NDQ0MSwwKSIvPjx1c2UgeGxpbms6aHJlZj0iI2FYIiB0cmFuc2Zvcm09Im1hdHJpeCgwLjA1NTU1NTU1NTU1NTU1NTUwNCwwLDAsMC4wNTU1NTU1NTU1NTU1NTU1MDQsNDkuOTQ0NDQ0NDQ0NDQ0NCwwKSIvPjx1c2UgeGxpbms6aHJlZj0iI2JKIiB0cmFuc2Zvcm09Im1hdHJpeCgwLjA1NTU1NTU1NTU1NTU1NTUwNCwwLDAsMC4wNTU1NTU1NTU1NTU1NTU1MDQsNTUuNDk5OTk5OTk5OTk5OTUsMCkiLz48dXNlIHhsaW5rOmhyZWY9IiNhWSIgdHJhbnNmb3JtPSJtYXRyaXgoMC4wNTU1NTU1NTU1NTU1NTU1MDQsMCwwLDAuMDU1NTU1NTU1NTU1NTU1NTA0LDcyLjExMTExMTExMTExMTA0LDApIi8+PHVzZSB4bGluazpocmVmPSIjYmEiIHRyYW5zZm9ybT0ibWF0cml4KDAuMDU1NTU1NTU1NTU1NTU1NTA0LDAsMCwwLjA1NTU1NTU1NTU1NTU1NTUwNCw4My4yMjIyMjIyMjIyMjIxNCwwKSIvPjx1c2UgeGxpbms6aHJlZj0iI2FYIiB0cmFuc2Zvcm09Im1hdHJpeCgwLjA1NTU1NTU1NTU1NTU1NTUwNCwwLDAsMC4wNTU1NTU1NTU1NTU1NTU1MDQsOTQuMzMzMzMzMzMzMzMzMjQsMCkiLz48L2c+PGcgaWQ9ImFBIj48dXNlIHhsaW5rOmhyZWY9IiNicSIgdHJhbnNmb3JtPSJtYXRyaXgoMC4wNTU1NTU1NTU1NTU1NTU1MDQsMCwwLDAuMDU1NTU1NTU1NTU1NTU1NTA0LDAsMCkiLz48dXNlIHhsaW5rOmhyZWY9IiNiZCIgdHJhbnNmb3JtPSJtYXRyaXgoMC4wNTU1NTU1NTU1NTU1NTU1MDQsMCwwLDAuMDU1NTU1NTU1NTU1NTU1NTA0LDEzLjMzMzMzMzMzMzMzMzMyMSwwKSIvPjx1c2UgeGxpbms6aHJlZj0iI2FZIiB0cmFuc2Zvcm09Im1hdHJpeCgwLjA1NTU1NTU1NTU1NTU1NTUwNCwwLDAsMC4wNTU1NTU1NTU1NTU1NTU1MDQsMjMuMzMzMzMzMzMzMzMzMzE0LDApIi8+PHVzZSB4bGluazpocmVmPSIjYmEiIHRyYW5zZm9ybT0ibWF0cml4KDAuMDU1NTU1NTU1NTU1NTU1NTA0LDAsMCwwLjA1NTU1NTU1NTU1NTU1NTUwNCwzNC40NDQ0NDQ0NDQ0NDQ0MTQsMCkiLz48dXNlIHhsaW5rOmhyZWY9IiNhWCIgdHJhbnNmb3JtPSJtYXRyaXgoMC4wNTU1NTU1NTU1NTU1NTU1MDQsMCwwLDAuMDU1NTU1NTU1NTU1NTU1NTA0LDQ1LjU1NTU1NTU1NTU1NTUxNSwwKSIvPjwvZz48ZyBpZD0iYUIiPjx1c2UgeGxpbms6aHJlZj0iI2JvIiB0cmFuc2Zvcm09Im1hdHJpeCgwLjA1NTU1NTU1NTU1NTU1NTUwNCwwLDAsMC4wNTU1NTU1NTU1NTU1NTU1MDQsMCwwKSIvPjx1c2UgeGxpbms6aHJlZj0iI2JtIiB0cmFuc2Zvcm09Im1hdHJpeCgwLjA1NTU1NTU1NTU1NTU1NTUwNCwwLDAsMC4wNTU1NTU1NTU1NTU1NTU1MDQsMTMuMzMzMzMzMzMzMzMzMzIxLDApIi8+PHVzZSB4bGluazpocmVmPSIjYkciIHRyYW5zZm9ybT0ibWF0cml4KDAuMDU1NTU1NTU1NTU1NTU1NTA0LDAsMCwwLjA1NTU1NTU1NTU1NTU1NTUwNCwyNC40NDQ0NDQ0NDQ0NDQ0MiwwKSIvPjx1c2UgeGxpbms6aHJlZj0iI2JKIiB0cmFuc2Zvcm09Im1hdHJpeCgwLjA1NTU1NTU1NTU1NTU1NTUwNCwwLDAsMC4wNTU1NTU1NTU1NTU1NTU1MDQsMzUuNTU1NTU1NTU1NTU1NTIsMCkiLz48dXNlIHhsaW5rOmhyZWY9IiNiYyIgdHJhbnNmb3JtPSJtYXRyaXgoMC4wNTU1NTU1NTU1NTU1NTU1MDQsMCwwLDAuMDU1NTU1NTU1NTU1NTU1NTA0LDUyLjE2NjY2NjY2NjY2NjYxNSwwKSIvPjx1c2UgeGxpbms6aHJlZj0iI2FYIiB0cmFuc2Zvcm09Im1hdHJpeCgwLjA1NTU1NTU1NTU1NTU1NTUwNCwwLDAsMC4wNTU1NTU1NTU1NTU1NTU1MDQsNTYuNTU1NTU1NTU1NTU1NSwwKSIvPjx1c2UgeGxpbms6aHJlZj0iI2FYIiB0cmFuc2Zvcm09Im1hdHJpeCgwLjA1NTU1NTU1NTU1NTU1NTUwNCwwLDAsMC4wNTU1NTU1NTU1NTU1NTU1MDQsNjIuMTExMTExMTExMTExMDUsMCkiLz48dXNlIHhsaW5rOmhyZWY9IiNhWSIgdHJhbnNmb3JtPSJtYXRyaXgoMC4wNTU1NTU1NTU1NTU1NTU1MDQsMCwwLDAuMDU1NTU1NTU1NTU1NTU1NTA0LDY3LjY2NjY2NjY2NjY2NjYsMCkiLz48dXNlIHhsaW5rOmhyZWY9IiNiaSIgdHJhbnNmb3JtPSJtYXRyaXgoMC4wNTU1NTU1NTU1NTU1NTU1MDQsMCwwLDAuMDU1NTU1NTU1NTU1NTU1NTA0LDc4Ljc3Nzc3Nzc3Nzc3NzcsMCkiLz48L2c+PGcgaWQ9ImFDIj48dXNlIHhsaW5rOmhyZWY9IiNhWCIgdHJhbnNmb3JtPSJtYXRyaXgoMC4wNTU1NTU1NTU1NTU1NTU1MDQsMCwwLDAuMDU1NTU1NTU1NTU1NTU1NTA0LDAsMCkiLz48dXNlIHhsaW5rOmhyZWY9IiNiaCIgdHJhbnNmb3JtPSJtYXRyaXgoMC4wNTU1NTU1NTU1NTU1NTU1MDQsMCwwLDAuMDU1NTU1NTU1NTU1NTU1NTA0LDUuNTU1NTU1NTU1NTU1NTUsMCkiLz48L2c+PGcgaWQ9ImFEIj48dXNlIHhsaW5rOmhyZWY9IiNidCIgdHJhbnNmb3JtPSJtYXRyaXgoMC4wNTU1NTU1NTU1NTU1NTU1MDQsMCwwLDAuMDU1NTU1NTU1NTU1NTU1NTA0LDAsMCkiLz48dXNlIHhsaW5rOmhyZWY9IiNibyIgdHJhbnNmb3JtPSJtYXRyaXgoMC4wNTU1NTU1NTU1NTU1NTU1MDQsMCwwLDAuMDU1NTU1NTU1NTU1NTU1NTA0LDEyLjE2NjY2NjY2NjY2NjY1NSwwKSIvPjx1c2UgeGxpbms6aHJlZj0iI2J6IiB0cmFuc2Zvcm09Im1hdHJpeCgwLjA1NTU1NTU1NTU1NTU1NTUwNCwwLDAsMC4wNTU1NTU1NTU1NTU1NTU1MDQsMjUuNDk5OTk5OTk5OTk5OTgsMCkiLz48dXNlIHhsaW5rOmhyZWY9IiNibyIgdHJhbnNmb3JtPSJtYXRyaXgoMC4wNTU1NTU1NTU1NTU1NTU1MDQsMCwwLDAuMDU1NTU1NTU1NTU1NTU1NTA0LDM4LjgzMzMzMzMzMzMzMzMsMCkiLz48L2c+PHBhdGggaWQ9ImNiIiBkPSJNMCA0bDcyLTI2NWgyOEwyOCA0SDAiIGZpbGw9IiMzYTQxNGEiLz48cGF0aCBpZD0iY2MiIGQ9Ik0yNyAwdi0yN2g2NHYtMTkwbC01NiAzOXYtMjlsNTgtNDFoMjl2MjIxaDYxVjBIMjciIGZpbGw9IiMzYTQxNGEiLz48cGF0aCBpZD0iY2QiIGQ9Ik0zOS05NGM3NCAxMi0xMSAxNTQgNzUgMTQ2djIzYy00NCA0LTcwLTEwLTcwLTUyQzQ0LTIzIDU1LTg0IDYtODJ2LTIyYzgxIDQtNy0xNjIgODQtMTU3aDI0djIzYy04Mi0xNS0yIDEzMS03NSAxNDQiIGZpbGw9IiMzYTQxNGEiLz48cGF0aCBpZD0iY2UiIGQ9Ik0xNDMgMEw3OS04NyA1Ni02OFYwSDI0di0yNjFoMzJ2MTYzbDgzLTkyaDM3bC03NyA4MkwxODEgMGgtMzgiIGZpbGw9IiMzYTQxNGEiLz48cGF0aCBpZD0iY2YiIGQ9Ik03Ni00MEM3OCAyNCA4NCA4OCA2IDc1VjUyQzg2IDY0IDktNzkgODAtOTRjLTQwLTYtMzQtNTktMzQtMTA2IDEtMjktMTEtNDEtNDAtMzh2LTIzYzQ0LTQgNzAgMTAgNzAgNTIgMCA0Ny0xMiAxMDggMzggMTA1djIyYy0yNiAxLTM5IDE0LTM4IDQyIiBmaWxsPSIjM2E0MTRhIi8+PGcgaWQ9ImFFIj48dXNlIHhsaW5rOmhyZWY9IiNiWSIgdHJhbnNmb3JtPSJtYXRyaXgoMC4wNTU1NTU1NTU1NTU1NTU1MDQsMCwwLDAuMDU1NTU1NTU1NTU1NTU1NTA0LDAsMCkiLz48dXNlIHhsaW5rOmhyZWY9IiNjYiIgdHJhbnNmb3JtPSJtYXRyaXgoMC4wNTU1NTU1NTU1NTU1NTU1MDQsMCwwLDAuMDU1NTU1NTU1NTU1NTU1NTA0LDYuNjExMTExMTExMTExMTA1LDApIi8+PHVzZSB4bGluazpocmVmPSIjYmQiIHRyYW5zZm9ybT0ibWF0cml4KDAuMDU1NTU1NTU1NTU1NTU1NTA0LDAsMCwwLjA1NTU1NTU1NTU1NTU1NTUwNCwxMi4xNjY2NjY2NjY2NjY2NTUsMCkiLz48dXNlIHhsaW5rOmhyZWY9IiNjYyIgdHJhbnNmb3JtPSJtYXRyaXgoMC4wNTU1NTU1NTU1NTU1NTU1MDQsMCwwLDAuMDU1NTU1NTU1NTU1NTU1NTA0LDIyLjE2NjY2NjY2NjY2NjY0NywwKSIvPjx1c2UgeGxpbms6aHJlZj0iI2NiIiB0cmFuc2Zvcm09Im1hdHJpeCgwLjA1NTU1NTU1NTU1NTU1NTUwNCwwLDAsMC4wNTU1NTU1NTU1NTU1NTU1MDQsMzMuMjc3Nzc3Nzc3Nzc3NzQsMCkiLz48dXNlIHhsaW5rOmhyZWY9IiNhVyIgdHJhbnNmb3JtPSJtYXRyaXgoMC4wNTU1NTU1NTU1NTU1NTU1MDQsMCwwLDAuMDU1NTU1NTU1NTU1NTU1NTA0LDM4LjgzMzMzMzMzMzMzMzI5LDApIi8+PHVzZSB4bGluazpocmVmPSIjYmgiIHRyYW5zZm9ybT0ibWF0cml4KDAuMDU1NTU1NTU1NTU1NTU1NTA0LDAsMCwwLjA1NTU1NTU1NTU1NTU1NTUwNCw0My4yMjIyMjIyMjIyMjIxOCwwKSIvPjx1c2UgeGxpbms6aHJlZj0iI2JIIiB0cmFuc2Zvcm09Im1hdHJpeCgwLjA1NTU1NTU1NTU1NTU1NTUwNCwwLDAsMC4wNTU1NTU1NTU1NTU1NTU1MDQsNTQuMzMzMzMzMzMzMzMzMjgsMCkiLz48dXNlIHhsaW5rOmhyZWY9IiNiYiIgdHJhbnNmb3JtPSJtYXRyaXgoMC4wNTU1NTU1NTU1NTU1NTU1MDQsMCwwLDAuMDU1NTU1NTU1NTU1NTU1NTA0LDY0LjMzMzMzMzMzMzMzMzI3LDApIi8+PHVzZSB4bGluazpocmVmPSIjYVciIHRyYW5zZm9ybT0ibWF0cml4KDAuMDU1NTU1NTU1NTU1NTU1NTA0LDAsMCwwLjA1NTU1NTU1NTU1NTU1NTUwNCw3NS40NDQ0NDQ0NDQ0NDQzNywwKSIvPjx1c2UgeGxpbms6aHJlZj0iI2JjIiB0cmFuc2Zvcm09Im1hdHJpeCgwLjA1NTU1NTU1NTU1NTU1NTUwNCwwLDAsMC4wNTU1NTU1NTU1NTU1NTU1MDQsNzkuODMzMzMzMzMzMzMzMjYsMCkiLz48dXNlIHhsaW5rOmhyZWY9IiNhWCIgdHJhbnNmb3JtPSJtYXRyaXgoMC4wNTU1NTU1NTU1NTU1NTU1MDQsMCwwLDAuMDU1NTU1NTU1NTU1NTU1NTA0LDg0LjIyMjIyMjIyMjIyMjE0LDApIi8+PHVzZSB4bGluazpocmVmPSIjYkgiIHRyYW5zZm9ybT0ibWF0cml4KDAuMDU1NTU1NTU1NTU1NTU1NTA0LDAsMCwwLjA1NTU1NTU1NTU1NTU1NTUwNCw4OS43Nzc3Nzc3Nzc3Nzc2OSwwKSIvPjx1c2UgeGxpbms6aHJlZj0iI2JiIiB0cmFuc2Zvcm09Im1hdHJpeCgwLjA1NTU1NTU1NTU1NTU1NTUwNCwwLDAsMC4wNTU1NTU1NTU1NTU1NTU1MDQsOTkuNzc3Nzc3Nzc3Nzc3NjcsMCkiLz48dXNlIHhsaW5rOmhyZWY9IiNiRiIgdHJhbnNmb3JtPSJtYXRyaXgoMC4wNTU1NTU1NTU1NTU1NTU1MDQsMCwwLDAuMDU1NTU1NTU1NTU1NTU1NTA0LDExMC44ODg4ODg4ODg4ODg3NywwKSIvPjx1c2UgeGxpbms6aHJlZj0iI2FaIiB0cmFuc2Zvcm09Im1hdHJpeCgwLjA1NTU1NTU1NTU1NTU1NTUwNCwwLDAsMC4wNTU1NTU1NTU1NTU1NTU1MDQsMTIxLjk5OTk5OTk5OTk5OTg2LDApIi8+PHVzZSB4bGluazpocmVmPSIjYVkiIHRyYW5zZm9ybT0ibWF0cml4KDAuMDU1NTU1NTU1NTU1NTU1NTA0LDAsMCwwLjA1NTU1NTU1NTU1NTU1NTUwNCwxMjguNjExMTExMTExMTEwOTcsMCkiLz48dXNlIHhsaW5rOmhyZWY9IiNhWSIgdHJhbnNmb3JtPSJtYXRyaXgoMC4wNTU1NTU1NTU1NTU1NTU1MDQsMCwwLDAuMDU1NTU1NTU1NTU1NTU1NTA0LDEzOS43MjIyMjIyMjIyMjIwNiwwKSIvPjx1c2UgeGxpbms6aHJlZj0iI2JKIiB0cmFuc2Zvcm09Im1hdHJpeCgwLjA1NTU1NTU1NTU1NTU1NTUwNCwwLDAsMC4wNTU1NTU1NTU1NTU1NTU1MDQsMTUwLjgzMzMzMzMzMzMzMzE0LDApIi8+PHVzZSB4bGluazpocmVmPSIjYVkiIHRyYW5zZm9ybT0ibWF0cml4KDAuMDU1NTU1NTU1NTU1NTU1NTA0LDAsMCwwLjA1NTU1NTU1NTU1NTU1NTUwNCwxNjcuNDQ0NDQ0NDQ0NDQ0MjMsMCkiLz48dXNlIHhsaW5rOmhyZWY9IiNiYSIgdHJhbnNmb3JtPSJtYXRyaXgoMC4wNTU1NTU1NTU1NTU1NTU1MDQsMCwwLDAuMDU1NTU1NTU1NTU1NTU1NTA0LDE3OC41NTU1NTU1NTU1NTUzMiwwKSIvPjx1c2UgeGxpbms6aHJlZj0iI2FYIiB0cmFuc2Zvcm09Im1hdHJpeCgwLjA1NTU1NTU1NTU1NTU1NTUwNCwwLDAsMC4wNTU1NTU1NTU1NTU1NTU1MDQsMTg5LjY2NjY2NjY2NjY2NjQsMCkiLz48dXNlIHhsaW5rOmhyZWY9IiNiayIgdHJhbnNmb3JtPSJtYXRyaXgoMC4wNTU1NTU1NTU1NTU1NTU1MDQsMCwwLDAuMDU1NTU1NTU1NTU1NTU1NTA0LDE5NS4yMjIyMjIyMjIyMjE5NCwwKSIvPjx1c2UgeGxpbms6aHJlZj0iI2NiIiB0cmFuc2Zvcm09Im1hdHJpeCgwLjA1NTU1NTU1NTU1NTU1NTUwNCwwLDAsMC4wNTU1NTU1NTU1NTU1NTU1MDQsMjA1LjIyMjIyMjIyMjIyMTk0LDApIi8+PHVzZSB4bGluazpocmVmPSIjY2QiIHRyYW5zZm9ybT0ibWF0cml4KDAuMDU1NTU1NTU1NTU1NTU1NTA0LDAsMCwwLjA1NTU1NTU1NTU1NTU1NTUwNCwyMTAuNzc3Nzc3Nzc3Nzc3NSwwKSIvPjx1c2UgeGxpbms6aHJlZj0iI2NlIiB0cmFuc2Zvcm09Im1hdHJpeCgwLjA1NTU1NTU1NTU1NTU1NTUwNCwwLDAsMC4wNTU1NTU1NTU1NTU1NTU1MDQsMjE3LjQ0NDQ0NDQ0NDQ0NDE0LDApIi8+PHVzZSB4bGluazpocmVmPSIjYVkiIHRyYW5zZm9ybT0ibWF0cml4KDAuMDU1NTU1NTU1NTU1NTU1NTA0LDAsMCwwLjA1NTU1NTU1NTU1NTU1NTUwNCwyMjcuNDQ0NDQ0NDQ0NDQ0MTQsMCkiLz48dXNlIHhsaW5rOmhyZWY9IiNiSCIgdHJhbnNmb3JtPSJtYXRyaXgoMC4wNTU1NTU1NTU1NTU1NTU1MDQsMCwwLDAuMDU1NTU1NTU1NTU1NTU1NTA0LDIzOC41NTU1NTU1NTU1NTUzLDApIi8+PHVzZSB4bGluazpocmVmPSIjYnQiIHRyYW5zZm9ybT0ibWF0cml4KDAuMDU1NTU1NTU1NTU1NTU1NTA0LDAsMCwwLjA1NTU1NTU1NTU1NTU1NTUwNCwyNDguNTU1NTU1NTU1NTU1MywwKSIvPjx1c2UgeGxpbms6aHJlZj0iI2JIIiB0cmFuc2Zvcm09Im1hdHJpeCgwLjA1NTU1NTU1NTU1NTU1NTUwNCwwLDAsMC4wNTU1NTU1NTU1NTU1NTU1MDQsMjU5LjYxMTExMTExMTExMDgsMCkiLz48dXNlIHhsaW5rOmhyZWY9IiNiTSIgdHJhbnNmb3JtPSJtYXRyaXgoMC4wNTU1NTU1NTU1NTU1NTU1MDQsMCwwLDAuMDU1NTU1NTU1NTU1NTU1NTA0LDI2OS42MTExMTExMTExMTA4LDApIi8+PHVzZSB4bGluazpocmVmPSIjYVkiIHRyYW5zZm9ybT0ibWF0cml4KDAuMDU1NTU1NTU1NTU1NTU1NTA0LDAsMCwwLjA1NTU1NTU1NTU1NTU1NTUwNCwyODAuNzIyMjIyMjIyMjIxOSwwKSIvPjx1c2UgeGxpbms6aHJlZj0iI2NmIiB0cmFuc2Zvcm09Im1hdHJpeCgwLjA1NTU1NTU1NTU1NTU1NTUwNCwwLDAsMC4wNTU1NTU1NTU1NTU1NTU1MDQsMjkxLjgzMzMzMzMzMzMzMywwKSIvPjwvZz48cGF0aCBpZD0iY2ciIGQ9Ik0xOTQgMEw5NS0xMjAgNjMtOTVWMEgzMHYtMjQ4aDMzdjEyNGwxMTktMTI0aDQwTDExNy0xNDAgMjM2IDBoLTQyIiBmaWxsPSIjM2E0MTRhIi8+PGcgaWQ9ImFGIj48dXNlIHhsaW5rOmhyZWY9IiNjZCIgdHJhbnNmb3JtPSJtYXRyaXgoMC4wNTU1NTU1NTU1NTU1NTU1MDQsMCwwLDAuMDU1NTU1NTU1NTU1NTU1NTA0LDAsMCkiLz48dXNlIHhsaW5rOmhyZWY9IiNjZyIgdHJhbnNmb3JtPSJtYXRyaXgoMC4wNTU1NTU1NTU1NTU1NTU1MDQsMCwwLDAuMDU1NTU1NTU1NTU1NTU1NTA0LDYuNjY2NjY2NjY2NjY2NjYxLDApIi8+PHVzZSB4bGluazpocmVmPSIjYVkiIHRyYW5zZm9ybT0ibWF0cml4KDAuMDU1NTU1NTU1NTU1NTU1NTA0LDAsMCwwLjA1NTU1NTU1NTU1NTU1NTUwNCwxOS45OTk5OTk5OTk5OTk5ODIsMCkiLz48dXNlIHhsaW5rOmhyZWY9IiNiSCIgdHJhbnNmb3JtPSJtYXRyaXgoMC4wNTU1NTU1NTU1NTU1NTU1MDQsMCwwLDAuMDU1NTU1NTU1NTU1NTU1NTA0LDMxLjExMTExMTExMTExMTA4MiwwKSIvPjx1c2UgeGxpbms6aHJlZj0iI2NmIiB0cmFuc2Zvcm09Im1hdHJpeCgwLjA1NTU1NTU1NTU1NTU1NTUwNCwwLDAsMC4wNTU1NTU1NTU1NTU1NTU1MDQsNDEuMTExMTExMTExMTExMDcsMCkiLz48dXNlIHhsaW5rOmhyZWY9IiNjYiIgdHJhbnNmb3JtPSJtYXRyaXgoMC4wNTU1NTU1NTU1NTU1NTU1MDQsMCwwLDAuMDU1NTU1NTU1NTU1NTU1NTA0LDQ3Ljc3Nzc3Nzc3Nzc3NzczLDApIi8+PHVzZSB4bGluazpocmVmPSIjYVoiIHRyYW5zZm9ybT0ibWF0cml4KDAuMDU1NTU1NTU1NTU1NTU1NTA0LDAsMCwwLjA1NTU1NTU1NTU1NTU1NTUwNCw1My4zMzMzMzMzMzMzMzMyOCwwKSIvPjx1c2UgeGxpbms6aHJlZj0iI2FZIiB0cmFuc2Zvcm09Im1hdHJpeCgwLjA1NTU1NTU1NTU1NTU1NTUwNCwwLDAsMC4wNTU1NTU1NTU1NTU1NTU1MDQsNTkuOTQ0NDQ0NDQ0NDQ0Mzg2LDApIi8+PHVzZSB4bGluazpocmVmPSIjYkwiIHRyYW5zZm9ybT0ibWF0cml4KDAuMDU1NTU1NTU1NTU1NTU1NTA0LDAsMCwwLjA1NTU1NTU1NTU1NTU1NTUwNCw3MS4wNTU1NTU1NTU1NTU0OSwwKSIvPjx1c2UgeGxpbms6aHJlZj0iI2JiIiB0cmFuc2Zvcm09Im1hdHJpeCgwLjA1NTU1NTU1NTU1NTU1NTUwNCwwLDAsMC4wNTU1NTU1NTU1NTU1NTU1MDQsODUuNDQ0NDQ0NDQ0NDQ0MzYsMCkiLz48dXNlIHhsaW5rOmhyZWY9IiNhWiIgdHJhbnNmb3JtPSJtYXRyaXgoMC4wNTU1NTU1NTU1NTU1NTU1MDQsMCwwLDAuMDU1NTU1NTU1NTU1NTU1NTA0LDk2LjU1NTU1NTU1NTU1NTQ2LDApIi8+PHVzZSB4bGluazpocmVmPSIjYmkiIHRyYW5zZm9ybT0ibWF0cml4KDAuMDU1NTU1NTU1NTU1NTU1NTA0LDAsMCwwLjA1NTU1NTU1NTU1NTU1NTUwNCwxMDMuMTY2NjY2NjY2NjY2NTYsMCkiLz48dXNlIHhsaW5rOmhyZWY9IiNiYiIgdHJhbnNmb3JtPSJtYXRyaXgoMC4wNTU1NTU1NTU1NTU1NTU1MDQsMCwwLDAuMDU1NTU1NTU1NTU1NTU1NTA0LDExNC4yNzc3Nzc3Nzc3Nzc2NCwwKSIvPjx1c2UgeGxpbms6aHJlZj0iI2JpIiB0cmFuc2Zvcm09Im1hdHJpeCgwLjA1NTU1NTU1NTU1NTU1NTUwNCwwLDAsMC4wNTU1NTU1NTU1NTU1NTU1MDQsMTI1LjM4ODg4ODg4ODg4ODc0LDApIi8+PHVzZSB4bGluazpocmVmPSIjYkkiIHRyYW5zZm9ybT0ibWF0cml4KDAuMDU1NTU1NTU1NTU1NTU1NTA0LDAsMCwwLjA1NTU1NTU1NTU1NTU1NTUwNCwxMzYuNDk5OTk5OTk5OTk5ODYsMCkiLz48dXNlIHhsaW5rOmhyZWY9IiNibSIgdHJhbnNmb3JtPSJtYXRyaXgoMC4wNTU1NTU1NTU1NTU1NTU1MDQsMCwwLDAuMDU1NTU1NTU1NTU1NTU1NTA0LDE0MC44ODg4ODg4ODg4ODg3NCwwKSIvPjx1c2UgeGxpbms6aHJlZj0iI2JrIiB0cmFuc2Zvcm09Im1hdHJpeCgwLjA1NTU1NTU1NTU1NTU1NTUwNCwwLDAsMC4wNTU1NTU1NTU1NTU1NTU1MDQsMTUxLjk5OTk5OTk5OTk5OTgzLDApIi8+PHVzZSB4bGluazpocmVmPSIjYVgiIHRyYW5zZm9ybT0ibWF0cml4KDAuMDU1NTU1NTU1NTU1NTU1NTA0LDAsMCwwLjA1NTU1NTU1NTU1NTU1NTUwNCwxNjEuOTk5OTk5OTk5OTk5ODMsMCkiLz48dXNlIHhsaW5rOmhyZWY9IiNiSiIgdHJhbnNmb3JtPSJtYXRyaXgoMC4wNTU1NTU1NTU1NTU1NTU1MDQsMCwwLDAuMDU1NTU1NTU1NTU1NTU1NTA0LDE2Ny41NTU1NTU1NTU1NTUzNywwKSIvPjx1c2UgeGxpbms6aHJlZj0iI2FZIiB0cmFuc2Zvcm09Im1hdHJpeCgwLjA1NTU1NTU1NTU1NTU1NTUwNCwwLDAsMC4wNTU1NTU1NTU1NTU1NTU1MDQsMTg0LjE2NjY2NjY2NjY2NjQ2LDApIi8+PHVzZSB4bGluazpocmVmPSIjYmEiIHRyYW5zZm9ybT0ibWF0cml4KDAuMDU1NTU1NTU1NTU1NTU1NTA0LDAsMCwwLjA1NTU1NTU1NTU1NTU1NTUwNCwxOTUuMjc3Nzc3Nzc3Nzc3NTQsMCkiLz48dXNlIHhsaW5rOmhyZWY9IiNhWCIgdHJhbnNmb3JtPSJtYXRyaXgoMC4wNTU1NTU1NTU1NTU1NTU1MDQsMCwwLDAuMDU1NTU1NTU1NTU1NTU1NTA0LDIwNi4zODg4ODg4ODg4ODg2MywwKSIvPjx1c2UgeGxpbms6aHJlZj0iI2FZIiB0cmFuc2Zvcm09Im1hdHJpeCgwLjA1NTU1NTU1NTU1NTU1NTUwNCwwLDAsMC4wNTU1NTU1NTU1NTU1NTU1MDQsMjExLjk0NDQ0NDQ0NDQ0NDE3LDApIi8+PHVzZSB4bGluazpocmVmPSIjYmQiIHRyYW5zZm9ybT0ibWF0cml4KDAuMDU1NTU1NTU1NTU1NTU1NTA0LDAsMCwwLjA1NTU1NTU1NTU1NTU1NTUwNCwyMjMuMDU1NTU1NTU1NTU1MjYsMCkiLz48dXNlIHhsaW5rOmhyZWY9IiNhWSIgdHJhbnNmb3JtPSJtYXRyaXgoMC4wNTU1NTU1NTU1NTU1NTU1MDQsMCwwLDAuMDU1NTU1NTU1NTU1NTU1NTA0LDIzMy4wNTU1NTU1NTU1NTUyMywwKSIvPjx1c2UgeGxpbms6aHJlZj0iI2JhIiB0cmFuc2Zvcm09Im1hdHJpeCgwLjA1NTU1NTU1NTU1NTU1NTUwNCwwLDAsMC4wNTU1NTU1NTU1NTU1NTU1MDQsMjQ0LjE2NjY2NjY2NjY2NjM0LDApIi8+PHVzZSB4bGluazpocmVmPSIjYVgiIHRyYW5zZm9ybT0ibWF0cml4KDAuMDU1NTU1NTU1NTU1NTU1NTA0LDAsMCwwLjA1NTU1NTU1NTU1NTU1NTUwNCwyNTUuMjc3Nzc3Nzc3Nzc3NDMsMCkiLz48dXNlIHhsaW5rOmhyZWY9IiNiayIgdHJhbnNmb3JtPSJtYXRyaXgoMC4wNTU1NTU1NTU1NTU1NTU1MDQsMCwwLDAuMDU1NTU1NTU1NTU1NTU1NTA0LDI2MC44MzMzMzMzMzMzMzMsMCkiLz48dXNlIHhsaW5rOmhyZWY9IiNjYSIgdHJhbnNmb3JtPSJtYXRyaXgoMC4wNTU1NTU1NTU1NTU1NTU1MDQsMCwwLDAuMDU1NTU1NTU1NTU1NTU1NTA0LDI3MC44MzMzMzMzMzMzMzMsMCkiLz48L2c+PGcgaWQ9ImFHIj48dXNlIHhsaW5rOmhyZWY9IiNibyIgdHJhbnNmb3JtPSJtYXRyaXgoMC4wNjE3MjgzOTUwNjE3MjgzOSwwLDAsMC4wNjE3MjgzOTUwNjE3MjgzOSwwLDApIi8+PHVzZSB4bGluazpocmVmPSIjYm0iIHRyYW5zZm9ybT0ibWF0cml4KDAuMDYxNzI4Mzk1MDYxNzI4MzksMCwwLDAuMDYxNzI4Mzk1MDYxNzI4MzksMTQuODE0ODE0ODE0ODE0ODEzLDApIi8+PHVzZSB4bGluazpocmVmPSIjYmciIHRyYW5zZm9ybT0ibWF0cml4KDAuMDYxNzI4Mzk1MDYxNzI4MzksMCwwLDAuMDYxNzI4Mzk1MDYxNzI4MzksMjcuMTYwNDkzODI3MTYwNDk0LDApIi8+PHVzZSB4bGluazpocmVmPSIjYmciIHRyYW5zZm9ybT0ibWF0cml4KDAuMDYxNzI4Mzk1MDYxNzI4MzksMCwwLDAuMDYxNzI4Mzk1MDYxNzI4MzksMzguMjcxNjA0OTM4MjcxNjEsMCkiLz48dXNlIHhsaW5rOmhyZWY9IiNhWSIgdHJhbnNmb3JtPSJtYXRyaXgoMC4wNjE3MjgzOTUwNjE3MjgzOSwwLDAsMC4wNjE3MjgzOTUwNjE3MjgzOSw0OS4zODI3MTYwNDkzODI3MiwwKSIvPjx1c2UgeGxpbms6aHJlZj0iI2JrIiB0cmFuc2Zvcm09Im1hdHJpeCgwLjA2MTcyODM5NTA2MTcyODM5LDAsMCwwLjA2MTcyODM5NTA2MTcyODM5LDYxLjcyODM5NTA2MTcyODQsMCkiLz48dXNlIHhsaW5rOmhyZWY9IiNiayIgdHJhbnNmb3JtPSJtYXRyaXgoMC4wNjE3MjgzOTUwNjE3MjgzOSwwLDAsMC4wNjE3MjgzOTUwNjE3MjgzOSw3Mi44Mzk1MDYxNzI4Mzk1LDApIi8+PC9nPjxnIGlkPSJhSCI+PHVzZSB4bGluazpocmVmPSIjYk0iIHRyYW5zZm9ybT0ibWF0cml4KDAuMDQzMjA5ODc2NTQzMjA5ODcsMCwwLDAuMDQzMjA5ODc2NTQzMjA5ODcsMCwwKSIvPjx1c2UgeGxpbms6aHJlZj0iI2JoIiB0cmFuc2Zvcm09Im1hdHJpeCgwLjA0MzIwOTg3NjU0MzIwOTg3LDAsMCwwLjA0MzIwOTg3NjU0MzIwOTg3LDguNjQxOTc1MzA4NjQxOTczLDApIi8+PHVzZSB4bGluazpocmVmPSIjYk0iIHRyYW5zZm9ybT0ibWF0cml4KDAuMDQzMjA5ODc2NTQzMjA5ODcsMCwwLDAuMDQzMjA5ODc2NTQzMjA5ODcsMTcuMjgzOTUwNjE3MjgzOTQ2LDApIi8+PHVzZSB4bGluazpocmVmPSIjYm0iIHRyYW5zZm9ybT0ibWF0cml4KDAuMDQzMjA5ODc2NTQzMjA5ODcsMCwwLDAuMDQzMjA5ODc2NTQzMjA5ODcsMjUuOTI1OTI1OTI1OTI1OTE3LDApIi8+PHVzZSB4bGluazpocmVmPSIjYVciIHRyYW5zZm9ybT0ibWF0cml4KDAuMDQzMjA5ODc2NTQzMjA5ODcsMCwwLDAuMDQzMjA5ODc2NTQzMjA5ODcsMzQuNTY3OTAxMjM0NTY3ODksMCkiLz48dXNlIHhsaW5rOmhyZWY9IiNiYiIgdHJhbnNmb3JtPSJtYXRyaXgoMC4wNDMyMDk4NzY1NDMyMDk4NywwLDAsMC4wNDMyMDk4NzY1NDMyMDk4NywzNy45ODE0ODE0ODE0ODE0NzQsMCkiLz48dXNlIHhsaW5rOmhyZWY9IiNhWCIgdHJhbnNmb3JtPSJtYXRyaXgoMC4wNDMyMDk4NzY1NDMyMDk4NywwLDAsMC4wNDMyMDk4NzY1NDMyMDk4Nyw0Ni42MjM0NTY3OTAxMjM0NSwwKSIvPjx1c2UgeGxpbms6aHJlZj0iI2FZIiB0cmFuc2Zvcm09Im1hdHJpeCgwLjA0MzIwOTg3NjU0MzIwOTg3LDAsMCwwLjA0MzIwOTg3NjU0MzIwOTg3LDUwLjk0NDQ0NDQ0NDQ0NDQzNiwwKSIvPjwvZz48cGF0aCBpZD0iY2giIGQ9Ik0xMzcgMGgtMzRMMi0yNDhoMzVsODMgMjE4IDgzLTIxOGgzNiIgZmlsbD0iIzNhNDE0YSIvPjxnIGlkPSJhSSI+PHVzZSB4bGluazpocmVmPSIjYnEiIHRyYW5zZm9ybT0ibWF0cml4KDAuMDQzMjA5ODc2NTQzMjA5ODcsMCwwLDAuMDQzMjA5ODc2NTQzMjA5ODcsMCwwKSIvPjx1c2UgeGxpbms6aHJlZj0iI2NoIiB0cmFuc2Zvcm09Im1hdHJpeCgwLjA0MzIwOTg3NjU0MzIwOTg3LDAsMCwwLjA0MzIwOTg3NjU0MzIwOTg3LDEwLjM3MDM3MDM3MDM3MDM2OCwwKSIvPjx1c2UgeGxpbms6aHJlZj0iI2JxIiB0cmFuc2Zvcm09Im1hdHJpeCgwLjA0MzIwOTg3NjU0MzIwOTg3LDAsMCwwLjA0MzIwOTg3NjU0MzIwOTg3LDIwLjc0MDc0MDc0MDc0MDczNywwKSIvPjx1c2UgeGxpbms6aHJlZj0iI2J2IiB0cmFuc2Zvcm09Im1hdHJpeCgwLjA0MzIwOTg3NjU0MzIwOTg3LDAsMCwwLjA0MzIwOTg3NjU0MzIwOTg3LDMxLjExMTExMTExMTExMTExLDApIi8+PHVzZSB4bGluazpocmVmPSIjYnQiIHRyYW5zZm9ybT0ibWF0cml4KDAuMDQzMjA5ODc2NTQzMjA5ODcsMCwwLDAuMDQzMjA5ODc2NTQzMjA5ODcsNDIuMzAyNDY5MTM1ODAyNDYsMCkiLz48dXNlIHhsaW5rOmhyZWY9IiNieSIgdHJhbnNmb3JtPSJtYXRyaXgoMC4wNDMyMDk4NzY1NDMyMDk4NywwLDAsMC4wNDMyMDk4NzY1NDMyMDk4Nyw1MS43NjU0MzIwOTg3NjU0MiwwKSIvPjx1c2UgeGxpbms6aHJlZj0iI2JxIiB0cmFuc2Zvcm09Im1hdHJpeCgwLjA0MzIwOTg3NjU0MzIwOTg3LDAsMCwwLjA0MzIwOTg3NjU0MzIwOTg3LDYwLjQwNzQwNzQwNzQwNzQsMCkiLz48dXNlIHhsaW5rOmhyZWY9IiNidiIgdHJhbnNmb3JtPSJtYXRyaXgoMC4wNDMyMDk4NzY1NDMyMDk4NywwLDAsMC4wNDMyMDk4NzY1NDMyMDk4Nyw3MC43Nzc3Nzc3Nzc3Nzc3NywwKSIvPjx1c2UgeGxpbms6aHJlZj0iI2JDIiB0cmFuc2Zvcm09Im1hdHJpeCgwLjA0MzIwOTg3NjU0MzIwOTg3LDAsMCwwLjA0MzIwOTg3NjU0MzIwOTg3LDgxLjk2OTEzNTgwMjQ2OTEzLDApIi8+PHVzZSB4bGluazpocmVmPSIjYnkiIHRyYW5zZm9ybT0ibWF0cml4KDAuMDQzMjA5ODc2NTQzMjA5ODcsMCwwLDAuMDQzMjA5ODc2NTQzMjA5ODcsOTMuMTYwNDkzODI3MTYwNDgsMCkiLz48dXNlIHhsaW5rOmhyZWY9IiNiQyIgdHJhbnNmb3JtPSJtYXRyaXgoMC4wNDMyMDk4NzY1NDMyMDk4NywwLDAsMC4wNDMyMDk4NzY1NDMyMDk4NywxMDEuODAyNDY5MTM1ODAyNDUsMCkiLz48dXNlIHhsaW5rOmhyZWY9IiNidCIgdHJhbnNmb3JtPSJtYXRyaXgoMC4wNDMyMDk4NzY1NDMyMDk4NywwLDAsMC4wNDMyMDk4NzY1NDMyMDk4NywxMTIuOTkzODI3MTYwNDkzODEsMCkiLz48dXNlIHhsaW5rOmhyZWY9IiNidCIgdHJhbnNmb3JtPSJtYXRyaXgoMC4wNDMyMDk4NzY1NDMyMDk4NywwLDAsMC4wNDMyMDk4NzY1NDMyMDk4NywxMjIuNDU2NzkwMTIzNDU2NzcsMCkiLz48dXNlIHhsaW5rOmhyZWY9IiNiTyIgdHJhbnNmb3JtPSJtYXRyaXgoMC4wNDMyMDk4NzY1NDMyMDk4NywwLDAsMC4wNDMyMDk4NzY1NDMyMDk4NywxMzEuOTE5NzUzMDg2NDE5NzIsMCkiLz48L2c+PGcgaWQ9ImFKIj48dXNlIHhsaW5rOmhyZWY9IiNiYyIgdHJhbnNmb3JtPSJtYXRyaXgoMC4wNDMyMDk4NzY1NDMyMDk4NywwLDAsMC4wNDMyMDk4NzY1NDMyMDk4NywwLDApIi8+PHVzZSB4bGluazpocmVmPSIjYmEiIHRyYW5zZm9ybT0ibWF0cml4KDAuMDQzMjA5ODc2NTQzMjA5ODcsMCwwLDAuMDQzMjA5ODc2NTQzMjA5ODcsMy40MTM1ODAyNDY5MTM1Nzk0LDApIi8+PC9nPjxnIGlkPSJhSyI+PHVzZSB4bGluazpocmVmPSIjYVkiIHRyYW5zZm9ybT0ibWF0cml4KDAuMDQzMjA5ODc2NTQzMjA5ODcsMCwwLDAuMDQzMjA5ODc2NTQzMjA5ODcsMCwwKSIvPjx1c2UgeGxpbms6aHJlZj0iI2JkIiB0cmFuc2Zvcm09Im1hdHJpeCgwLjA0MzIwOTg3NjU0MzIwOTg3LDAsMCwwLjA0MzIwOTg3NjU0MzIwOTg3LDguNjQxOTc1MzA4NjQxOTczLDApIi8+PHVzZSB4bGluazpocmVmPSIjYVkiIHRyYW5zZm9ybT0ibWF0cml4KDAuMDQzMjA5ODc2NTQzMjA5ODcsMCwwLDAuMDQzMjA5ODc2NTQzMjA5ODcsMTYuNDE5NzUzMDg2NDE5NzUsMCkiLz48dXNlIHhsaW5rOmhyZWY9IiNiYSIgdHJhbnNmb3JtPSJtYXRyaXgoMC4wNDMyMDk4NzY1NDMyMDk4NywwLDAsMC4wNDMyMDk4NzY1NDMyMDk4NywyNS4wNjE3MjgzOTUwNjE3MjQsMCkiLz48L2c+PGcgaWQ9ImFMIj48dXNlIHhsaW5rOmhyZWY9IiNhWCIgdHJhbnNmb3JtPSJtYXRyaXgoMC4wNDMyMDk4NzY1NDMyMDk4NywwLDAsMC4wNDMyMDk4NzY1NDMyMDk4NywwLDApIi8+PHVzZSB4bGluazpocmVmPSIjYmIiIHRyYW5zZm9ybT0ibWF0cml4KDAuMDQzMjA5ODc2NTQzMjA5ODcsMCwwLDAuMDQzMjA5ODc2NTQzMjA5ODcsNC4zMjA5ODc2NTQzMjA5ODYsMCkiLz48dXNlIHhsaW5rOmhyZWY9IiNiRyIgdHJhbnNmb3JtPSJtYXRyaXgoMC4wNDMyMDk4NzY1NDMyMDk4NywwLDAsMC4wNDMyMDk4NzY1NDMyMDk4NywxMi45NjI5NjI5NjI5NjI5NTgsMCkiLz48dXNlIHhsaW5rOmhyZWY9IiNhVyIgdHJhbnNmb3JtPSJtYXRyaXgoMC4wNDMyMDk4NzY1NDMyMDk4NywwLDAsMC4wNDMyMDk4NzY1NDMyMDk4NywyMS42MDQ5MzgyNzE2MDQ5MywwKSIvPjx1c2UgeGxpbms6aHJlZj0iI2FZIiB0cmFuc2Zvcm09Im1hdHJpeCgwLjA0MzIwOTg3NjU0MzIwOTg3LDAsMCwwLjA0MzIwOTg3NjU0MzIwOTg3LDI1LjAxODUxODUxODUxODUxLDApIi8+PC9nPjxnIGlkPSJhTSI+PHVzZSB4bGluazpocmVmPSIjYVYiIHRyYW5zZm9ybT0ibWF0cml4KDAuMDYxNzI4Mzk1MDYxNzI4MzksMCwwLDAuMDYxNzI4Mzk1MDYxNzI4MzksMCwwKSIvPjx1c2UgeGxpbms6aHJlZj0iI2JpIiB0cmFuc2Zvcm09Im1hdHJpeCgwLjA2MTcyODM5NTA2MTcyODM5LDAsMCwwLjA2MTcyODM5NTA2MTcyODM5LDE0LjgxNDgxNDgxNDgxNDgxMywwKSIvPjx1c2UgeGxpbms6aHJlZj0iI2JJIiB0cmFuc2Zvcm09Im1hdHJpeCgwLjA2MTcyODM5NTA2MTcyODM5LDAsMCwwLjA2MTcyODM5NTA2MTcyODM5LDI3LjE2MDQ5MzgyNzE2MDQ5NCwwKSIvPjx1c2UgeGxpbms6aHJlZj0iI2JtIiB0cmFuc2Zvcm09Im1hdHJpeCgwLjA2MTcyODM5NTA2MTcyODM5LDAsMCwwLjA2MTcyODM5NTA2MTcyODM5LDMyLjAzNzAzNzAzNzAzNzA0LDApIi8+PHVzZSB4bGluazpocmVmPSIjYmsiIHRyYW5zZm9ybT0ibWF0cml4KDAuMDYxNzI4Mzk1MDYxNzI4MzksMCwwLDAuMDYxNzI4Mzk1MDYxNzI4MzksNDQuMzgyNzE2MDQ5MzgyNzE1LDApIi8+PHVzZSB4bGluazpocmVmPSIjYVgiIHRyYW5zZm9ybT0ibWF0cml4KDAuMDYxNzI4Mzk1MDYxNzI4MzksMCwwLDAuMDYxNzI4Mzk1MDYxNzI4MzksNTUuNDkzODI3MTYwNDkzODIsMCkiLz48dXNlIHhsaW5rOmhyZWY9IiNiSiIgdHJhbnNmb3JtPSJtYXRyaXgoMC4wNjE3MjgzOTUwNjE3MjgzOSwwLDAsMC4wNjE3MjgzOTUwNjE3MjgzOSw2MS42NjY2NjY2NjY2NjY2NjQsMCkiLz48dXNlIHhsaW5rOmhyZWY9IiNhWSIgdHJhbnNmb3JtPSJtYXRyaXgoMC4wNjE3MjgzOTUwNjE3MjgzOSwwLDAsMC4wNjE3MjgzOTUwNjE3MjgzOSw4MC4xMjM0NTY3OTAxMjM0NiwwKSIvPjx1c2UgeGxpbms6aHJlZj0iI2JhIiB0cmFuc2Zvcm09Im1hdHJpeCgwLjA2MTcyODM5NTA2MTcyODM5LDAsMCwwLjA2MTcyODM5NTA2MTcyODM5LDkyLjQ2OTEzNTgwMjQ2OTE0LDApIi8+PHVzZSB4bGluazpocmVmPSIjYVgiIHRyYW5zZm9ybT0ibWF0cml4KDAuMDYxNzI4Mzk1MDYxNzI4MzksMCwwLDAuMDYxNzI4Mzk1MDYxNzI4MzksMTA0LjgxNDgxNDgxNDgxNDgyLDApIi8+PC9nPjxnIGlkPSJhTiI+PHVzZSB4bGluazpocmVmPSIjYnEiIHRyYW5zZm9ybT0ibWF0cml4KDAuMDYxNzI4Mzk1MDYxNzI4MzksMCwwLDAuMDYxNzI4Mzk1MDYxNzI4MzksMCwwKSIvPjx1c2UgeGxpbms6aHJlZj0iI2JkIiB0cmFuc2Zvcm09Im1hdHJpeCgwLjA2MTcyODM5NTA2MTcyODM5LDAsMCwwLjA2MTcyODM5NTA2MTcyODM5LDE0LjgxNDgxNDgxNDgxNDgxMywwKSIvPjx1c2UgeGxpbms6aHJlZj0iI2FZIiB0cmFuc2Zvcm09Im1hdHJpeCgwLjA2MTcyODM5NTA2MTcyODM5LDAsMCwwLjA2MTcyODM5NTA2MTcyODM5LDI1LjkyNTkyNTkyNTkyNTkyNCwwKSIvPjx1c2UgeGxpbms6aHJlZj0iI2JhIiB0cmFuc2Zvcm09Im1hdHJpeCgwLjA2MTcyODM5NTA2MTcyODM5LDAsMCwwLjA2MTcyODM5NTA2MTcyODM5LDM4LjI3MTYwNDkzODI3MTYsMCkiLz48dXNlIHhsaW5rOmhyZWY9IiNhWCIgdHJhbnNmb3JtPSJtYXRyaXgoMC4wNjE3MjgzOTUwNjE3MjgzOSwwLDAsMC4wNjE3MjgzOTUwNjE3MjgzOSw1MC42MTcyODM5NTA2MTcyOCwwKSIvPjwvZz48ZyBpZD0iYU8iPjx1c2UgeGxpbms6aHJlZj0iI2JmIiB0cmFuc2Zvcm09Im1hdHJpeCgwLjA2MTcyODM5NTA2MTcyODM5LDAsMCwwLjA2MTcyODM5NTA2MTcyODM5LDAsMCkiLz48dXNlIHhsaW5rOmhyZWY9IiNiYiIgdHJhbnNmb3JtPSJtYXRyaXgoMC4wNjE3MjgzOTUwNjE3MjgzOSwwLDAsMC4wNjE3MjgzOTUwNjE3MjgzOSw2LjE3MjgzOTUwNjE3MjgzOSwwKSIvPjx1c2UgeGxpbms6aHJlZj0iI2JjIiB0cmFuc2Zvcm09Im1hdHJpeCgwLjA2MTcyODM5NTA2MTcyODM5LDAsMCwwLjA2MTcyODM5NTA2MTcyODM5LDE4LjUxODUxODUxODUxODUyLDApIi8+PHVzZSB4bGluazpocmVmPSIjYVciIHRyYW5zZm9ybT0ibWF0cml4KDAuMDYxNzI4Mzk1MDYxNzI4MzksMCwwLDAuMDYxNzI4Mzk1MDYxNzI4MzksMjMuMzk1MDYxNzI4Mzk1MDYzLDApIi8+PHVzZSB4bGluazpocmVmPSIjYVkiIHRyYW5zZm9ybT0ibWF0cml4KDAuMDYxNzI4Mzk1MDYxNzI4MzksMCwwLDAuMDYxNzI4Mzk1MDYxNzI4MzksMjguMjcxNjA0OTM4MjcxNjA4LDApIi8+PHVzZSB4bGluazpocmVmPSIjYmkiIHRyYW5zZm9ybT0ibWF0cml4KDAuMDYxNzI4Mzk1MDYxNzI4MzksMCwwLDAuMDYxNzI4Mzk1MDYxNzI4MzksNDAuNjE3MjgzOTUwNjE3Mjg1LDApIi8+PC9nPjxnIGlkPSJhUCI+PHVzZSB4bGluazpocmVmPSIjYlUiIHRyYW5zZm9ybT0ibWF0cml4KDAuMDQzMjA5ODc2NTQzMjA5ODcsMCwwLDAuMDQzMjA5ODc2NTQzMjA5ODcsMCwwKSIvPjx1c2UgeGxpbms6aHJlZj0iI2JNIiB0cmFuc2Zvcm09Im1hdHJpeCgwLjA0MzIwOTg3NjU0MzIwOTg3LDAsMCwwLjA0MzIwOTg3NjU0MzIwOTg3LDExLjE5MTM1ODAyNDY5MTM1NiwwKSIvPjx1c2UgeGxpbms6aHJlZj0iI2JpIiB0cmFuc2Zvcm09Im1hdHJpeCgwLjA0MzIwOTg3NjU0MzIwOTg3LDAsMCwwLjA0MzIwOTg3NjU0MzIwOTg3LDE5LjgzMzMzMzMzMzMzMzMzLDApIi8+PHVzZSB4bGluazpocmVmPSIjYmIiIHRyYW5zZm9ybT0ibWF0cml4KDAuMDQzMjA5ODc2NTQzMjA5ODcsMCwwLDAuMDQzMjA5ODc2NTQzMjA5ODcsMjguNDc1MzA4NjQxOTc1MzAzLDApIi8+PHVzZSB4bGluazpocmVmPSIjYVgiIHRyYW5zZm9ybT0ibWF0cml4KDAuMDQzMjA5ODc2NTQzMjA5ODcsMCwwLDAuMDQzMjA5ODc2NTQzMjA5ODcsMzcuMTE3MjgzOTUwNjE3MjgsMCkiLz48dXNlIHhsaW5rOmhyZWY9IiNhWSIgdHJhbnNmb3JtPSJtYXRyaXgoMC4wNDMyMDk4NzY1NDMyMDk4NywwLDAsMC4wNDMyMDk4NzY1NDMyMDk4Nyw0MS40MzgyNzE2MDQ5MzgyNjUsMCkiLz48L2c+PGcgaWQ9ImFRIj48dXNlIHhsaW5rOmhyZWY9IiNidSIgdHJhbnNmb3JtPSJtYXRyaXgoMC4wNDMyMDk4NzY1NDMyMDk4NywwLDAsMC4wNDMyMDk4NzY1NDMyMDk4NywwLDApIi8+PHVzZSB4bGluazpocmVmPSIjYVkiIHRyYW5zZm9ybT0ibWF0cml4KDAuMDQzMjA5ODc2NTQzMjA5ODcsMCwwLDAuMDQzMjA5ODc2NTQzMjA5ODcsMTEuMTkxMzU4MDI0NjkxMzU2LDApIi8+PHVzZSB4bGluazpocmVmPSIjYmkiIHRyYW5zZm9ybT0ibWF0cml4KDAuMDQzMjA5ODc2NTQzMjA5ODcsMCwwLDAuMDQzMjA5ODc2NTQzMjA5ODcsMTkuODMzMzMzMzMzMzMzMzMsMCkiLz48dXNlIHhsaW5rOmhyZWY9IiNhWSIgdHJhbnNmb3JtPSJtYXRyaXgoMC4wNDMyMDk4NzY1NDMyMDk4NywwLDAsMC4wNDMyMDk4NzY1NDMyMDk4NywyOC40NzUzMDg2NDE5NzUzMDMsMCkiLz48dXNlIHhsaW5rOmhyZWY9IiNiSiIgdHJhbnNmb3JtPSJtYXRyaXgoMC4wNDMyMDk4NzY1NDMyMDk4NywwLDAsMC4wNDMyMDk4NzY1NDMyMDk4NywzNy4xMTcyODM5NTA2MTcyOCwwKSIvPjx1c2UgeGxpbms6aHJlZj0iI2JNIiB0cmFuc2Zvcm09Im1hdHJpeCgwLjA0MzIwOTg3NjU0MzIwOTg3LDAsMCwwLjA0MzIwOTg3NjU0MzIwOTg3LDUwLjAzNzAzNzAzNzAzNzAyNCwwKSIvPjx1c2UgeGxpbms6aHJlZj0iI2FYIiB0cmFuc2Zvcm09Im1hdHJpeCgwLjA0MzIwOTg3NjU0MzIwOTg3LDAsMCwwLjA0MzIwOTg3NjU0MzIwOTg3LDU4LjY3OTAxMjM0NTY3OSwwKSIvPjx1c2UgeGxpbms6aHJlZj0iI2JjIiB0cmFuc2Zvcm09Im1hdHJpeCgwLjA0MzIwOTg3NjU0MzIwOTg3LDAsMCwwLjA0MzIwOTg3NjU0MzIwOTg3LDYyLjk5OTk5OTk5OTk5OTk4NiwwKSIvPjx1c2UgeGxpbms6aHJlZj0iI2JoIiB0cmFuc2Zvcm09Im1hdHJpeCgwLjA0MzIwOTg3NjU0MzIwOTg3LDAsMCwwLjA0MzIwOTg3NjU0MzIwOTg3LDY2LjQxMzU4MDI0NjkxMzU3LDApIi8+PHVzZSB4bGluazpocmVmPSIjYmEiIHRyYW5zZm9ybT0ibWF0cml4KDAuMDQzMjA5ODc2NTQzMjA5ODcsMCwwLDAuMDQzMjA5ODc2NTQzMjA5ODcsNzUuMDU1NTU1NTU1NTU1NTQsMCkiLz48L2c+PGcgaWQ9ImFSIj48dXNlIHhsaW5rOmhyZWY9IiNiQyIgdHJhbnNmb3JtPSJtYXRyaXgoMC4wNDMyMDk4NzY1NDMyMDk4NywwLDAsMC4wNDMyMDk4NzY1NDMyMDk4NywwLDApIi8+PHVzZSB4bGluazpocmVmPSIjYmIiIHRyYW5zZm9ybT0ibWF0cml4KDAuMDQzMjA5ODc2NTQzMjA5ODcsMCwwLDAuMDQzMjA5ODc2NTQzMjA5ODcsMTEuMTkxMzU4MDI0NjkxMzU2LDApIi8+PHVzZSB4bGluazpocmVmPSIjYVgiIHRyYW5zZm9ybT0ibWF0cml4KDAuMDQzMjA5ODc2NTQzMjA5ODcsMCwwLDAuMDQzMjA5ODc2NTQzMjA5ODcsMTkuODMzMzMzMzMzMzMzMzMsMCkiLz48dXNlIHhsaW5rOmhyZWY9IiNiYiIgdHJhbnNmb3JtPSJtYXRyaXgoMC4wNDMyMDk4NzY1NDMyMDk4NywwLDAsMC4wNDMyMDk4NzY1NDMyMDk4NywyNC4xNTQzMjA5ODc2NTQzMTYsMCkiLz48dXNlIHhsaW5rOmhyZWY9IiNiRyIgdHJhbnNmb3JtPSJtYXRyaXgoMC4wNDMyMDk4NzY1NDMyMDk4NywwLDAsMC4wNDMyMDk4NzY1NDMyMDk4NywzMi43OTYyOTYyOTYyOTYyOSwwKSIvPjx1c2UgeGxpbms6aHJlZj0iI2JiIiB0cmFuc2Zvcm09Im1hdHJpeCgwLjA0MzIwOTg3NjU0MzIwOTg3LDAsMCwwLjA0MzIwOTg3NjU0MzIwOTg3LDQxLjQzODI3MTYwNDkzODI2NSwwKSIvPjx1c2UgeGxpbms6aHJlZj0iI2JrIiB0cmFuc2Zvcm09Im1hdHJpeCgwLjA0MzIwOTg3NjU0MzIwOTg3LDAsMCwwLjA0MzIwOTg3NjU0MzIwOTg3LDUwLjA4MDI0NjkxMzU4MDIzLDApIi8+PHVzZSB4bGluazpocmVmPSIjYVkiIHRyYW5zZm9ybT0ibWF0cml4KDAuMDQzMjA5ODc2NTQzMjA5ODcsMCwwLDAuMDQzMjA5ODc2NTQzMjA5ODcsNTcuODU4MDI0NjkxMzU4MDI1LDApIi8+PC9nPjx1c2UgaWQ9ImFTIiB4bGluazpocmVmPSIjYm4iIHRyYW5zZm9ybT0ibWF0cml4KDAuMDQzMjA5ODc2NTQzMjA5ODcsMCwwLDAuMDQzMjA5ODc2NTQzMjA5ODcsMCwwKSIvPjxnIGlkPSJhVCI+PHVzZSB4bGluazpocmVmPSIjYnMiIHRyYW5zZm9ybT0ibWF0cml4KDAuMDQzMjA5ODc2NTQzMjA5ODcsMCwwLDAuMDQzMjA5ODc2NTQzMjA5ODcsMCwwKSIvPjx1c2UgeGxpbms6aHJlZj0iI2JiIiB0cmFuc2Zvcm09Im1hdHJpeCgwLjA0MzIwOTg3NjU0MzIwOTg3LDAsMCwwLjA0MzIwOTg3NjU0MzIwOTg3LDkuNDYyOTYyOTYyOTYyOTYsMCkiLz48dXNlIHhsaW5rOmhyZWY9IiNiYyIgdHJhbnNmb3JtPSJtYXRyaXgoMC4wNDMyMDk4NzY1NDMyMDk4NywwLDAsMC4wNDMyMDk4NzY1NDMyMDk4NywxOC4xMDQ5MzgyNzE2MDQ5MzMsMCkiLz48dXNlIHhsaW5rOmhyZWY9IiNhVyIgdHJhbnNmb3JtPSJtYXRyaXgoMC4wNDMyMDk4NzY1NDMyMDk4NywwLDAsMC4wNDMyMDk4NzY1NDMyMDk4NywyMS41MTg1MTg1MTg1MTg1MTIsMCkiLz48dXNlIHhsaW5rOmhyZWY9IiNibSIgdHJhbnNmb3JtPSJtYXRyaXgoMC4wNDMyMDk4NzY1NDMyMDk4NywwLDAsMC4wNDMyMDk4NzY1NDMyMDk4NywyNC45MzIwOTg3NjU0MzIwODcsMCkiLz48dXNlIHhsaW5rOmhyZWY9IiNhWiIgdHJhbnNmb3JtPSJtYXRyaXgoMC4wNDMyMDk4NzY1NDMyMDk4NywwLDAsMC4wNDMyMDk4NzY1NDMyMDk4NywzMy41NzQwNzQwNzQwNzQwNiwwKSIvPjx1c2UgeGxpbms6aHJlZj0iI2FZIiB0cmFuc2Zvcm09Im1hdHJpeCgwLjA0MzIwOTg3NjU0MzIwOTg3LDAsMCwwLjA0MzIwOTg3NjU0MzIwOTg3LDM4LjcxNjA0OTM4MjcxNjA0LDApIi8+PC9nPjxwYXRoIGlkPSJjaSIgZD0iTTYzLTIyMHY5MmgxMzh2MjhINjNWMEgzMHYtMjQ4aDE3NXYyOEg2MyIvPjxwYXRoIGlkPSJjaiIgZD0iTTE0MS0zNkMxMjYtMTUgMTEwIDUgNzMgNCAzNyAzIDE1LTE3IDE1LTUzYy0xLTY0IDYzLTYzIDEyNS02MyAzLTM1LTktNTQtNDEtNTQtMjQgMS00MSA3LTQyIDMxbC0zMy0zYzUtMzcgMzMtNTIgNzYtNTIgNDUgMCA3MiAyMCA3MiA2NHY4MmMtMSAyMCA3IDMyIDI4IDI3djIwYy0zMSA5LTYxLTItNTktMzV6TTQ4LTUzYzAgMjAgMTIgMzMgMzIgMzMgNDEtMyA2My0yOSA2MC03NC00MyAyLTkyLTUtOTIgNDEiLz48cGF0aCBpZD0iY2siIGQ9Ik0yNC0yMzF2LTMwaDMydjMwSDI0ek0yNCAwdi0xOTBoMzJWMEgyNCIvPjxwYXRoIGlkPSJjbCIgZD0iTTI0IDB2LTI2MWgzMlYwSDI0Ii8+PHBhdGggaWQ9ImNtIiBkPSJNODQgNEMtNSA4IDMwLTExMiAyMy0xOTBoMzJ2MTIwYzAgMzEgNyA1MCAzOSA0OSA3Mi0yIDQ1LTEwMSA1MC0xNjloMzFsMSAxOTBoLTMwYy0xLTEwIDEtMjUtMi0zMy0xMSAyMi0yOCAzNi02MCAzNyIvPjxwYXRoIGlkPSJjbiIgZD0iTTExNC0xNjNDMzYtMTc5IDYxLTcyIDU3IDBIMjVsLTEtMTkwaDMwYzEgMTItMSAyOSAyIDM5IDYtMjcgMjMtNDkgNTgtNDF2MjkiLz48cGF0aCBpZD0iY28iIGQ9Ik0xMDAtMTk0YzYzIDAgODYgNDIgODQgMTA2SDQ5YzAgNDAgMTQgNjcgNTMgNjggMjYgMSA0My0xMiA0OS0yOWwyOCA4Yy0xMSAyOC0zNyA0NS03NyA0NUM0NCA0IDE0LTMzIDE1LTk2YzEtNjEgMjYtOTggODUtOTh6bTUyIDgxYzYtNjAtNzYtNzctOTctMjgtMyA3LTYgMTctNiAyOGgxMDMiLz48ZyBpZD0iYVUiPjx1c2UgeGxpbms6aHJlZj0iI2NpIiB0cmFuc2Zvcm09Im1hdHJpeCgwLjA2MTcyODM5NTA2MTcyODM5LDAsMCwwLjA2MTcyODM5NTA2MTcyODM5LDAsMCkiLz48dXNlIHhsaW5rOmhyZWY9IiNjaiIgdHJhbnNmb3JtPSJtYXRyaXgoMC4wNjE3MjgzOTUwNjE3MjgzOSwwLDAsMC4wNjE3MjgzOTUwNjE3MjgzOSwxMy41MTg1MTg1MTg1MTg1MTcsMCkiLz48dXNlIHhsaW5rOmhyZWY9IiNjayIgdHJhbnNmb3JtPSJtYXRyaXgoMC4wNjE3MjgzOTUwNjE3MjgzOSwwLDAsMC4wNjE3MjgzOTUwNjE3MjgzOSwyNS44NjQxOTc1MzA4NjQxOTYsMCkiLz48dXNlIHhsaW5rOmhyZWY9IiNjbCIgdHJhbnNmb3JtPSJtYXRyaXgoMC4wNjE3MjgzOTUwNjE3MjgzOSwwLDAsMC4wNjE3MjgzOTUwNjE3MjgzOSwzMC43NDA3NDA3NDA3NDA3NCwwKSIvPjx1c2UgeGxpbms6aHJlZj0iI2NtIiB0cmFuc2Zvcm09Im1hdHJpeCgwLjA2MTcyODM5NTA2MTcyODM5LDAsMCwwLjA2MTcyODM5NTA2MTcyODM5LDM1LjYxNzI4Mzk1MDYxNzI4NSwwKSIvPjx1c2UgeGxpbms6aHJlZj0iI2NuIiB0cmFuc2Zvcm09Im1hdHJpeCgwLjA2MTcyODM5NTA2MTcyODM5LDAsMCwwLjA2MTcyODM5NTA2MTcyODM5LDQ3Ljk2Mjk2Mjk2Mjk2Mjk2LDApIi8+PHVzZSB4bGluazpocmVmPSIjY28iIHRyYW5zZm9ybT0ibWF0cml4KDAuMDYxNzI4Mzk1MDYxNzI4MzksMCwwLDAuMDYxNzI4Mzk1MDYxNzI4MzksNTUuMzA4NjQxOTc1MzA4NjQsMCkiLz48L2c+PC9kZWZzPjwvZz48L3N2Zz4=;" vertex="1" parent="1">
          <mxGeometry x="1040" y="690" width="686" height="1292.48" as="geometry" />
        </mxCell>
        <mxCell id="sU2wuI3Lxk2DHLaSyabf-3" value="&lt;font style=&quot;font-size: 7px;&quot; data-font-src=&quot;https://fonts.googleapis.com/css?family=liberation+sans&quot;&gt;/points/credit&lt;/font&gt;" style="text;html=1;strokeColor=none;fillColor=none;align=center;verticalAlign=middle;whiteSpace=wrap;rounded=0;" vertex="1" parent="1">
          <mxGeometry x="1180" y="750" width="60" height="30" as="geometry" />
        </mxCell>
        <mxCell id="sU2wuI3Lxk2DHLaSyabf-4" value="&lt;font style=&quot;font-size: 8px;&quot;&gt;check matching record of PARTNER_TRANSACTION_ID using CreditTransactionId&lt;/font&gt;" style="text;html=1;strokeColor=none;fillColor=none;align=center;verticalAlign=middle;whiteSpace=wrap;rounded=0;fontFamily=Helvetica;" vertex="1" parent="1">
          <mxGeometry x="1320" y="790" width="220" as="geometry" />
        </mxCell>
        <mxCell id="sU2wuI3Lxk2DHLaSyabf-5" value="&lt;font style=&quot;font-size: 8px;&quot;&gt;system outputs the parameters&lt;/font&gt;" style="text;html=1;strokeColor=none;fillColor=none;align=center;verticalAlign=middle;whiteSpace=wrap;rounded=0;fontFamily=Helvetica;fontSize=7;" vertex="1" parent="1">
          <mxGeometry x="1155" y="870" width="120" height="30" as="geometry" />
        </mxCell>
        <mxCell id="sU2wuI3Lxk2DHLaSyabf-6" value="&lt;font style=&quot;font-size: 8px;&quot;&gt;record exists &amp;amp; status = Success&lt;/font&gt;" style="text;html=1;strokeColor=none;fillColor=none;align=center;verticalAlign=middle;whiteSpace=wrap;rounded=0;fontFamily=Helvetica;fontSize=7;" vertex="1" parent="1">
          <mxGeometry x="1370" y="840" width="120" height="30" as="geometry" />
        </mxCell>
        <mxCell id="sU2wuI3Lxk2DHLaSyabf-7" value="&lt;font style=&quot;font-size: 8px;&quot;&gt;record exists &amp;amp; status = Fail&lt;/font&gt;" style="text;html=1;strokeColor=none;fillColor=none;align=center;verticalAlign=middle;whiteSpace=wrap;rounded=0;fontFamily=Helvetica;fontSize=7;" vertex="1" parent="1">
          <mxGeometry x="1370" y="930" width="120" height="30" as="geometry" />
        </mxCell>
        <mxCell id="sU2wuI3Lxk2DHLaSyabf-8" value="&lt;font style=&quot;font-size: 7px;&quot;&gt;check if DebitTransactionId == PARTNER_TRANSACTION_ID &amp;amp; TRANSACTION_TYPE =&quot;DEBIT&quot; &amp;amp;&lt;br&gt;TD_REDEMPTION_LOYALITY_ID &amp;gt;= rewardAdjustmentQty&lt;br&gt;&lt;/font&gt;" style="text;html=1;strokeColor=none;fillColor=none;align=center;verticalAlign=middle;whiteSpace=wrap;rounded=0;fontFamily=Helvetica;fontSize=7;" vertex="1" parent="1">
          <mxGeometry x="1330" y="980" width="200" height="30" as="geometry" />
        </mxCell>
        <mxCell id="sU2wuI3Lxk2DHLaSyabf-9" value="&lt;font style=&quot;font-size: 7px;&quot;&gt;True (TD_REDEMPTION_LOYALITY_ID &amp;gt;= rewardAdjustmentQty)&lt;br&gt;&lt;/font&gt;" style="text;html=1;strokeColor=none;fillColor=none;align=center;verticalAlign=middle;whiteSpace=wrap;rounded=0;fontFamily=Helvetica;fontSize=7;" vertex="1" parent="1">
          <mxGeometry x="1325" y="1030" width="210" height="30" as="geometry" />
        </mxCell>
        <mxCell id="sU2wuI3Lxk2DHLaSyabf-10" value="&lt;font style=&quot;font-size: 8px;&quot;&gt;Retrieve Card info based on instrumentReferenceId&amp;nbsp; &lt;br&gt;(/card/info)&lt;br&gt;&lt;/font&gt;" style="text;html=1;strokeColor=none;fillColor=none;align=center;verticalAlign=middle;whiteSpace=wrap;rounded=0;fontFamily=Helvetica;fontSize=7;" vertex="1" parent="1">
          <mxGeometry x="1330" y="1090" width="210" height="30" as="geometry" />
        </mxCell>
        <mxCell id="sU2wuI3Lxk2DHLaSyabf-11" value="&lt;font style=&quot;font-size: 8px;&quot;&gt;recieved card info&lt;br&gt;&lt;/font&gt;" style="text;html=1;strokeColor=none;fillColor=none;align=center;verticalAlign=middle;whiteSpace=wrap;rounded=0;fontFamily=Helvetica;fontSize=7;" vertex="1" parent="1">
          <mxGeometry x="1330" y="1130" width="210" height="30" as="geometry" />
        </mxCell>
        <mxCell id="sU2wuI3Lxk2DHLaSyabf-12" value="&lt;font style=&quot;font-size: 8px;&quot;&gt;validate if card is eligible&amp;nbsp; (/eligibility)&lt;br&gt;&lt;/font&gt;" style="text;html=1;strokeColor=none;fillColor=none;align=center;verticalAlign=middle;whiteSpace=wrap;rounded=0;fontFamily=Helvetica;fontSize=7;" vertex="1" parent="1">
          <mxGeometry x="1330" y="1160" width="210" height="30" as="geometry" />
        </mxCell>
        <mxCell id="sU2wuI3Lxk2DHLaSyabf-13" value="&lt;font style=&quot;font-size: 8px;&quot;&gt;In event table update status = Success ,&lt;br&gt;Partner_membership_num = PAYPAL&lt;br&gt;&lt;/font&gt;" style="text;html=1;strokeColor=none;fillColor=none;align=center;verticalAlign=middle;whiteSpace=wrap;rounded=0;fontFamily=Helvetica;fontSize=7;" vertex="1" parent="1">
          <mxGeometry x="1530" y="1230" width="210" height="30" as="geometry" />
        </mxCell>
        <mxCell id="sU2wuI3Lxk2DHLaSyabf-14" value="&lt;font style=&quot;font-size: 8px;&quot;&gt;In event table update status = Success ,&lt;br&gt;Partner_membership_num = PAYPAL&lt;br&gt;&lt;/font&gt;" style="text;html=1;strokeColor=none;fillColor=none;align=center;verticalAlign=middle;whiteSpace=wrap;rounded=0;fontFamily=Helvetica;fontSize=7;" vertex="1" parent="1">
          <mxGeometry x="1530" y="1321.24" width="210" height="30" as="geometry" />
        </mxCell>
        <mxCell id="sU2wuI3Lxk2DHLaSyabf-15" value="&lt;font style=&quot;font-size: 8px;&quot;&gt;Generate event_id and store request in&amp;nbsp;&lt;br&gt;Redemption DB&lt;br&gt;&lt;/font&gt;" style="text;html=1;strokeColor=none;fillColor=none;align=center;verticalAlign=middle;whiteSpace=wrap;rounded=0;fontFamily=Helvetica;fontSize=7;" vertex="1" parent="1">
          <mxGeometry x="1530" y="1291.24" width="210" height="30" as="geometry" />
        </mxCell>
      </root>
    </mxGraphModel>
  </diagram>
</mxfile>
